<svg xmlns="http://www.w3.org/2000/svg" xmlns:xlink="http://www.w3.org/1999/xlink" width="360" height="210" viewBox="0 0 360 210"><defs><style>.cls-1{mask:url(#mask);filter:url(#luminosity-noclip-22);}.cls-10,.cls-12,.cls-14,.cls-16,.cls-18,.cls-2,.cls-20,.cls-22,.cls-24,.cls-26,.cls-28,.cls-30,.cls-32,.cls-34,.cls-36,.cls-38,.cls-4,.cls-40,.cls-42,.cls-6,.cls-8,.cls-82,.cls-83{mix-blend-mode:multiply;}.cls-2{fill:url(#linear-gradient);}.cls-3{mask:url(#mask-2);filter:url(#luminosity-noclip-27);}.cls-4{fill:url(#linear-gradient-2);}.cls-5{mask:url(#mask-3);filter:url(#luminosity-noclip-28);}.cls-6{fill:url(#linear-gradient-3);}.cls-7{mask:url(#mask-4);filter:url(#luminosity-noclip-29);}.cls-8{fill:url(#linear-gradient-4);}.cls-9{mask:url(#mask-5);filter:url(#luminosity-noclip-30);}.cls-10{fill:url(#linear-gradient-5);}.cls-11{mask:url(#mask-6);filter:url(#luminosity-noclip-31);}.cls-12{fill:url(#linear-gradient-6);}.cls-13{mask:url(#mask-7);filter:url(#luminosity-noclip-23);}.cls-14{fill:url(#linear-gradient-7);}.cls-15{mask:url(#mask-8);filter:url(#luminosity-noclip-32);}.cls-16{fill:url(#linear-gradient-8);}.cls-17{mask:url(#mask-9);filter:url(#luminosity-noclip-33);}.cls-18{fill:url(#linear-gradient-9);}.cls-19{mask:url(#mask-10);filter:url(#luminosity-noclip-34);}.cls-20{fill:url(#linear-gradient-10);}.cls-21{mask:url(#mask-11);filter:url(#luminosity-noclip-35);}.cls-22{fill:url(#linear-gradient-11);}.cls-23{mask:url(#mask-12);filter:url(#luminosity-noclip-36);}.cls-24{fill:url(#linear-gradient-12);}.cls-25{mask:url(#mask-13);filter:url(#luminosity-noclip-37);}.cls-26{fill:url(#linear-gradient-13);}.cls-27{mask:url(#mask-14);filter:url(#luminosity-noclip-38);}.cls-28{fill:url(#linear-gradient-14);}.cls-29{mask:url(#mask-15);filter:url(#luminosity-noclip-39);}.cls-30{fill:url(#linear-gradient-15);}.cls-31{mask:url(#mask-16);filter:url(#luminosity-noclip-40);}.cls-32{fill:url(#linear-gradient-16);}.cls-33{mask:url(#mask-17);filter:url(#luminosity-noclip-41);}.cls-34{fill:url(#linear-gradient-17);}.cls-35{mask:url(#mask-18);filter:url(#luminosity-noclip-24);}.cls-36{fill:url(#linear-gradient-18);}.cls-37{mask:url(#mask-19);filter:url(#luminosity-noclip-42);}.cls-38{fill:url(#linear-gradient-19);}.cls-39{mask:url(#mask-20);filter:url(#luminosity-noclip-25);}.cls-40{fill:url(#linear-gradient-20);}.cls-41{mask:url(#mask-21);filter:url(#luminosity-noclip-26);}.cls-42{fill:url(#linear-gradient-21);}.cls-43{isolation:isolate;}.cls-44{mask:url(#mask-22);}.cls-45{fill:url(#linear-gradient-22);}.cls-46{mask:url(#mask-23);}.cls-47{fill:url(#linear-gradient-23);}.cls-48{mask:url(#mask-24);}.cls-49{fill:url(#linear-gradient-24);}.cls-50{mask:url(#mask-25);}.cls-51,.cls-53,.cls-56,.cls-72,.cls-74,.cls-83{opacity:0.6;}.cls-51{fill:url(#linear-gradient-25);}.cls-52{mask:url(#mask-26);}.cls-53{fill:url(#linear-gradient-26);}.cls-54{mask:url(#mask-27);}.cls-55{fill:url(#linear-gradient-27);}.cls-56{fill:url(#linear-gradient-28);}.cls-57{mask:url(#mask-28);}.cls-58{fill:url(#linear-gradient-29);}.cls-59{mask:url(#mask-29);}.cls-60{fill:url(#linear-gradient-30);}.cls-61{mask:url(#mask-30);}.cls-62{fill:url(#linear-gradient-31);}.cls-63{mask:url(#mask-31);}.cls-64,.cls-80{opacity:0.5;}.cls-64{fill:url(#linear-gradient-32);}.cls-65{mask:url(#mask-32);}.cls-66,.cls-68,.cls-70{opacity:0.4;}.cls-66{fill:url(#linear-gradient-33);}.cls-67{mask:url(#mask-33);}.cls-68{fill:url(#linear-gradient-34);}.cls-69{mask:url(#mask-34);}.cls-70{fill:url(#linear-gradient-35);}.cls-71{mask:url(#mask-35);}.cls-72{fill:url(#linear-gradient-36);}.cls-73{mask:url(#mask-36);}.cls-74{fill:url(#linear-gradient-37);}.cls-75{mask:url(#mask-37);}.cls-76{fill:url(#linear-gradient-38);}.cls-77{mask:url(#mask-38);}.cls-78,.cls-80{mix-blend-mode:hard-light;}.cls-78{fill:url(#linear-gradient-39);}.cls-79{mask:url(#mask-39);}.cls-80{fill:url(#linear-gradient-40);}.cls-81{mask:url(#mask-40);}.cls-82{fill:url(#linear-gradient-41);}.cls-83{fill:#520b52;}.cls-84{mask:url(#mask-41);}.cls-85{fill:url(#linear-gradient-42);}.cls-86{mask:url(#mask-42);}.cls-87{fill:url(#linear-gradient-43);}.cls-88{fill:url(#linear-gradient-44);}.cls-89{fill:#fff;}.cls-90{filter:url(#luminosity-noclip-21);}.cls-91{filter:url(#luminosity-noclip-20);}.cls-92{filter:url(#luminosity-noclip-19);}.cls-93{filter:url(#luminosity-noclip-18);}.cls-94{filter:url(#luminosity-noclip-17);}.cls-95{filter:url(#luminosity-noclip-16);}.cls-96{filter:url(#luminosity-noclip-15);}.cls-97{filter:url(#luminosity-noclip-14);}.cls-98{filter:url(#luminosity-noclip-13);}.cls-99{filter:url(#luminosity-noclip-12);}.cls-100{filter:url(#luminosity-noclip-11);}.cls-101{filter:url(#luminosity-noclip-10);}.cls-102{filter:url(#luminosity-noclip-9);}.cls-103{filter:url(#luminosity-noclip-8);}.cls-104{filter:url(#luminosity-noclip-7);}.cls-105{filter:url(#luminosity-noclip-6);}.cls-106{filter:url(#luminosity-noclip-5);}.cls-107{filter:url(#luminosity-noclip-4);}.cls-108{filter:url(#luminosity-noclip-3);}.cls-109{filter:url(#luminosity-noclip-2);}.cls-110{filter:url(#luminosity-noclip);}</style><filter id="luminosity-noclip" x="78.4671" y="-8297" width="182.2212" height="32766" filterUnits="userSpaceOnUse" color-interpolation-filters="sRGB"><feFlood flood-color="#fff" result="bg"/><feBlend in="SourceGraphic" in2="bg"/></filter><mask id="mask" x="78.4671" y="-8297" width="182.2212" height="32766" maskUnits="userSpaceOnUse"><g class="cls-110"/></mask><linearGradient id="linear-gradient" x1="131.2937" y1="49.204" x2="234.2401" y2="171.8908" gradientUnits="userSpaceOnUse"><stop offset="0.006" stop-color="#fff"/><stop offset="0.1587" stop-color="#f2f2f2"/><stop offset="0.4389" stop-color="#d1d1d1"/><stop offset="0.4747" stop-color="#ccc"/><stop offset="0.7874" stop-color="#a0a0a0"/><stop offset="1" stop-color="gray"/></linearGradient><filter id="luminosity-noclip-2" x="161.2313" y="-8297" width="105.5742" height="32766" filterUnits="userSpaceOnUse" color-interpolation-filters="sRGB"><feFlood flood-color="#fff" result="bg"/><feBlend in="SourceGraphic" in2="bg"/></filter><mask id="mask-2" x="161.2313" y="-8297" width="105.5742" height="32766" maskUnits="userSpaceOnUse"><g class="cls-109"/></mask><linearGradient id="linear-gradient-2" x1="251.1426" y1="-34.039" x2="271.8684" y2="50.1309" gradientTransform="matrix(0.9978, 0.0669, -0.0669, 0.9978, -43.8423, 89.6585)" gradientUnits="userSpaceOnUse"><stop offset="0.006" stop-color="#fff"/><stop offset="0.4836" stop-color="#fff"/><stop offset="0.791" stop-color="#d3d3d3"/><stop offset="1" stop-color="#b3b3b3"/></linearGradient><filter id="luminosity-noclip-3" x="162.3398" y="-8297" width="7.1755" height="32766" filterUnits="userSpaceOnUse" color-interpolation-filters="sRGB"><feFlood flood-color="#fff" result="bg"/><feBlend in="SourceGraphic" in2="bg"/></filter><mask id="mask-3" x="162.3398" y="-8297" width="7.1755" height="32766" maskUnits="userSpaceOnUse"><g class="cls-108"/></mask><linearGradient id="linear-gradient-3" x1="162.8199" y1="160.1591" x2="169.0351" y2="163.7475" gradientUnits="userSpaceOnUse"><stop offset="0.006" stop-color="#fff"/><stop offset="0.4836" stop-color="#fff"/><stop offset="0.9312" stop-color="#d3d3d3"/><stop offset="1" stop-color="#ccc"/></linearGradient><filter id="luminosity-noclip-4" x="281.739" y="-8297" width="7.1756" height="32766" filterUnits="userSpaceOnUse" color-interpolation-filters="sRGB"><feFlood flood-color="#fff" result="bg"/><feBlend in="SourceGraphic" in2="bg"/></filter><mask id="mask-4" x="281.739" y="-8297" width="7.1756" height="32766" maskUnits="userSpaceOnUse"><g class="cls-107"/></mask><linearGradient id="linear-gradient-4" x1="282.2192" y1="35.8246" x2="288.4344" y2="39.4129" gradientUnits="userSpaceOnUse"><stop offset="0.006" stop-color="#fff"/><stop offset="0.1616" stop-color="#f2f2f2"/><stop offset="0.4471" stop-color="#d1d1d1"/><stop offset="0.4836" stop-color="#ccc"/><stop offset="0.6746" stop-color="#a0a0a0"/><stop offset="1" stop-color="#4d4d4d"/></linearGradient><filter id="luminosity-noclip-5" x="260.6884" y="-8297" width="24.6384" height="32766" filterUnits="userSpaceOnUse" color-interpolation-filters="sRGB"><feFlood flood-color="#fff" result="bg"/><feBlend in="SourceGraphic" in2="bg"/></filter><mask id="mask-5" x="260.6884" y="-8297" width="24.6384" height="32766" maskUnits="userSpaceOnUse"><g class="cls-106"/></mask><linearGradient id="linear-gradient-5" x1="262.3371" y1="127.4203" x2="283.6781" y2="139.7415" xlink:href="#linear-gradient-3"/><filter id="luminosity-noclip-6" x="126.3762" y="-8297" width="18.4322" height="32766" filterUnits="userSpaceOnUse" color-interpolation-filters="sRGB"><feFlood flood-color="#fff" result="bg"/><feBlend in="SourceGraphic" in2="bg"/></filter><mask id="mask-6" x="126.3762" y="-8297" width="18.4322" height="32766" maskUnits="userSpaceOnUse"><g class="cls-105"/></mask><linearGradient id="linear-gradient-6" x1="127.6096" y1="166.7899" x2="143.575" y2="176.0076" gradientTransform="translate(242.0551 -19.4637) rotate(67.5)" xlink:href="#linear-gradient-4"/><filter id="luminosity-noclip-7" x="72.7302" y="-8297" width="193.6942" height="32766" filterUnits="userSpaceOnUse" color-interpolation-filters="sRGB"><feFlood flood-color="#fff" result="bg"/><feBlend in="SourceGraphic" in2="bg"/></filter><mask id="mask-7" x="72.7302" y="-8297" width="193.6942" height="32766" maskUnits="userSpaceOnUse"><g class="cls-104"/></mask><linearGradient id="linear-gradient-7" x1="72.7302" y1="104.5086" x2="266.4244" y2="104.5086" gradientUnits="userSpaceOnUse"><stop offset="0" stop-color="#fff"/><stop offset="0.2188" stop-color="#ccc"/><stop offset="0.3791" stop-color="#a0a0a0"/><stop offset="0.4881" stop-color="gray"/><stop offset="0.747" stop-color="#1a1a1a"/></linearGradient><filter id="luminosity-noclip-8" x="45.7047" y="-8297" width="18.4323" height="32766" filterUnits="userSpaceOnUse" color-interpolation-filters="sRGB"><feFlood flood-color="#fff" result="bg"/><feBlend in="SourceGraphic" in2="bg"/></filter><mask id="mask-8" x="45.7047" y="-8297" width="18.4323" height="32766" maskUnits="userSpaceOnUse"><g class="cls-103"/></mask><linearGradient id="linear-gradient-8" x1="46.9381" y1="57.593" x2="62.9036" y2="66.8107" gradientTransform="translate(0.1396 -0.123) rotate(0.1285)" xlink:href="#linear-gradient-4"/><filter id="luminosity-noclip-9" x="144.0409" y="-8297" width="29.1653" height="32766" filterUnits="userSpaceOnUse" color-interpolation-filters="sRGB"><feFlood flood-color="#fff" result="bg"/><feBlend in="SourceGraphic" in2="bg"/></filter><mask id="mask-9" x="144.0409" y="-8297" width="29.1653" height="32766" maskUnits="userSpaceOnUse"><g class="cls-102"/></mask><linearGradient id="linear-gradient-9" x1="145.9925" y1="28.4032" x2="171.2546" y2="42.9883" gradientTransform="translate(71.7005 -101.7088) rotate(45)" xlink:href="#linear-gradient-4"/><filter id="luminosity-noclip-10" x="190.8249" y="-8297" width="24.8941" height="32766" filterUnits="userSpaceOnUse" color-interpolation-filters="sRGB"><feFlood flood-color="#fff" result="bg"/><feBlend in="SourceGraphic" in2="bg"/></filter><mask id="mask-10" x="190.8249" y="-8297" width="24.8941" height="32766" maskUnits="userSpaceOnUse"><g class="cls-101"/></mask><linearGradient id="linear-gradient-10" x1="192.4907" y1="169.2389" x2="214.0532" y2="181.688" gradientTransform="translate(45.7508 -42.0084) rotate(13.2825)" xlink:href="#linear-gradient-4"/><filter id="luminosity-noclip-11" x="277.4604" y="-8297" width="15.7329" height="32766" filterUnits="userSpaceOnUse" color-interpolation-filters="sRGB"><feFlood flood-color="#fff" result="bg"/><feBlend in="SourceGraphic" in2="bg"/></filter><mask id="mask-11" x="277.4604" y="-8297" width="15.7329" height="32766" maskUnits="userSpaceOnUse"><g class="cls-100"/></mask><linearGradient id="linear-gradient-11" x1="278.5132" y1="33.6849" x2="292.1405" y2="41.5526" gradientTransform="translate(16.2759 -64.5487) rotate(13.2826)" gradientUnits="userSpaceOnUse"><stop offset="0.006" stop-color="#fff"/><stop offset="0.1117" stop-color="#f2f2f2"/><stop offset="0.3062" stop-color="#d1d1d1"/><stop offset="0.5664" stop-color="#9a9a9a"/><stop offset="0.5729" stop-color="#999"/><stop offset="0.8271" stop-color="#6d6d6d"/><stop offset="1" stop-color="#4d4d4d"/></linearGradient><filter id="luminosity-noclip-12" x="48.4041" y="-8297" width="15.7329" height="32766" filterUnits="userSpaceOnUse" color-interpolation-filters="sRGB"><feFlood flood-color="#fff" result="bg"/><feBlend in="SourceGraphic" in2="bg"/></filter><mask id="mask-12" x="48.4041" y="-8297" width="15.7329" height="32766" maskUnits="userSpaceOnUse"><g class="cls-99"/></mask><linearGradient id="linear-gradient-12" x1="49.4569" y1="146.0762" x2="63.0842" y2="153.944" gradientTransform="translate(35.9707 -8.9154) rotate(13.2826)" xlink:href="#linear-gradient-11"/><filter id="luminosity-noclip-13" x="144.0493" y="-8297" width="2.5222" height="32766" filterUnits="userSpaceOnUse" color-interpolation-filters="sRGB"><feFlood flood-color="#fff" result="bg"/><feBlend in="SourceGraphic" in2="bg"/></filter><mask id="mask-13" x="144.0493" y="-8297" width="2.5222" height="32766" maskUnits="userSpaceOnUse"><g class="cls-98"/></mask><linearGradient id="linear-gradient-13" x1="144.2181" y1="66.2615" x2="146.4027" y2="67.5228" xlink:href="#linear-gradient-4"/><filter id="luminosity-noclip-14" x="103.3001" y="-8297" width="48.21" height="32766" filterUnits="userSpaceOnUse" color-interpolation-filters="sRGB"><feFlood flood-color="#fff" result="bg"/><feBlend in="SourceGraphic" in2="bg"/></filter><mask id="mask-14" x="103.3001" y="-8297" width="48.21" height="32766" maskUnits="userSpaceOnUse"><g class="cls-97"/></mask><linearGradient id="linear-gradient-14" x1="176.9778" y1="470.4893" x2="172.8731" y2="443.3498" gradientTransform="translate(-274.9022 -124.6047) rotate(-34.5546)" gradientUnits="userSpaceOnUse"><stop offset="0.006" stop-color="#b3b3b3"/><stop offset="0.1176" stop-color="#a6a6a6"/><stop offset="0.3223" stop-color="#858585"/><stop offset="0.4836" stop-color="#666"/><stop offset="0.7181" stop-color="#929292"/><stop offset="1" stop-color="#ccc"/></linearGradient><filter id="luminosity-noclip-15" x="58.5176" y="-8297" width="62.4291" height="32766" filterUnits="userSpaceOnUse" color-interpolation-filters="sRGB"><feFlood flood-color="#fff" result="bg"/><feBlend in="SourceGraphic" in2="bg"/></filter><mask id="mask-15" x="58.5176" y="-8297" width="62.4291" height="32766" maskUnits="userSpaceOnUse"><g class="cls-96"/></mask><linearGradient id="linear-gradient-15" x1="58.5176" y1="111.8199" x2="120.9467" y2="111.8199" gradientUnits="userSpaceOnUse"><stop offset="0.0089" stop-color="#fff"/><stop offset="0.0902" stop-color="#f2f2f2"/><stop offset="0.2398" stop-color="#d1d1d1"/><stop offset="0.4399" stop-color="#9a9a9a"/><stop offset="0.4449" stop-color="#999"/><stop offset="0.7206" stop-color="#c5c5c5"/><stop offset="0.9137" stop-color="#e6e6e6"/></linearGradient><filter id="luminosity-noclip-16" x="264.4746" y="-8297" width="30.2859" height="32766" filterUnits="userSpaceOnUse" color-interpolation-filters="sRGB"><feFlood flood-color="#fff" result="bg"/><feBlend in="SourceGraphic" in2="bg"/></filter><mask id="mask-16" x="264.4746" y="-8297" width="30.2859" height="32766" maskUnits="userSpaceOnUse"><g class="cls-95"/></mask><linearGradient id="linear-gradient-16" x1="-3907.0589" y1="1678.4152" x2="-3908.8137" y2="1694.5961" gradientTransform="translate(-3606.4256 1870.6006) rotate(179.2666)" xlink:href="#linear-gradient-3"/><filter id="luminosity-noclip-17" x="245.7814" y="-8297" width="46.1614" height="32766" filterUnits="userSpaceOnUse" color-interpolation-filters="sRGB"><feFlood flood-color="#fff" result="bg"/><feBlend in="SourceGraphic" in2="bg"/></filter><mask id="mask-17" x="245.7814" y="-8297" width="46.1614" height="32766" maskUnits="userSpaceOnUse"><g class="cls-94"/></mask><linearGradient id="linear-gradient-17" x1="270.3641" y1="70.8348" x2="267.1038" y2="89.3248" xlink:href="#linear-gradient-3"/><filter id="luminosity-noclip-18" x="120.5688" y="-8297" width="193.6942" height="32766" filterUnits="userSpaceOnUse" color-interpolation-filters="sRGB"><feFlood flood-color="#fff" result="bg"/><feBlend in="SourceGraphic" in2="bg"/></filter><mask id="mask-18" x="120.5688" y="-8297" width="193.6942" height="32766" maskUnits="userSpaceOnUse"><g class="cls-93"/></mask><linearGradient id="linear-gradient-18" x1="319.6542" y1="87.9557" x2="132.5221" y2="156.0662" xlink:href="#linear-gradient-7"/><filter id="luminosity-noclip-19" x="79.13" y="-8297" width="37.9826" height="32766" filterUnits="userSpaceOnUse" color-interpolation-filters="sRGB"><feFlood flood-color="#fff" result="bg"/><feBlend in="SourceGraphic" in2="bg"/></filter><mask id="mask-19" x="79.13" y="-8297" width="37.9826" height="32766" maskUnits="userSpaceOnUse"><g class="cls-92"/></mask><linearGradient id="linear-gradient-19" x1="96.539" y1="152.5269" x2="99.483" y2="169.2227" gradientUnits="userSpaceOnUse"><stop offset="0.006" stop-color="#fff"/><stop offset="0.5878" stop-color="#fff"/><stop offset="0.945" stop-color="#d3d3d3"/><stop offset="1" stop-color="#ccc"/></linearGradient><filter id="luminosity-noclip-20" x="126.9937" y="-8297" width="90.8671" height="32766" filterUnits="userSpaceOnUse" color-interpolation-filters="sRGB"><feFlood flood-color="#fff" result="bg"/><feBlend in="SourceGraphic" in2="bg"/></filter><mask id="mask-20" x="126.9937" y="-8297" width="90.8671" height="32766" maskUnits="userSpaceOnUse"><g class="cls-91"/></mask><linearGradient id="linear-gradient-20" x1="203.4954" y1="-156.7492" x2="243.1076" y2="-88.1388" gradientTransform="matrix(-0.6876, 0.7261, -0.7261, -0.6876, 238.3353, -138.63)" gradientUnits="userSpaceOnUse"><stop offset="0.0089" stop-color="#fff"/><stop offset="0.112" stop-color="#f2f2f2"/><stop offset="0.3007" stop-color="#d1d1d1"/><stop offset="0.4449" stop-color="#b3b3b3"/><stop offset="0.7206" stop-color="#878787"/><stop offset="0.9137" stop-color="#666"/></linearGradient><filter id="luminosity-noclip-21" x="107.0578" y="-8297" width="103.1316" height="32766" filterUnits="userSpaceOnUse" color-interpolation-filters="sRGB"><feFlood flood-color="#fff" result="bg"/><feBlend in="SourceGraphic" in2="bg"/></filter><mask id="mask-21" x="107.0578" y="-8297" width="103.1316" height="32766" maskUnits="userSpaceOnUse"><g class="cls-90"/></mask><linearGradient id="linear-gradient-21" x1="151.8893" y1="31.3686" x2="164.1412" y2="100.8525" gradientUnits="userSpaceOnUse"><stop offset="0.0089" stop-color="#fff"/><stop offset="0.0771" stop-color="#f2f2f2"/><stop offset="0.2025" stop-color="#d1d1d1"/><stop offset="0.3701" stop-color="#9a9a9a"/><stop offset="0.4449" stop-color="gray"/><stop offset="0.617" stop-color="#545454"/><stop offset="0.9137"/></linearGradient><filter id="luminosity-noclip-22" x="78.4671" y="42.9736" width="182.2212" height="123.0701" filterUnits="userSpaceOnUse" color-interpolation-filters="sRGB"><feFlood flood-color="#fff" result="bg"/><feBlend in="SourceGraphic" in2="bg"/></filter><mask id="mask-22" x="78.4671" y="42.9736" width="182.2212" height="123.0701" maskUnits="userSpaceOnUse"><g class="cls-1"><path class="cls-2" d="M138.6164,142.1077a8.4753,8.4753,0,0,1,10.3987-.1516,22.1632,22.1632,0,0,0,27.33-.53,11.1649,11.1649,0,0,1,12.8859-.8791,37.2545,37.2545,0,0,0,16.37,5.3575,6.9166,6.9166,0,0,1,6.0256,4.7,22.5524,22.5524,0,1,0,39.1118-21.08,22.7172,22.7172,0,0,1-4.8936-16.6139q.062-.5436.108-1.0907a22.6093,22.6093,0,0,1,5.91-13.5107A32.9055,32.9055,0,1,0,200.2842,57.81a16.5146,16.5146,0,0,1-17.2017,7.063,22.18,22.18,0,0,0-23.6217,10.5486,6.33,6.33,0,0,1-.4433.6267,16.9134,16.9134,0,0,1-22.4054,3.846c-.982-.6226-1.6669-1.0539-1.8326-1.1514A37.37,37.37,0,0,0,78.9113,116.67C84.7027,154.1227,125.0651,152.8891,138.6164,142.1077Z"/></g></mask><linearGradient id="linear-gradient-22" x1="131.2937" y1="49.204" x2="234.2401" y2="171.8908" gradientUnits="userSpaceOnUse"><stop offset="0.006" stop-color="#fe4f4f"/><stop offset="0.1133" stop-color="#fe4257"/><stop offset="0.31" stop-color="#ff216c"/><stop offset="0.4747" stop-color="#ff0080"/><stop offset="0.7028" stop-color="#d3007e"/><stop offset="1" stop-color="#94007b"/></linearGradient><filter id="luminosity-noclip-23" x="72.7302" y="37.2406" width="193.6942" height="134.5361" filterUnits="userSpaceOnUse" color-interpolation-filters="sRGB"><feFlood flood-color="#fff" result="bg"/><feBlend in="SourceGraphic" in2="bg"/></filter><mask id="mask-23" x="72.7302" y="37.2406" width="193.6942" height="134.5361" maskUnits="userSpaceOnUse"><g class="cls-13"><path class="cls-14" d="M233.0021,171.7767a28.3023,28.3023,0,0,1-26.8184-19.372,1.1925,1.1925,0,0,0-1.0552-.7871,43.2236,43.2236,0,0,1-18.8886-6.18,5.5461,5.5461,0,0,0-6.2666.4267,27.8938,27.8938,0,0,1-34.4058.6719,2.7233,2.7233,0,0,0-1.6479-.5547,2.7588,2.7588,0,0,0-1.7339.6123c-6.1543,4.8965-15.876,7.82-26.0054,7.82-7.0332,0-17.3521-1.418-26.5884-8.1675a38.4325,38.4325,0,0,1-10.4736-11.6045,47.9225,47.9225,0,0,1-5.8726-17.0962,43.1035,43.1035,0,0,1,64.4419-43.7432c.1167.0689.3106.1831,1.9942,1.251a11.2342,11.2342,0,0,0,6.0234,1.7515,11.0387,11.0387,0,0,0,8.7852-4.274l.0966-.1264a27.9095,27.9095,0,0,1,29.6558-13.1455,11.1224,11.1224,0,0,0,2.2505.2314,10.7375,10.7375,0,0,0,9.0019-4.831,38.72,38.72,0,0,1,26.3287-16.9478,39.3394,39.3394,0,0,1,6.0439-.4707,38.6455,38.6455,0,0,1,28.1938,64.9722,16.929,16.929,0,0,0-4.3964,10.0879c-.0357.42-.0767.8423-.1241,1.2573a16.891,16.891,0,0,0,3.6954,12.4126A28.3158,28.3158,0,0,1,238.13,171.31,28.5779,28.5779,0,0,1,233.0021,171.7767Zm-49.5928-27.892a6.1788,6.1788,0,0,1,3.2251.9082,42.4593,42.4593,0,0,0,18.5566,6.0717,1.948,1.948,0,0,1,1.71,1.3028,27.5442,27.5442,0,0,0,26.1006,18.8535,27.8355,27.8355,0,0,0,4.9917-.4541,27.5338,27.5338,0,0,0,16.65-44.1275,17.6433,17.6433,0,0,1-3.8535-12.9672c.0463-.4073.0874-.8228.122-1.2349a17.6876,17.6876,0,0,1,4.5957-10.5391,37.8638,37.8638,0,0,0-27.64-63.7016,38.4989,38.4989,0,0,0-5.9277.4619,37.9624,37.9624,0,0,0-25.814,16.6157,11.4893,11.4893,0,0,1-9.6328,5.1719,11.8884,11.8884,0,0,1-2.4038-.2471,27.1579,27.1579,0,0,0-28.8721,12.82l-.13.1753a11.7907,11.7907,0,0,1-9.3818,4.5659,11.9843,11.9843,0,0,1-6.4277-1.87c-1.666-1.0562-1.8579-1.1694-1.9732-1.2373A42.3467,42.3467,0,0,0,73.9928,117.43,47.1606,47.1606,0,0,0,79.77,134.2577a37.666,37.666,0,0,0,10.2685,11.3779c9.0713,6.6294,19.2217,8.0215,26.1392,8.022,9.9673,0,19.5127-2.8618,25.5376-7.6548a3.5076,3.5076,0,0,1,2.2046-.7773,3.4715,3.4715,0,0,1,2.102.707,27.14,27.14,0,0,0,33.4732-.6533A6.2,6.2,0,0,1,183.4093,143.8847Z"/></g></mask><linearGradient id="linear-gradient-23" x1="72.7302" y1="104.5086" x2="266.4244" y2="104.5086" gradientUnits="userSpaceOnUse"><stop offset="0" stop-color="#fe9833"/><stop offset="0.2188" stop-color="#ff0080"/><stop offset="0.3357" stop-color="#d3007e"/><stop offset="0.4881" stop-color="#94007b"/><stop offset="0.747" stop-color="#94007b"/></linearGradient><filter id="luminosity-noclip-24" x="120.5688" y="41.3056" width="193.6942" height="134.5356" filterUnits="userSpaceOnUse" color-interpolation-filters="sRGB"><feFlood flood-color="#fff" result="bg"/><feBlend in="SourceGraphic" in2="bg"/></filter><mask id="mask-24" x="120.5688" y="41.3056" width="193.6942" height="134.5356" maskUnits="userSpaceOnUse"><g class="cls-35"><path class="cls-36" d="M280.8405,175.8412a28.3021,28.3021,0,0,1-26.8184-19.3721,1.1925,1.1925,0,0,0-1.0552-.7871,43.213,43.213,0,0,1-18.8887-6.18,5.5488,5.5488,0,0,0-6.2666.4273,27.8953,27.8953,0,0,1-34.4052.6719,2.7234,2.7234,0,0,0-1.6485-.5552,2.7614,2.7614,0,0,0-1.7339.6128c-6.1538,4.8965-15.8754,7.8193-26.0053,7.8193-7.0327,0-17.3516-1.417-26.5884-8.167a38.4419,38.4419,0,0,1-10.4736-11.6045,47.9315,47.9315,0,0,1-5.8726-17.0962A43.1029,43.1029,0,0,1,185.526,77.8671c.1167.0688.31.1831,1.9941,1.25a11.2262,11.2262,0,0,0,6.021,1.7519h.0025a11.042,11.042,0,0,0,8.7856-4.2734l.0982-.1289a27.9063,27.9063,0,0,1,29.6538-13.1431,11.1394,11.1394,0,0,0,2.2505.231,10.7349,10.7349,0,0,0,9.0019-4.8306,38.72,38.72,0,0,1,26.3286-16.9482,39.3693,39.3693,0,0,1,6.044-.47A38.645,38.645,0,0,1,303.9,106.2777a16.937,16.937,0,0,0-4.3965,10.0879c-.0356.42-.0766.8418-.124,1.2573a16.89,16.89,0,0,0,3.6953,12.4121,28.3159,28.3159,0,0,1-17.1069,45.3394A28.5779,28.5779,0,0,1,280.8405,175.8412ZM231.2477,147.95a6.1808,6.1808,0,0,1,3.2246.9077,42.4583,42.4583,0,0,0,18.5571,6.0718,1.9481,1.9481,0,0,1,1.71,1.3027,27.5437,27.5437,0,0,0,26.1006,18.8535,27.8355,27.8355,0,0,0,4.9917-.4541,27.5337,27.5337,0,0,0,16.65-44.1274,17.6435,17.6435,0,0,1-3.8536-12.9668c.0464-.4077.0874-.8228.1221-1.2349a17.6941,17.6941,0,0,1,4.5957-10.539,37.8636,37.8636,0,0,0-27.64-63.7017,38.6038,38.6038,0,0,0-5.9278.4614A37.9642,37.9642,0,0,0,243.9645,59.139a11.4864,11.4864,0,0,1-9.6328,5.1714,11.9053,11.9053,0,0,1-2.4038-.2466,27.1551,27.1551,0,0,0-28.8721,12.82l-.1289.1738a11.7933,11.7933,0,0,1-9.3833,4.5669h-.0025a11.9815,11.9815,0,0,1-6.4253-1.87c-1.666-1.0557-1.8579-1.169-1.9731-1.2369a42.347,42.347,0,0,0-63.3115,42.9766,47.1611,47.1611,0,0,0,5.7768,16.8276,37.6732,37.6732,0,0,0,10.2686,11.378c9.0718,6.63,19.2222,8.0215,26.1391,8.0215,9.9673,0,19.5132-2.8614,25.5376-7.6548a3.5091,3.5091,0,0,1,2.2046-.7774,3.472,3.472,0,0,1,2.1026.7075,27.1406,27.1406,0,0,0,33.4726-.6533A6.2,6.2,0,0,1,231.2477,147.95Z"/></g></mask><linearGradient id="linear-gradient-24" x1="319.6542" y1="87.9557" x2="132.5221" y2="156.0662" xlink:href="#linear-gradient-23"/><filter id="luminosity-noclip-25" x="126.9937" y="51.5237" width="90.8671" height="105.97" filterUnits="userSpaceOnUse" color-interpolation-filters="sRGB"><feFlood flood-color="#fff" result="bg"/><feBlend in="SourceGraphic" in2="bg"/></filter><mask id="mask-25" x="126.9937" y="51.5237" width="90.8671" height="105.97" maskUnits="userSpaceOnUse"><g class="cls-39"><path class="cls-40" d="M171.269,135.4557a4.94,4.94,0,0,1,3.5425-4.9186,12.918,12.918,0,0,0,9.2489-12.973,6.5075,6.5075,0,0,1,4.0665-6.3353,21.7155,21.7155,0,0,0,8.1956-5.7985,4.0314,4.0314,0,0,1,4.2932-1.1864,13.1448,13.1448,0,1,0,3.7273-25.6271,13.2406,13.2406,0,0,1-9.4748-3.4834q-.2328-.2178-.4729-.4295a13.1786,13.1786,0,0,1-4.2683-7.4607,19.1792,19.1792,0,1,0-36.8749,10.0623A9.6258,9.6258,0,0,1,150.58,87.8093a12.9278,12.9278,0,0,0-3.2724,14.7192,3.6893,3.6893,0,0,1,.1392.4252,9.8581,9.8581,0,0,1-5.9861,11.8209c-.6326.2431-1.0724.4137-1.1756.4574a21.7814,21.7814,0,0,0-1.6667,39.3224C158.1563,164.8593,171.6049,145.5434,171.269,135.4557Z"/></g></mask><linearGradient id="linear-gradient-25" x1="203.4954" y1="-156.7492" x2="243.1076" y2="-88.1388" gradientTransform="matrix(-0.6876, 0.7261, -0.7261, -0.6876, 238.3353, -138.63)" gradientUnits="userSpaceOnUse"><stop offset="0.0089" stop-color="#fe4f4f"/><stop offset="0.1088" stop-color="#fe4257"/><stop offset="0.2918" stop-color="#ff216c"/><stop offset="0.4449" stop-color="#ff0080"/><stop offset="0.6485" stop-color="#d3007e"/><stop offset="0.9137" stop-color="#94007b"/></linearGradient><filter id="luminosity-noclip-26" x="107.0578" y="37.1946" width="103.1316" height="69.826" filterUnits="userSpaceOnUse" color-interpolation-filters="sRGB"><feFlood flood-color="#fff" result="bg"/><feBlend in="SourceGraphic" in2="bg"/></filter><mask id="mask-26" x="107.0578" y="37.1946" width="103.1316" height="69.826" maskUnits="userSpaceOnUse"><g class="cls-41"><path class="cls-42" d="M173.7215,44.4505a4.8517,4.8517,0,0,1-5.9.7957,12.6873,12.6873,0,0,0-15.4975,2.1663,6.3915,6.3915,0,0,1-7.264,1.3789,21.3274,21.3274,0,0,0-9.67-1.9281,3.96,3.96,0,0,1-3.7455-2.26,12.91,12.91,0,1,0-20.7919,14.65,13.004,13.004,0,0,1,3.915,9.109q.002.3132.0131.6273a12.9436,12.9436,0,0,1-2.4374,8.0825,18.837,18.837,0,1,0,32.08,19.4995,9.454,9.454,0,0,1,9.2951-5.1883,12.6967,12.6967,0,0,0,12.7062-7.6073,3.6209,3.6209,0,0,1,.2093-.3865,9.6821,9.6821,0,0,1,12.4722-3.7148c.6006.2868,1.0194.4853,1.12.5294A21.3928,21.3928,0,0,0,209.3923,54.835C203.545,33.9426,180.6881,37.3979,173.7215,44.4505Z"/></g></mask><linearGradient id="linear-gradient-26" x1="151.8893" y1="31.3686" x2="164.1412" y2="100.8525" gradientTransform="matrix(1, 0, 0, 1, 0, 0)" xlink:href="#linear-gradient-25"/><filter id="luminosity-noclip-27" x="161.2313" y="64.9826" width="105.5742" height="96.1577" filterUnits="userSpaceOnUse" color-interpolation-filters="sRGB"><feFlood flood-color="#fff" result="bg"/><feBlend in="SourceGraphic" in2="bg"/></filter><mask id="mask-27" x="161.2313" y="64.9826" width="105.5742" height="96.1577" maskUnits="userSpaceOnUse"><g class="cls-3"><path class="cls-4" d="M242.4816,124.8159a9.1458,9.1458,0,0,1,10.1013-7.7838v0A10.8346,10.8346,0,0,0,261.81,98.9444a6.8866,6.8866,0,0,1,.4462-9.7061A13.9479,13.9479,0,1,0,239.978,73.5762l-.0014-.0017a17.0888,17.0888,0,0,1-22.3437,9.21l.0023.0029a40.7314,40.7314,0,1,0,24.8464,42.0287ZM246.06,98.4115c-.2117.1123-.4266.2147-.644.309q.4761-.5948,1.0041-1.147A6.8429,6.8429,0,0,1,246.06,98.4115Z"/></g></mask><linearGradient id="linear-gradient-27" x1="251.1426" y1="-34.039" x2="271.8684" y2="50.1309" gradientTransform="matrix(0.9978, 0.0669, -0.0669, 0.9978, -43.8423, 89.6585)" gradientUnits="userSpaceOnUse"><stop offset="0.006" stop-color="#fe4f4f"/><stop offset="0.1154" stop-color="#fe4257"/><stop offset="0.3158" stop-color="#ff216c"/><stop offset="0.4836" stop-color="#ff0080"/><stop offset="0.7078" stop-color="#d3007e"/><stop offset="1" stop-color="#94007b"/></linearGradient><linearGradient id="linear-gradient-28" x1="287.7461" y1="1198.2166" x2="290.7434" y2="1181.2186" gradientTransform="translate(-182.167 -1141.3739)" xlink:href="#linear-gradient-27"/><filter id="luminosity-noclip-28" x="162.3398" y="158.3655" width="7.1755" height="7.1756" filterUnits="userSpaceOnUse" color-interpolation-filters="sRGB"><feFlood flood-color="#fff" result="bg"/><feBlend in="SourceGraphic" in2="bg"/></filter><mask id="mask-28" x="162.3398" y="158.3655" width="7.1755" height="7.1756" maskUnits="userSpaceOnUse"><g class="cls-5"><path class="cls-6" d="M162.34,161.9533a3.5878,3.5878,0,1,0,3.5877-3.5878A3.5878,3.5878,0,0,0,162.34,161.9533Z"/></g></mask><linearGradient id="linear-gradient-29" x1="162.8199" y1="160.1591" x2="169.0351" y2="163.7475" gradientTransform="matrix(1, 0, 0, 1, 0, 0)" xlink:href="#linear-gradient-27"/><filter id="luminosity-noclip-29" x="281.739" y="34.031" width="7.1756" height="7.1755" filterUnits="userSpaceOnUse" color-interpolation-filters="sRGB"><feFlood flood-color="#fff" result="bg"/><feBlend in="SourceGraphic" in2="bg"/></filter><mask id="mask-29" x="281.739" y="34.031" width="7.1756" height="7.1755" maskUnits="userSpaceOnUse"><g class="cls-7"><path class="cls-8" d="M281.739,37.6188a3.5878,3.5878,0,1,0,3.5878-3.5878A3.5878,3.5878,0,0,0,281.739,37.6188Z"/></g></mask><linearGradient id="linear-gradient-30" x1="282.2192" y1="35.8246" x2="288.4344" y2="39.4129" gradientTransform="matrix(1, 0, 0, 1, 0, 0)" xlink:href="#linear-gradient-27"/><filter id="luminosity-noclip-30" x="260.6884" y="121.2617" width="24.6384" height="24.6384" filterUnits="userSpaceOnUse" color-interpolation-filters="sRGB"><feFlood flood-color="#fff" result="bg"/><feBlend in="SourceGraphic" in2="bg"/></filter><mask id="mask-30" x="260.6884" y="121.2617" width="24.6384" height="24.6384" maskUnits="userSpaceOnUse"><g class="cls-9"><circle class="cls-10" cx="273.0076" cy="133.5809" r="12.3192"/></g></mask><linearGradient id="linear-gradient-31" x1="262.3371" y1="127.4203" x2="283.6781" y2="139.7415" gradientTransform="matrix(1, 0, 0, 1, 0, 0)" xlink:href="#linear-gradient-27"/><filter id="luminosity-noclip-31" x="126.3762" y="162.1826" width="18.4322" height="18.4323" filterUnits="userSpaceOnUse" color-interpolation-filters="sRGB"><feFlood flood-color="#fff" result="bg"/><feBlend in="SourceGraphic" in2="bg"/></filter><mask id="mask-31" x="126.3762" y="162.1826" width="18.4322" height="18.4323" maskUnits="userSpaceOnUse"><g class="cls-11"><circle class="cls-12" cx="135.5923" cy="171.3988" r="9.2161" transform="translate(-74.6485 231.0781) rotate(-67.5)"/></g></mask><linearGradient id="linear-gradient-32" x1="127.6096" y1="166.7899" x2="143.575" y2="176.0076" gradientTransform="translate(242.0551 -19.4637) rotate(67.5)" xlink:href="#linear-gradient-27"/><filter id="luminosity-noclip-32" x="45.7047" y="52.9857" width="18.4323" height="18.4322" filterUnits="userSpaceOnUse" color-interpolation-filters="sRGB"><feFlood flood-color="#fff" result="bg"/><feBlend in="SourceGraphic" in2="bg"/></filter><mask id="mask-32" x="45.7047" y="52.9857" width="18.4323" height="18.4322" maskUnits="userSpaceOnUse"><g class="cls-15"><circle class="cls-16" cx="54.9208" cy="62.2018" r="9.2162" transform="translate(-0.1393 0.1233) rotate(-0.1285)"/></g></mask><linearGradient id="linear-gradient-33" x1="46.9381" y1="57.593" x2="62.9036" y2="66.8107" gradientTransform="translate(0.1396 -0.123) rotate(0.1285)" xlink:href="#linear-gradient-27"/><filter id="luminosity-noclip-33" x="144.0409" y="21.1131" width="29.1653" height="29.1653" filterUnits="userSpaceOnUse" color-interpolation-filters="sRGB"><feFlood flood-color="#fff" result="bg"/><feBlend in="SourceGraphic" in2="bg"/></filter><mask id="mask-33" x="144.0409" y="21.1131" width="29.1653" height="29.1653" maskUnits="userSpaceOnUse"><g class="cls-17"><circle class="cls-18" cx="158.6236" cy="35.6958" r="14.5826" transform="translate(21.219 122.6189) rotate(-45)"/></g></mask><linearGradient id="linear-gradient-34" x1="145.9925" y1="28.4032" x2="171.2546" y2="42.9883" gradientTransform="translate(71.7005 -101.7088) rotate(45)" xlink:href="#linear-gradient-27"/><filter id="luminosity-noclip-34" x="190.8249" y="163.0164" width="24.8941" height="24.8941" filterUnits="userSpaceOnUse" color-interpolation-filters="sRGB"><feFlood flood-color="#fff" result="bg"/><feBlend in="SourceGraphic" in2="bg"/></filter><mask id="mask-34" x="190.8249" y="163.0164" width="24.8941" height="24.8941" maskUnits="userSpaceOnUse"><g class="cls-19"><circle class="cls-20" cx="203.272" cy="175.4634" r="12.447" transform="translate(-34.8754 51.396) rotate(-13.2825)"/></g></mask><linearGradient id="linear-gradient-35" x1="192.4907" y1="169.2389" x2="214.0532" y2="181.688" gradientTransform="translate(45.7508 -42.0084) rotate(13.2825)" xlink:href="#linear-gradient-27"/><filter id="luminosity-noclip-35" x="277.4604" y="29.7523" width="15.7329" height="15.7329" filterUnits="userSpaceOnUse" color-interpolation-filters="sRGB"><feFlood flood-color="#fff" result="bg"/><feBlend in="SourceGraphic" in2="bg"/></filter><mask id="mask-35" x="277.4604" y="29.7523" width="15.7329" height="15.7329" maskUnits="userSpaceOnUse"><g class="cls-21"><circle class="cls-22" cx="285.3268" cy="37.6188" r="7.8665" transform="translate(-1.0102 66.5614) rotate(-13.2826)"/></g></mask><linearGradient id="linear-gradient-36" x1="278.5132" y1="33.6849" x2="292.1405" y2="41.5526" gradientTransform="translate(16.2759 -64.5487) rotate(13.2826)" gradientUnits="userSpaceOnUse"><stop offset="0.006" stop-color="#ff0080"/><stop offset="0.1077" stop-color="#f2007f"/><stop offset="0.2949" stop-color="#d1007e"/><stop offset="0.5452" stop-color="#9a007b"/><stop offset="0.5729" stop-color="#94007b"/><stop offset="1" stop-color="#94007b"/></linearGradient><filter id="luminosity-noclip-36" x="48.4041" y="142.1436" width="15.7329" height="15.7329" filterUnits="userSpaceOnUse" color-interpolation-filters="sRGB"><feFlood flood-color="#fff" result="bg"/><feBlend in="SourceGraphic" in2="bg"/></filter><mask id="mask-36" x="48.4041" y="142.1436" width="15.7329" height="15.7329" maskUnits="userSpaceOnUse"><g class="cls-23"><circle class="cls-24" cx="56.2705" cy="150.0101" r="7.8665" transform="translate(-32.9601 16.9414) rotate(-13.2826)"/></g></mask><linearGradient id="linear-gradient-37" x1="49.4569" y1="146.0762" x2="63.0842" y2="153.944" gradientTransform="translate(35.9707 -8.9154) rotate(13.2826)" xlink:href="#linear-gradient-36"/><filter id="luminosity-noclip-37" x="144.0493" y="65.631" width="2.5222" height="2.5223" filterUnits="userSpaceOnUse" color-interpolation-filters="sRGB"><feFlood flood-color="#fff" result="bg"/><feBlend in="SourceGraphic" in2="bg"/></filter><mask id="mask-37" x="144.0493" y="65.631" width="2.5222" height="2.5223" maskUnits="userSpaceOnUse"><g class="cls-25"><circle class="cls-26" cx="145.3104" cy="66.8922" r="1.2611"/></g></mask><linearGradient id="linear-gradient-38" x1="144.2181" y1="66.2615" x2="146.4027" y2="67.5228" gradientTransform="matrix(1, 0, 0, 1, 0, 0)" xlink:href="#linear-gradient-27"/><filter id="luminosity-noclip-38" x="103.3001" y="129.9078" width="48.21" height="40.2046" filterUnits="userSpaceOnUse" color-interpolation-filters="sRGB"><feFlood flood-color="#fff" result="bg"/><feBlend in="SourceGraphic" in2="bg"/></filter><mask id="mask-38" x="103.3001" y="129.9078" width="48.21" height="40.2046" maskUnits="userSpaceOnUse"><g class="cls-27"><path class="cls-28" d="M130.0025,132.33a13.6911,13.6911,0,0,0-5.866,9.8974l-.0005-.0008c-.9536,9.2676-5.2551,11.0116-11.174,10.4025l.0016.0023a8.7641,8.7641,0,1,0,7.5649,10.9833l.0015.0022c1.541-5.7471,4.7039-9.1443,13.7025-6.7315l0-.0007a13.7222,13.7222,0,1,0-4.23-24.5547Z"/></g></mask><linearGradient id="linear-gradient-39" x1="176.9778" y1="470.4893" x2="172.8731" y2="443.3498" gradientTransform="translate(-274.9022 -124.6047) rotate(-34.5546)" xlink:href="#linear-gradient-27"/><filter id="luminosity-noclip-39" x="58.5176" y="90.8262" width="62.4291" height="41.9875" filterUnits="userSpaceOnUse" color-interpolation-filters="sRGB"><feFlood flood-color="#fff" result="bg"/><feBlend in="SourceGraphic" in2="bg"/></filter><mask id="mask-39" x="58.5176" y="90.8262" width="62.4291" height="41.9875" maskUnits="userSpaceOnUse"><g class="cls-29"><path class="cls-30" d="M110.6731,101.5464c-.0685,0-.1361.0037-.2043.0051v-.0032a27.4754,27.4754,0,0,1-17.7855-6.0756v.001a20.9938,20.9938,0,1,0,0,32.6925v.001a27.4754,27.4754,0,0,1,17.7855-6.0756v-.0032c.0682.0013.1358.0051.2043.0051a10.2736,10.2736,0,1,0,0-20.5471Z"/></g></mask><linearGradient id="linear-gradient-40" x1="58.5176" y1="111.8199" x2="120.9467" y2="111.8199" gradientTransform="matrix(1, 0, 0, 1, 0, 0)" xlink:href="#linear-gradient-25"/><filter id="luminosity-noclip-40" x="264.4746" y="125.4437" width="30.2859" height="16.2743" filterUnits="userSpaceOnUse" color-interpolation-filters="sRGB"><feFlood flood-color="#fff" result="bg"/><feBlend in="SourceGraphic" in2="bg"/></filter><mask id="mask-40" x="264.4746" y="125.4437" width="30.2859" height="16.2743" maskUnits="userSpaceOnUse"><g class="cls-31"><path class="cls-32" d="M272.7156,141.7174a8.0964,8.0964,0,0,0,4.4465-1.3916v.0011a20.5107,20.5107,0,0,1,13.6135-3.3945v-.0006a3.6528,3.6528,0,0,0,.4231.02,3.6078,3.6078,0,1,0-.5145-7.1841v-.0006a20.5115,20.5115,0,0,1-13.6957-3.0461v.0011a8.1368,8.1368,0,1,0-4.273,14.9952Z"/></g></mask><linearGradient id="linear-gradient-41" x1="-3907.0589" y1="1678.4152" x2="-3908.8137" y2="1694.5961" gradientTransform="translate(-3606.4256 1870.6006) rotate(179.2666)" xlink:href="#linear-gradient-27"/><filter id="luminosity-noclip-41" x="245.7814" y="72.1075" width="46.1614" height="14.6336" filterUnits="userSpaceOnUse" color-interpolation-filters="sRGB"><feFlood flood-color="#fff" result="bg"/><feBlend in="SourceGraphic" in2="bg"/></filter><mask id="mask-41" x="245.7814" y="72.1075" width="46.1614" height="14.6336" maskUnits="userSpaceOnUse"><g class="cls-33"><path class="cls-34" d="M286.2419,73.7234a5.6737,5.6737,0,0,0-3.3472,1.0872v-.0012a20.2988,20.2988,0,0,1-25.06-.9614V73.85a7.3168,7.3168,0,1,0,0,11.1484v.0022a20.2988,20.2988,0,0,1,25.06-.9615v-.0011a5.7006,5.7006,0,1,0,3.3472-10.3147Z"/></g></mask><linearGradient id="linear-gradient-42" x1="270.3641" y1="70.8348" x2="267.1038" y2="89.3248" gradientTransform="matrix(1, 0, 0, 1, 0, 0)" xlink:href="#linear-gradient-27"/><filter id="luminosity-noclip-42" x="79.13" y="154.4777" width="37.9826" height="13.9225" filterUnits="userSpaceOnUse" color-interpolation-filters="sRGB"><feFlood flood-color="#fff" result="bg"/><feBlend in="SourceGraphic" in2="bg"/></filter><mask id="mask-42" x="79.13" y="154.4777" width="37.9826" height="13.9225" maskUnits="userSpaceOnUse"><g class="cls-37"><path class="cls-38" d="M111.542,155.8683a5.5545,5.5545,0,0,0-2.1622.4353,23.8069,23.8069,0,0,1-20.0377-1.02h0a6.9613,6.9613,0,1,0,0,12.311h0a23.8073,23.8073,0,0,1,20.0377-1.02,5.5711,5.5711,0,1,0,2.1622-10.7058Z"/></g></mask><linearGradient id="linear-gradient-43" x1="96.539" y1="152.5269" x2="99.483" y2="169.2227" gradientUnits="userSpaceOnUse"><stop offset="0.006" stop-color="#fe4f4f"/><stop offset="0.5878" stop-color="#ff0080"/><stop offset="0.7668" stop-color="#d3007e"/><stop offset="1" stop-color="#94007b"/></linearGradient><linearGradient id="linear-gradient-44" x1="211.4663" y1="42.9955" x2="221.8608" y2="48.9968" gradientUnits="userSpaceOnUse"><stop offset="0" stop-color="#fe4f4f"/><stop offset="0.1786" stop-color="#fe4f4f"/><stop offset="0.2484" stop-color="#fe4257"/><stop offset="0.3765" stop-color="#ff216c"/><stop offset="0.4836" stop-color="#ff0080"/><stop offset="0.7078" stop-color="#d3007e"/><stop offset="1" stop-color="#94007b"/></linearGradient></defs><g class="cls-43"><g id="Design"><g class="cls-44"><path class="cls-45" d="M138.6164,142.1077a8.4753,8.4753,0,0,1,10.3987-.1516,22.1632,22.1632,0,0,0,27.33-.53,11.1649,11.1649,0,0,1,12.8859-.8791,37.2545,37.2545,0,0,0,16.37,5.3575,6.9166,6.9166,0,0,1,6.0256,4.7,22.5524,22.5524,0,1,0,39.1118-21.08,22.7172,22.7172,0,0,1-4.8936-16.6139q.062-.5436.108-1.0907a22.6093,22.6093,0,0,1,5.91-13.5107A32.9055,32.9055,0,1,0,200.2842,57.81a16.5146,16.5146,0,0,1-17.2017,7.063,22.18,22.18,0,0,0-23.6217,10.5486,6.33,6.33,0,0,1-.4433.6267,16.9134,16.9134,0,0,1-22.4054,3.846c-.982-.6226-1.6669-1.0539-1.8326-1.1514A37.37,37.37,0,0,0,78.9113,116.67C84.7027,154.1227,125.0651,152.8891,138.6164,142.1077Z"/></g><g class="cls-46"><path class="cls-47" d="M233.0021,171.7767a28.3023,28.3023,0,0,1-26.8184-19.372,1.1925,1.1925,0,0,0-1.0552-.7871,43.2236,43.2236,0,0,1-18.8886-6.18,5.5461,5.5461,0,0,0-6.2666.4267,27.8938,27.8938,0,0,1-34.4058.6719,2.7233,2.7233,0,0,0-1.6479-.5547,2.7588,2.7588,0,0,0-1.7339.6123c-6.1543,4.8965-15.876,7.82-26.0054,7.82-7.0332,0-17.3521-1.418-26.5884-8.1675a38.4325,38.4325,0,0,1-10.4736-11.6045,47.9225,47.9225,0,0,1-5.8726-17.0962,43.1035,43.1035,0,0,1,64.4419-43.7432c.1167.0689.3106.1831,1.9942,1.251a11.2342,11.2342,0,0,0,6.0234,1.7515,11.0387,11.0387,0,0,0,8.7852-4.274l.0966-.1264a27.9095,27.9095,0,0,1,29.6558-13.1455,11.1224,11.1224,0,0,0,2.2505.2314,10.7375,10.7375,0,0,0,9.0019-4.831,38.72,38.72,0,0,1,26.3287-16.9478,39.3394,39.3394,0,0,1,6.0439-.4707,38.6455,38.6455,0,0,1,28.1938,64.9722,16.929,16.929,0,0,0-4.3964,10.0879c-.0357.42-.0767.8423-.1241,1.2573a16.891,16.891,0,0,0,3.6954,12.4126A28.3158,28.3158,0,0,1,238.13,171.31,28.5779,28.5779,0,0,1,233.0021,171.7767Zm-49.5928-27.892a6.1788,6.1788,0,0,1,3.2251.9082,42.4593,42.4593,0,0,0,18.5566,6.0717,1.948,1.948,0,0,1,1.71,1.3028,27.5442,27.5442,0,0,0,26.1006,18.8535,27.8355,27.8355,0,0,0,4.9917-.4541,27.5338,27.5338,0,0,0,16.65-44.1275,17.6433,17.6433,0,0,1-3.8535-12.9672c.0463-.4073.0874-.8228.122-1.2349a17.6876,17.6876,0,0,1,4.5957-10.5391,37.8638,37.8638,0,0,0-27.64-63.7016,38.4989,38.4989,0,0,0-5.9277.4619,37.9624,37.9624,0,0,0-25.814,16.6157,11.4893,11.4893,0,0,1-9.6328,5.1719,11.8884,11.8884,0,0,1-2.4038-.2471,27.1579,27.1579,0,0,0-28.8721,12.82l-.13.1753a11.7907,11.7907,0,0,1-9.3818,4.5659,11.9843,11.9843,0,0,1-6.4277-1.87c-1.666-1.0562-1.8579-1.1694-1.9732-1.2373A42.3467,42.3467,0,0,0,73.9928,117.43,47.1606,47.1606,0,0,0,79.77,134.2577a37.666,37.666,0,0,0,10.2685,11.3779c9.0713,6.6294,19.2217,8.0215,26.1392,8.022,9.9673,0,19.5127-2.8618,25.5376-7.6548a3.5076,3.5076,0,0,1,2.2046-.7773,3.4715,3.4715,0,0,1,2.102.707,27.14,27.14,0,0,0,33.4732-.6533A6.2,6.2,0,0,1,183.4093,143.8847Z"/></g><g class="cls-48"><path class="cls-49" d="M280.8405,175.8412a28.3021,28.3021,0,0,1-26.8184-19.3721,1.1925,1.1925,0,0,0-1.0552-.7871,43.213,43.213,0,0,1-18.8887-6.18,5.5488,5.5488,0,0,0-6.2666.4273,27.8953,27.8953,0,0,1-34.4052.6719,2.7234,2.7234,0,0,0-1.6485-.5552,2.7614,2.7614,0,0,0-1.7339.6128c-6.1538,4.8965-15.8754,7.8193-26.0053,7.8193-7.0327,0-17.3516-1.417-26.5884-8.167a38.4419,38.4419,0,0,1-10.4736-11.6045,47.9315,47.9315,0,0,1-5.8726-17.0962A43.1029,43.1029,0,0,1,185.526,77.8671c.1167.0688.31.1831,1.9941,1.25a11.2262,11.2262,0,0,0,6.021,1.7519h.0025a11.042,11.042,0,0,0,8.7856-4.2734l.0982-.1289a27.9063,27.9063,0,0,1,29.6538-13.1431,11.1394,11.1394,0,0,0,2.2505.231,10.7349,10.7349,0,0,0,9.0019-4.8306,38.72,38.72,0,0,1,26.3286-16.9482,39.3693,39.3693,0,0,1,6.044-.47A38.645,38.645,0,0,1,303.9,106.2777a16.937,16.937,0,0,0-4.3965,10.0879c-.0356.42-.0766.8418-.124,1.2573a16.89,16.89,0,0,0,3.6953,12.4121,28.3159,28.3159,0,0,1-17.1069,45.3394A28.5779,28.5779,0,0,1,280.8405,175.8412ZM231.2477,147.95a6.1808,6.1808,0,0,1,3.2246.9077,42.4583,42.4583,0,0,0,18.5571,6.0718,1.9481,1.9481,0,0,1,1.71,1.3027,27.5437,27.5437,0,0,0,26.1006,18.8535,27.8355,27.8355,0,0,0,4.9917-.4541,27.5337,27.5337,0,0,0,16.65-44.1274,17.6435,17.6435,0,0,1-3.8536-12.9668c.0464-.4077.0874-.8228.1221-1.2349a17.6941,17.6941,0,0,1,4.5957-10.539,37.8636,37.8636,0,0,0-27.64-63.7017,38.6038,38.6038,0,0,0-5.9278.4614A37.9642,37.9642,0,0,0,243.9645,59.139a11.4864,11.4864,0,0,1-9.6328,5.1714,11.9053,11.9053,0,0,1-2.4038-.2466,27.1551,27.1551,0,0,0-28.8721,12.82l-.1289.1738a11.7933,11.7933,0,0,1-9.3833,4.5669h-.0025a11.9815,11.9815,0,0,1-6.4253-1.87c-1.666-1.0557-1.8579-1.169-1.9731-1.2369a42.347,42.347,0,0,0-63.3115,42.9766,47.1611,47.1611,0,0,0,5.7768,16.8276,37.6732,37.6732,0,0,0,10.2686,11.378c9.0718,6.63,19.2222,8.0215,26.1391,8.0215,9.9673,0,19.5132-2.8614,25.5376-7.6548a3.5091,3.5091,0,0,1,2.2046-.7774,3.472,3.472,0,0,1,2.1026.7075,27.1406,27.1406,0,0,0,33.4726-.6533A6.2,6.2,0,0,1,231.2477,147.95Z"/></g><g class="cls-50"><path class="cls-51" d="M171.269,135.4557a4.94,4.94,0,0,1,3.5425-4.9186,12.918,12.918,0,0,0,9.2489-12.973,6.5075,6.5075,0,0,1,4.0665-6.3353,21.7155,21.7155,0,0,0,8.1956-5.7985,4.0314,4.0314,0,0,1,4.2932-1.1864,13.1448,13.1448,0,1,0,3.7273-25.6271,13.2406,13.2406,0,0,1-9.4748-3.4834q-.2328-.2178-.4729-.4295a13.1786,13.1786,0,0,1-4.2683-7.4607,19.1792,19.1792,0,1,0-36.8749,10.0623A9.6258,9.6258,0,0,1,150.58,87.8093a12.9278,12.9278,0,0,0-3.2724,14.7192,3.6893,3.6893,0,0,1,.1392.4252,9.8581,9.8581,0,0,1-5.9861,11.8209c-.6326.2431-1.0724.4137-1.1756.4574a21.7814,21.7814,0,0,0-1.6667,39.3224C158.1563,164.8593,171.6049,145.5434,171.269,135.4557Z"/></g><g class="cls-52"><path class="cls-53" d="M173.7215,44.4505a4.8517,4.8517,0,0,1-5.9.7957,12.6873,12.6873,0,0,0-15.4975,2.1663,6.3915,6.3915,0,0,1-7.264,1.3789,21.3274,21.3274,0,0,0-9.67-1.9281,3.96,3.96,0,0,1-3.7455-2.26,12.91,12.91,0,1,0-20.7919,14.65,13.004,13.004,0,0,1,3.915,9.109q.002.3132.0131.6273a12.9436,12.9436,0,0,1-2.4374,8.0825,18.837,18.837,0,1,0,32.08,19.4995,9.454,9.454,0,0,1,9.2951-5.1883,12.6967,12.6967,0,0,0,12.7062-7.6073,3.6209,3.6209,0,0,1,.2093-.3865,9.6821,9.6821,0,0,1,12.4722-3.7148c.6006.2868,1.0194.4853,1.12.5294A21.3928,21.3928,0,0,0,209.3923,54.835C203.545,33.9426,180.6881,37.3979,173.7215,44.4505Z"/></g><g class="cls-54"><path class="cls-55" d="M242.4816,124.8159a9.1458,9.1458,0,0,1,10.1013-7.7838v0A10.8346,10.8346,0,0,0,261.81,98.9444a6.8866,6.8866,0,0,1,.4462-9.7061A13.9479,13.9479,0,1,0,239.978,73.5762l-.0014-.0017a17.0888,17.0888,0,0,1-22.3437,9.21l.0023.0029a40.7314,40.7314,0,1,0,24.8464,42.0287ZM246.06,98.4115c-.2117.1123-.4266.2147-.644.309q.4761-.5948,1.0041-1.147A6.8429,6.8429,0,0,1,246.06,98.4115Z"/></g><path class="cls-56" d="M120.66,42.0569a5.419,5.419,0,0,0-2.99.9142A25.791,25.791,0,0,1,92.42,44.9116h0a3.4929,3.4929,0,0,0-1.472-.3281c-2.2406,0-4.0569,2.1549-4.0569,4.8129s1.8163,4.8129,4.0569,4.8129a3.4914,3.4914,0,0,0,1.472-.3281h0A25.791,25.791,0,0,1,117.669,55.822a5.42,5.42,0,0,0,2.99.9142c3.4169,0,6.1868-3.2861,6.1868-7.34S124.0764,42.0569,120.66,42.0569Z"/><g class="cls-57"><path class="cls-58" d="M162.34,161.9533a3.5878,3.5878,0,1,0,3.5877-3.5878A3.5878,3.5878,0,0,0,162.34,161.9533Z"/></g><g class="cls-59"><path class="cls-60" d="M281.739,37.6188a3.5878,3.5878,0,1,0,3.5878-3.5878A3.5878,3.5878,0,0,0,281.739,37.6188Z"/></g><g class="cls-61"><circle class="cls-62" cx="273.0076" cy="133.5809" r="12.3192"/></g><g class="cls-63"><circle class="cls-64" cx="135.5923" cy="171.3988" r="9.2161" transform="translate(-74.6485 231.0781) rotate(-67.5)"/></g><g class="cls-65"><circle class="cls-66" cx="54.9208" cy="62.2018" r="9.2162" transform="translate(-0.1393 0.1233) rotate(-0.1285)"/></g><g class="cls-67"><circle class="cls-68" cx="158.6236" cy="35.6958" r="14.5826" transform="translate(21.219 122.6189) rotate(-45)"/></g><g class="cls-69"><circle class="cls-70" cx="203.272" cy="175.4634" r="12.447" transform="translate(-34.8754 51.396) rotate(-13.2825)"/></g><g class="cls-71"><circle class="cls-72" cx="285.3268" cy="37.6188" r="7.8665" transform="translate(-1.0102 66.5614) rotate(-13.2826)"/></g><g class="cls-73"><circle class="cls-74" cx="56.2705" cy="150.0101" r="7.8665" transform="translate(-32.9601 16.9414) rotate(-13.2826)"/></g><g class="cls-75"><circle class="cls-76" cx="145.3104" cy="66.8922" r="1.2611"/></g><g class="cls-77"><path class="cls-78" d="M130.0025,132.33a13.6911,13.6911,0,0,0-5.866,9.8974l-.0005-.0008c-.9536,9.2676-5.2551,11.0116-11.174,10.4025l.0016.0023a8.7641,8.7641,0,1,0,7.5649,10.9833l.0015.0022c1.541-5.7471,4.7039-9.1443,13.7025-6.7315l0-.0007a13.7222,13.7222,0,1,0-4.23-24.5547Z"/></g><g class="cls-79"><path class="cls-80" d="M110.6731,101.5464c-.0685,0-.1361.0037-.2043.0051v-.0032a27.4754,27.4754,0,0,1-17.7855-6.0756v.001a20.9938,20.9938,0,1,0,0,32.6925v.001a27.4754,27.4754,0,0,1,17.7855-6.0756v-.0032c.0682.0013.1358.0051.2043.0051a10.2736,10.2736,0,1,0,0-20.5471Z"/></g><g class="cls-81"><path class="cls-82" d="M272.7156,141.7174a8.0964,8.0964,0,0,0,4.4465-1.3916v.0011a20.5107,20.5107,0,0,1,13.6135-3.3945v-.0006a3.6528,3.6528,0,0,0,.4231.02,3.6078,3.6078,0,1,0-.5145-7.1841v-.0006a20.5115,20.5115,0,0,1-13.6957-3.0461v.0011a8.1368,8.1368,0,1,0-4.273,14.9952Z"/></g><path class="cls-83" d="M80.968,96.0054A15.7351,15.7351,0,0,0,72.2924,98.6v-.0022a39.8635,39.8635,0,0,1-26.54,6.2592v.0012a7.0117,7.0117,0,1,0,0,13.9244v.0012a39.8627,39.8627,0,0,1,26.54,6.2591V125.04a15.8139,15.8139,0,1,0,8.6756-29.035Z"/><path class="cls-83" d="M219.5028,36.5913a12.7419,12.7419,0,0,0-7.0248,2.1005V38.69a32.2781,32.2781,0,0,1-21.49,5.0681v.001a5.6775,5.6775,0,1,0,0,11.2748v.0009a32.2779,32.2779,0,0,1,21.49,5.0681v-.0017a12.8047,12.8047,0,1,0,7.0247-23.51Z"/><g class="cls-84"><path class="cls-85" d="M286.2419,73.7234a5.6737,5.6737,0,0,0-3.3472,1.0872v-.0012a20.2988,20.2988,0,0,1-25.06-.9614V73.85a7.3168,7.3168,0,1,0,0,11.1484v.0022a20.2988,20.2988,0,0,1,25.06-.9615v-.0011a5.7006,5.7006,0,1,0,3.3472-10.3147Z"/></g><g class="cls-86"><path class="cls-87" d="M111.542,155.8683a5.5545,5.5545,0,0,0-2.1622.4353,23.8069,23.8069,0,0,1-20.0377-1.02h0a6.9613,6.9613,0,1,0,0,12.311h0a23.8073,23.8073,0,0,1,20.0377-1.02,5.5711,5.5711,0,1,0,2.1622-10.7058Z"/></g><path class="cls-88" d="M210.6633,45.9962a6,6,0,1,0,6-6A6,6,0,0,0,210.6633,45.9962Z"/></g><g id="Text"><path class="cls-89" d="M97.896,107.1582a8.9372,8.9372,0,0,1-1.5757-.1377,11.466,11.466,0,0,1-1.2993-.2988v-3.1738q.46,0,.9658.0229t.9658.0234a2.0844,2.0844,0,0,0,.9087-.1728,1.0687,1.0687,0,0,0,.5176-.5059,1.9325,1.9325,0,0,0,.1611-.8393V89.9551h3.979v12.7187a5.9194,5.9194,0,0,1-.46,2.4732,3.079,3.079,0,0,1-1.4839,1.5053A6.0611,6.0611,0,0,1,97.896,107.1582Z"/><path class="cls-89" d="M107.74,107.1582a3.1806,3.1806,0,0,1-2.3-.8389,3.0205,3.0205,0,0,1-.874-2.2885V102.835a3.02,3.02,0,0,1,1.0005-2.3228,4.5314,4.5314,0,0,1,3.14-.92h2.8061v-.5977a1.6568,1.6568,0,0,0-.1841-.8281,1.0867,1.0867,0,0,0-.7134-.46,7.0138,7.0138,0,0,0-1.6328-.1382h-3.6338V95.291a12.2864,12.2864,0,0,1,2.15-.5635,18.8172,18.8172,0,0,1,2.9786-.2417,8.6357,8.6357,0,0,1,2.6679.3682,3.2234,3.2234,0,0,1,1.7363,1.2764,4.6292,4.6292,0,0,1,.61,2.5874v8.3027H112.34l-.621-1.2642a5.6414,5.6414,0,0,1-1.4375.896,5.8907,5.8907,0,0,1-1.1612.3682A6.5985,6.5985,0,0,1,107.74,107.1582Zm2.0474-2.7368a1.1075,1.1075,0,0,0,.3794-.0225c.1455-.03.2876-.0649.4253-.1035s.2725-.0766.4028-.1147a2.4491,2.4491,0,0,0,.3218-.1153q.126-.0571.1958-.0805v-2.53l-1.4722.1377a2.2071,2.2071,0,0,0-1.1386.4028,1.079,1.079,0,0,0-.3794.8853v.4829a1.1211,1.1211,0,0,0,.1611.6328.8192.8192,0,0,0,.4482.3335A2.1465,2.1465,0,0,0,109.7871,104.4214Z"/><path class="cls-89" d="M117.7212,107.0205V94.647H121.01l.69,1.2192a9.4126,9.4126,0,0,1,1.6562-1.0005,5.3776,5.3776,0,0,1,2.3-.4258,3.4957,3.4957,0,0,1,1.9091.483,3.2384,3.2384,0,0,1,1.15,1.2192q.5053-.3676,1.1617-.77a7.1635,7.1635,0,0,1,1.4257-.667,4.69,4.69,0,0,1,1.53-.2647,4.3123,4.3123,0,0,1,2.3916.5635,2.9852,2.9852,0,0,1,1.1963,1.61,8.0114,8.0114,0,0,1,.3447,2.4956v7.9116h-3.979V99.4771a1.7114,1.7114,0,0,0-.184-.8511,1.1161,1.1161,0,0,0-.5059-.4717,1.858,1.858,0,0,0-.7817-.1494,2.9462,2.9462,0,0,0-1.15.2417,3.8788,3.8788,0,0,0-.9888.5864c.0151.1231.0264.2456.0347.3682s.0112.2378.0112.3447v7.4746h-3.979V99.4771a1.71,1.71,0,0,0-.1841-.8511,1.1181,1.1181,0,0,0-.5059-.4717,1.7962,1.7962,0,0,0-.7587-.1494,3.053,3.053,0,0,0-.7823.1035,2.962,2.962,0,0,0-.7129.2876,4.1613,4.1613,0,0,0-.5981.4141v8.21Z"/><path class="cls-89" d="M139.4561,92.9678a.4471.4471,0,0,1-.5059-.5059v-2.415q0-.5289.5059-.5288h3.082a.4366.4366,0,0,1,.3682.1494.606.606,0,0,1,.1147.3794v2.415q0,.5061-.4829.5059Zm-.46,14.0527V94.647h3.979v12.3735Z"/><path class="cls-89" d="M150.6572,107.1357a8.6024,8.6024,0,0,1-3.3349-.541,3.3637,3.3637,0,0,1-1.8286-1.9077,10.3692,10.3692,0,0,1-.5635-3.83,11.6976,11.6976,0,0,1,.5171-3.9214,3.27,3.27,0,0,1,1.7363-1.9433,8.1691,8.1691,0,0,1,3.3125-.5523,10.1027,10.1027,0,0,1,3.0361.3682,2.6764,2.6764,0,0,1,1.6211,1.311,5.8391,5.8391,0,0,1,.4951,2.668,3.638,3.638,0,0,1-.5068,2.0469,2.6893,2.6893,0,0,1-1.4375,1.0693,6.9535,6.9535,0,0,1-2.1963.3106h-2.6445a3.3624,3.3624,0,0,0,.2871,1.1733,1.2686,1.2686,0,0,0,.8164.6206,6.3968,6.3968,0,0,0,1.7715.1841h3.4726v2.3227q-.851.2065-1.9433.4141A14.26,14.26,0,0,1,150.6572,107.1357Zm-1.84-7.2675h2.2539a1.2164,1.2164,0,0,0,.8281-.23,1.0932,1.0932,0,0,0,.2529-.8281,2.0685,2.0685,0,0,0-.1611-.8858.9708.9708,0,0,0-.5293-.4829,2.6072,2.6072,0,0,0-.9658-.1494,1.8751,1.8751,0,0,0-.9658.2183,1.3008,1.3008,0,0,0-.541.7822A5.6214,5.6214,0,0,0,148.8174,99.8682Z"/><path class="cls-89" d="M168.9189,107.1582q-.7133,0-1.4375-.0459t-1.4257-.126q-.7017-.0806-1.3575-.1963-.6548-.1142-1.207-.2529v-3.15q.7353.0688,1.6328.1148t1.8281.0688q.9317.0234,1.76.0234a6.3372,6.3372,0,0,0,1.3682-.1269,1.6758,1.6758,0,0,0,.8633-.437,1.1955,1.1955,0,0,0,.2988-.8623v-.437a1.1377,1.1377,0,0,0-.4024-.9429,1.5875,1.5875,0,0,0-1.0234-.3223h-1.335a5.9132,5.9132,0,0,1-3.9091-1.1269,4.7259,4.7259,0,0,1-1.334-3.795v-.8051a4.5251,4.5251,0,0,1,1.4717-3.7144,6.5208,6.5208,0,0,1,4.2324-1.2075,17.9666,17.9666,0,0,1,1.9541.1035q.9433.1034,1.7949.2417.85.1377,1.4941.2988v3.128q-1.0575-.0688-2.3681-.1377t-2.3926-.0694a5.709,5.709,0,0,0-1.2646.1265,1.5848,1.5848,0,0,0-.8516.46,1.4224,1.4224,0,0,0-.2988.9775v.3223a1.3088,1.3088,0,0,0,.4257,1.081,2.04,2.04,0,0,0,1.3.3447h1.5869a5.272,5.272,0,0,1,2.622.5865,3.7869,3.7869,0,0,1,1.5518,1.61,5.041,5.041,0,0,1,.5176,2.3115v.8511a5.7478,5.7478,0,0,1-.7471,3.22,3.6884,3.6884,0,0,1-2.1162,1.4947A11.8357,11.8357,0,0,1,168.9189,107.1582Z"/><path class="cls-89" d="M179.8213,107.1582a3.1786,3.1786,0,0,1-2.3-.8389,3.0205,3.0205,0,0,1-.874-2.2885V102.835a3.02,3.02,0,0,1,1-2.3228,4.532,4.532,0,0,1,3.14-.92h2.8057v-.5977a1.6623,1.6623,0,0,0-.1836-.8281,1.086,1.086,0,0,0-.7129-.46,7.0231,7.0231,0,0,0-1.6328-.1382h-3.6348V95.291a12.2983,12.2983,0,0,1,2.15-.5635,18.8263,18.8263,0,0,1,2.9785-.2417,8.6319,8.6319,0,0,1,2.668.3682,3.2263,3.2263,0,0,1,1.7373,1.2764,4.6378,4.6378,0,0,1,.6094,2.5874v8.3027h-3.1514l-.6211-1.2642a5.7184,5.7184,0,0,1-.5635.4244,5.6193,5.6193,0,0,1-.874.4716,5.8875,5.8875,0,0,1-1.1611.3682A6.5978,6.5978,0,0,1,179.8213,107.1582Zm2.0469-2.7368a1.1036,1.1036,0,0,0,.3789-.0225c.1465-.03.2881-.0649.4258-.1035s.2724-.0766.4023-.1147a2.3816,2.3816,0,0,0,.3223-.1153c.0839-.0381.1494-.0649.1953-.0805v-2.53l-1.4717.1377a2.2075,2.2075,0,0,0-1.1387.4028,1.0789,1.0789,0,0,0-.3789.8853v.4829a1.1211,1.1211,0,0,0,.16.6328.8211.8211,0,0,0,.4492.3335A2.1427,2.1427,0,0,0,181.8682,104.4214Z"/><path class="cls-89" d="M189.8027,107.0205V94.647h3.2891l.6895,1.2192a9.3907,9.3907,0,0,1,1.6562-1.0005,5.3775,5.3775,0,0,1,2.3-.4258,3.4951,3.4951,0,0,1,1.9092.483,3.2378,3.2378,0,0,1,1.1494,1.2192q.5069-.3676,1.1621-.77a7.1487,7.1487,0,0,1,1.4258-.667,4.6886,4.6886,0,0,1,1.5293-.2647,4.3151,4.3151,0,0,1,2.3926.5635,2.986,2.986,0,0,1,1.1953,1.61,7.9977,7.9977,0,0,1,.3457,2.4956v7.9116h-3.98V99.4771a1.716,1.716,0,0,0-.1836-.8511,1.123,1.123,0,0,0-.5059-.4717,1.8584,1.8584,0,0,0-.7822-.1494,2.9481,2.9481,0,0,0-1.15.2417,3.8971,3.8971,0,0,0-.9892.5864c.0156.1231.0273.2456.0351.3682s.0117.2378.0117.3447v7.4746h-3.9795V99.4771a1.716,1.716,0,0,0-.1836-.8511,1.1223,1.1223,0,0,0-.5058-.4717,1.8047,1.8047,0,0,0-.76-.1494,3.0417,3.0417,0,0,0-.7812.1035,2.9613,2.9613,0,0,0-.7139.2876,4.1786,4.1786,0,0,0-.5976.4141v8.21Z"/><path class="cls-89" d="M214.5264,107.1582a3.3316,3.3316,0,0,1-2.5645-1,3.8389,3.8389,0,0,1-.9316-2.7251V94.647h3.98v7.5439a1.369,1.369,0,0,0,.414,1.1729,1.8015,1.8015,0,0,0,1.0811.2993,3.0931,3.0931,0,0,0,1.0693-.23,3.2226,3.2226,0,0,0,1.001-.5752V94.647H222.53v12.3735h-3.2881l-.667-1.2183a12.0624,12.0624,0,0,1-1.8516.9312A5.79,5.79,0,0,1,214.5264,107.1582Z"/><path class="cls-89" d="M230.2129,107.1357a8.6032,8.6032,0,0,1-3.335-.541,3.3666,3.3666,0,0,1-1.8291-1.9077,10.3716,10.3716,0,0,1-.5634-3.83,11.6986,11.6986,0,0,1,.5175-3.9214,3.2714,3.2714,0,0,1,1.7364-1.9433,8.1691,8.1691,0,0,1,3.3125-.5523,10.1036,10.1036,0,0,1,3.0361.3682,2.6764,2.6764,0,0,1,1.6211,1.311,5.8391,5.8391,0,0,1,.4951,2.668,3.638,3.638,0,0,1-.5068,2.0469,2.6893,2.6893,0,0,1-1.4375,1.0693,6.9543,6.9543,0,0,1-2.1963.3106h-2.6446a3.36,3.36,0,0,0,.2872,1.1733,1.2683,1.2683,0,0,0,.8164.6206,6.396,6.396,0,0,0,1.7714.1841h3.4727v2.3227q-.8511.2065-1.9434.4141A14.2589,14.2589,0,0,1,230.2129,107.1357Zm-1.84-7.2675h2.254a1.2166,1.2166,0,0,0,.8281-.23,1.0936,1.0936,0,0,0,.2529-.8281,2.07,2.07,0,0,0-.1611-.8858.9708.9708,0,0,0-.5293-.4829,2.6072,2.6072,0,0,0-.9658-.1494,1.8755,1.8755,0,0,0-.9659.2183,1.3012,1.3012,0,0,0-.541.7822A5.6251,5.6251,0,0,0,228.373,99.8682Z"/><path class="cls-89" d="M241.2529,107.09a5.2172,5.2172,0,0,1-2.3-.4492,2.8487,2.8487,0,0,1-1.3574-1.3442,5.2048,5.2048,0,0,1-.4365-2.2774V89.4722h3.9785v12.9257a2.9771,2.9771,0,0,0,.1152.92.9686.9686,0,0,0,.3682.5175,1.6314,1.6314,0,0,0,.6435.2417l.8282.1148V107.09Z"/><rect class="cls-89" x="94.4227" y="112.8155" width="64.2009" height="1.9093"/><path class="cls-89" d="M95.2485,131.0469V123.15a2.846,2.846,0,0,1,.231-1.2178,2.0219,2.0219,0,0,1,.5879-.7627,2.2717,2.2717,0,0,1,.8052-.3926,3.3825,3.3825,0,0,1,.8676-.1191q.4621,0,1.2251.0147.7632.0131,1.6382.0556t1.6729.14v2.03h-3.85a.6773.6773,0,0,0-.7559.7v1.4561l3.92.126v1.9179l-3.92.126v3.8223Z"/><path class="cls-89" d="M105.314,131.1309a2.0287,2.0287,0,0,1-1.5611-.6094,2.337,2.337,0,0,1-.5669-1.6582v-5.3487h2.4224v4.5918a.833.833,0,0,0,.252.7139,1.0922,1.0922,0,0,0,.6577.1826,1.8922,1.8922,0,0,0,.6508-.14,1.9759,1.9759,0,0,0,.6094-.3506v-4.9981h2.4077v7.5323h-2.0019l-.4058-.7422a7.2418,7.2418,0,0,1-1.1269.5674A3.5154,3.5154,0,0,1,105.314,131.1309Z"/><path class="cls-89" d="M114.0781,131.0889a3.1752,3.1752,0,0,1-1.4-.2735,1.7326,1.7326,0,0,1-.8261-.8183,3.1646,3.1646,0,0,1-.2657-1.3858v-8.247h2.4219v7.8681a1.82,1.82,0,0,0,.07.5606.5857.5857,0,0,0,.2241.3144.9971.9971,0,0,0,.3921.1475l.5039.07v1.7637Z"/><path class="cls-89" d="M118.5581,131.0889a3.1749,3.1749,0,0,1-1.4-.2735,1.7332,1.7332,0,0,1-.8262-.8183,3.1661,3.1661,0,0,1-.2656-1.3858v-8.247h2.4219v7.8681a1.8171,1.8171,0,0,0,.07.5606.5857.5857,0,0,0,.2241.3144.9971.9971,0,0,0,.3921.1475l.5039.07v1.7637Z"/><path class="cls-89" d="M120.14,127.9521v-1.9316h4.34v1.9316Z"/><path class="cls-89" d="M128.8062,131.1309q-.4344,0-.875-.0284t-.8682-.0771q-.427-.0483-.8262-.1182t-.7348-.1543V128.835q.4474.0425.9941.0693.5457.0292,1.1128.043t1.0708.0136a3.8392,3.8392,0,0,0,.833-.0771,1.0169,1.0169,0,0,0,.5254-.2666.7239.7239,0,0,0,.1816-.5244v-.2666a.6907.6907,0,0,0-.2446-.5733.9661.9661,0,0,0-.623-.1963H128.54a3.6019,3.6019,0,0,1-2.38-.6855,2.8791,2.8791,0,0,1-.8121-2.3106v-.49a2.7542,2.7542,0,0,1,.896-2.2607,3.9652,3.9652,0,0,1,2.5757-.7354,10.9058,10.9058,0,0,1,1.19.0635q.5742.063,1.0923.1465t.91.1826v1.9043q-.6438-.0425-1.4419-.084t-1.456-.042a3.503,3.503,0,0,0-.77.0762.97.97,0,0,0-.5181.28.8663.8663,0,0,0-.1817.5947v.1963a.798.798,0,0,0,.2588.6582,1.2451,1.2451,0,0,0,.791.21h.9664a3.2136,3.2136,0,0,1,1.5957.3565,2.3081,2.3081,0,0,1,.9448.9805,3.07,3.07,0,0,1,.3154,1.4072v.5176a3.4938,3.4938,0,0,1-.4551,1.96,2.2414,2.2414,0,0,1-1.2881.91A7.1844,7.1844,0,0,1,128.8062,131.1309Z"/><path class="cls-89" d="M136.7856,131.0469a3.5786,3.5786,0,0,1-1.4765-.2588,1.5235,1.5235,0,0,1-.8052-.8613,4.2457,4.2457,0,0,1-.21-1.6377l.07-2.8565h-1.1621v-1.54l1.26-.378L134.77,121.4h1.918v2.1142h1.6377v1.918H136.688v2.8418a1.5951,1.5951,0,0,0,.042.3994.6922.6922,0,0,0,.126.2657.5046.5046,0,0,0,.1958.1543.8271.8271,0,0,0,.2519.0634l.9522.0977v1.792Z"/><path class="cls-89" d="M140.9858,131.1309a1.9345,1.9345,0,0,1-1.4-.5108,1.8414,1.8414,0,0,1-.5322-1.3935v-.7276a1.8386,1.8386,0,0,1,.6089-1.414,2.76,2.76,0,0,1,1.9111-.5606h1.708V126.16a1.0131,1.0131,0,0,0-.1118-.5039.6617.6617,0,0,0-.4341-.2793,4.244,4.244,0,0,0-.9941-.084H139.53v-1.3867a7.4974,7.4974,0,0,1,1.3091-.3428,11.3317,11.3317,0,0,1,1.813-.1465,5.2522,5.2522,0,0,1,1.624.2236,1.9615,1.9615,0,0,1,1.0571.7774,2.8161,2.8161,0,0,1,.3706,1.5742v5.0547h-1.918l-.3779-.77a3.4067,3.4067,0,0,1-.875.5459,3.6092,3.6092,0,0,1-.707.2237A4.0315,4.0315,0,0,1,140.9858,131.1309Zm1.2461-1.6661a.6654.6654,0,0,0,.231-.0136c.0884-.0186.1748-.04.2588-.0635s.1655-.0469.2451-.0693a1.5224,1.5224,0,0,0,.1958-.07,1.171,1.171,0,0,1,.1191-.0488v-1.541l-.896.084a1.3472,1.3472,0,0,0-.6928.2451.6566.6566,0,0,0-.231.54v.293a.6844.6844,0,0,0,.0977.3858.5015.5015,0,0,0,.2734.2031A1.3126,1.3126,0,0,0,142.2319,129.4648Z"/><path class="cls-89" d="M150.0581,131.1309a4.158,4.158,0,0,1-1.2881-.19,2.4969,2.4969,0,0,1-1.0156-.6152,2.868,2.868,0,0,1-.665-1.1621,6.085,6.085,0,0,1-.2373-1.8418,7.1161,7.1161,0,0,1,.2167-1.91,2.883,2.883,0,0,1,.63-1.2041,2.3179,2.3179,0,0,1,1.0293-.6309,4.8265,4.8265,0,0,1,1.4141-.1884,9.1384,9.1384,0,0,1,1.33.0908,9.8921,9.8921,0,0,1,1.33.3008v1.3867h-1.8906a2.2671,2.2671,0,0,0-.9863.1748,1.0036,1.0036,0,0,0-.5049.6367,4.58,4.58,0,0,0-.1465,1.3164,4.348,4.348,0,0,0,.1465,1.2949.874.874,0,0,0,.5049.5811,2.8771,2.8771,0,0,0,1.0146.14h1.9737v1.3721a6.7112,6.7112,0,0,1-.833.2315,9.8276,9.8276,0,0,1-2.0225.2168Z"/><path class="cls-89" d="M153.9214,131.0469V120.3643h2.4219v5.6279h.8115l1.4287-2.4776h2.4355l-2.0722,3.57,2.31,3.9619h-2.4365l-1.6934-2.8838h-.7841v2.8838Z"/><path class="cls-89" d="M165.5972,131.0469V120.6582h4.4941a3.7087,3.7087,0,0,1,1.8125.3926,2.9715,2.9715,0,0,1,1.127,1.0918,4.7931,4.7931,0,0,1,.5879,1.6523,11.9106,11.9106,0,0,1,.1679,2.0713,8.9,8.9,0,0,1-.4053,2.9336,3.3,3.3,0,0,1-1.2255,1.6943,3.6147,3.6147,0,0,1-2.0645.5528Zm2.4218-2.17h1.834a1.2362,1.2362,0,0,0,.9033-.3223,1.9454,1.9454,0,0,0,.4756-.9942,8.142,8.142,0,0,0,.1475-1.6943,9.416,9.416,0,0,0-.1055-1.5674,2.629,2.629,0,0,0-.3008-.917,1.06,1.06,0,0,0-.4765-.4345,1.6376,1.6376,0,0,0-.6436-.1182h-1.834Z"/><path class="cls-89" d="M178.1968,131.1172a5.2451,5.2451,0,0,1-2.0293-.3291,2.051,2.051,0,0,1-1.1133-1.1621,6.3222,6.3222,0,0,1-.3428-2.3311,7.1231,7.1231,0,0,1,.3145-2.3877,1.9887,1.9887,0,0,1,1.0576-1.1826,4.9762,4.9762,0,0,1,2.0156-.3359,6.1729,6.1729,0,0,1,1.8477.2236,1.6322,1.6322,0,0,1,.9873.7979,3.5476,3.5476,0,0,1,.3013,1.624,2.2136,2.2136,0,0,1-.3082,1.2461,1.6336,1.6336,0,0,1-.875.6513,4.24,4.24,0,0,1-1.3369.19h-1.61a2.0429,2.0429,0,0,0,.1748.7139.7745.7745,0,0,0,.4971.3779,3.8854,3.8854,0,0,0,1.0781.1123h2.1142v1.4141q-.5186.1259-1.1826.2519A8.67,8.67,0,0,1,178.1968,131.1172Zm-1.1192-4.4248h1.3711a.7409.7409,0,0,0,.5049-.14.6652.6652,0,0,0,.1533-.5039,1.2491,1.2491,0,0,0-.0976-.539.5867.5867,0,0,0-.3223-.294,1.5919,1.5919,0,0,0-.5879-.0908,1.1393,1.1393,0,0,0-.5879.1328.7929.7929,0,0,0-.3291.4756A3.4228,3.4228,0,0,0,177.0776,126.6924Z"/><path class="cls-89" d="M184.1475,131.0469l-2.4219-7.5323h2.4922l1.372,5.292,1.4141-5.292h2.4785l-2.5488,7.5323Z"/><path class="cls-89" d="M193.3174,131.1172a5.2451,5.2451,0,0,1-2.0293-.3291,2.051,2.051,0,0,1-1.1133-1.1621,6.3222,6.3222,0,0,1-.3428-2.3311,7.1231,7.1231,0,0,1,.3145-2.3877,1.9887,1.9887,0,0,1,1.0576-1.1826,4.9762,4.9762,0,0,1,2.0156-.3359,6.1725,6.1725,0,0,1,1.8477.2236,1.6322,1.6322,0,0,1,.9873.7979,3.5535,3.5535,0,0,1,.3008,1.624,2.2186,2.2186,0,0,1-.3076,1.2461,1.6343,1.6343,0,0,1-.875.6513,4.2408,4.2408,0,0,1-1.337.19h-1.61a2.0429,2.0429,0,0,0,.1748.7139.7745.7745,0,0,0,.4971.3779,3.8854,3.8854,0,0,0,1.0781.1123H196.09v1.4141q-.5185.1259-1.1826.2519A8.67,8.67,0,0,1,193.3174,131.1172Zm-1.1192-4.4248h1.3711a.7409.7409,0,0,0,.5049-.14.6652.6652,0,0,0,.1533-.5039,1.2491,1.2491,0,0,0-.0976-.539.5864.5864,0,0,0-.3223-.294,1.5919,1.5919,0,0,0-.5879-.0908,1.14,1.14,0,0,0-.5879.1328.7929.7929,0,0,0-.3291.4756A3.4228,3.4228,0,0,0,192.1982,126.6924Z"/><path class="cls-89" d="M200.0381,131.0889a3.1754,3.1754,0,0,1-1.4-.2735,1.7371,1.7371,0,0,1-.8262-.8183,3.1733,3.1733,0,0,1-.2656-1.3858v-8.247h2.4219v7.8681a1.8152,1.8152,0,0,0,.07.5606.5825.5825,0,0,0,.2236.3144.9977.9977,0,0,0,.3916.1475l.5039.07v1.7637Z"/><path class="cls-89" d="M205.3438,131.1172a5.8187,5.8187,0,0,1-1.6446-.2031,2.3836,2.3836,0,0,1-1.0986-.6582,2.6529,2.6529,0,0,1-.6026-1.19,7.6188,7.6188,0,0,1-.1816-1.7988,7.9286,7.9286,0,0,1,.1885-1.8965,2.5608,2.5608,0,0,1,.6094-1.1836,2.3418,2.3418,0,0,1,1.0986-.6162,6.38,6.38,0,0,1,1.6309-.1816,6.198,6.198,0,0,1,1.6523.1884,2.3117,2.3117,0,0,1,1.085.6309,2.711,2.711,0,0,1,.6093,1.1895,7.5709,7.5709,0,0,1,.1953,1.8691,7.935,7.935,0,0,1-.1816,1.8486,2.5976,2.5976,0,0,1-.5947,1.1827,2.305,2.305,0,0,1-1.0918.63A6.3366,6.3366,0,0,1,205.3438,131.1172Zm0-1.918a1.8841,1.8841,0,0,0,.5322-.0635.5993.5993,0,0,0,.3359-.2519,1.5032,1.5032,0,0,0,.1895-.5811,8.8563,8.8563,0,0,0,0-2.1006,1.503,1.503,0,0,0-.1895-.58.5676.5676,0,0,0-.3359-.2451,2.1121,2.1121,0,0,0-.5322-.0567,2.0413,2.0413,0,0,0-.5176.0567.5969.5969,0,0,0-.3428.2451,1.3555,1.3555,0,0,0-.1895.58,9.948,9.948,0,0,0,0,2.1006,1.3561,1.3561,0,0,0,.1895.5811.6311.6311,0,0,0,.3428.2519A1.8211,1.8211,0,0,0,205.3438,129.1992Z"/><path class="cls-89" d="M210.0762,134.3652V123.5146h2.03l.3916.7a5.3994,5.3994,0,0,1,.56-.413,2.7273,2.7273,0,0,1,.6377-.3008,2.4293,2.4293,0,0,1,.7627-.1123,2.6417,2.6417,0,0,1,1.1826.2519,2.0743,2.0743,0,0,1,.833.749,3.7144,3.7144,0,0,1,.4834,1.2247,7.8279,7.8279,0,0,1,.1612,1.6806,8.0505,8.0505,0,0,1-.2315,2.0576,2.2265,2.2265,0,0,1-2.4287,1.8067,5.1231,5.1231,0,0,1-1.0225-.1055,3.7947,3.7947,0,0,1-.9375-.3144v3.6259Zm3.5693-5.1943a.9478.9478,0,0,0,.4971-.1475,1.0373,1.0373,0,0,0,.3994-.5527,3.4744,3.4744,0,0,0,.1543-1.1758,4.433,4.433,0,0,0-.126-1.1972,1.0884,1.0884,0,0,0-.3574-.5948.9121.9121,0,0,0-.5527-.1679,1.96,1.96,0,0,0-.6719.1113,2.7138,2.7138,0,0,0-.49.2246v3.22a1.6762,1.6762,0,0,0,.5108.2032A2.6569,2.6569,0,0,0,213.6455,129.1709Z"/><path class="cls-89" d="M221.583,131.1172a5.2454,5.2454,0,0,1-2.0293-.3291,2.051,2.051,0,0,1-1.1133-1.1621,6.3225,6.3225,0,0,1-.3427-2.3311,7.1235,7.1235,0,0,1,.3144-2.3877,1.989,1.989,0,0,1,1.0576-1.1826,4.9767,4.9767,0,0,1,2.0157-.3359,6.1717,6.1717,0,0,1,1.8476.2236,1.6322,1.6322,0,0,1,.9873.7979,3.5535,3.5535,0,0,1,.3008,1.624,2.2178,2.2178,0,0,1-.3076,1.2461,1.6343,1.6343,0,0,1-.875.6513,4.24,4.24,0,0,1-1.3369.19h-1.61a2.0429,2.0429,0,0,0,.1748.7139.7745.7745,0,0,0,.4971.3779,3.8858,3.8858,0,0,0,1.0781.1123h2.1143v1.4141q-.5186.1259-1.1826.2519A8.6718,8.6718,0,0,1,221.583,131.1172Zm-1.1191-4.4248h1.3711a.7406.7406,0,0,0,.5048-.14.6652.6652,0,0,0,.1534-.5039,1.249,1.249,0,0,0-.0977-.539.5861.5861,0,0,0-.3223-.294,1.5917,1.5917,0,0,0-.5878-.0908,1.139,1.139,0,0,0-.5879.1328.7925.7925,0,0,0-.3291.4756A3.4191,3.4191,0,0,0,220.4639,126.6924Z"/><path class="cls-89" d="M225.8115,131.0469v-7.5323h1.876l.5459,1.0918a4.1353,4.1353,0,0,1,.84-.8466,1.835,1.835,0,0,1,1.1338-.3575q.126,0,.2871.0147a1.4243,1.4243,0,0,1,.3008.0557V125.95c-.1494-.0186-.3027-.0322-.4619-.042s-.3076-.0137-.4473-.0137a2.7021,2.7021,0,0,0-.665.0772,2.0477,2.0477,0,0,0-.5459.2236,1.71,1.71,0,0,0-.4414.3858v4.4658Z"/></g></g></svg>