<svg xmlns="http://www.w3.org/2000/svg" xmlns:xlink="http://www.w3.org/1999/xlink" viewBox="0 0 360 210"><defs><style>.cls-1,.cls-13,.cls-14,.cls-15,.cls-16,.cls-17,.cls-18,.cls-21,.cls-23,.cls-6,.cls-7,.cls-9{isolation:isolate;}.cls-2{fill:#050b1e;mix-blend-mode:overlay;}.cls-3{fill:url(#linear-gradient);}.cls-4{fill:url(#linear-gradient-2);}.cls-5{fill:url(#linear-gradient-3);}.cls-17,.cls-18,.cls-23,.cls-6,.cls-7,.cls-9{opacity:0.6;}.cls-6{fill:url(#linear-gradient-4);}.cls-7{fill:url(#linear-gradient-5);}.cls-8{fill:url(#linear-gradient-6);}.cls-9{fill:url(#linear-gradient-7);}.cls-10{fill:url(#linear-gradient-8);}.cls-11{fill:url(#linear-gradient-9);}.cls-12{fill:url(#linear-gradient-10);}.cls-13,.cls-21{opacity:0.5;}.cls-13{fill:url(#linear-gradient-11);}.cls-14,.cls-15,.cls-16{opacity:0.4;}.cls-14{fill:url(#linear-gradient-12);}.cls-15{fill:url(#linear-gradient-13);}.cls-16{fill:url(#linear-gradient-14);}.cls-17{fill:url(#linear-gradient-15);}.cls-18{fill:url(#linear-gradient-16);}.cls-19{fill:url(#linear-gradient-17);}.cls-20{fill:url(#linear-gradient-18);}.cls-21{fill:url(#linear-gradient-19);}.cls-22{fill:url(#linear-gradient-20);}.cls-23{fill:#520b52;}.cls-24{fill:url(#linear-gradient-21);}.cls-25{fill:url(#linear-gradient-22);}.cls-26{fill:url(#linear-gradient-23);}.cls-27{fill:#fff;}</style><linearGradient id="linear-gradient" x1="137.58" y1="167.8205" x2="251.9197" y2="31.5557" gradientTransform="matrix(1, 0, 0, -1, 0, 212)" gradientUnits="userSpaceOnUse"><stop offset="0.006" stop-color="#fe4f4f"/><stop offset="0.1133" stop-color="#fe4257"/><stop offset="0.31" stop-color="#ff216c"/><stop offset="0.4747" stop-color="#ff0080"/><stop offset="0.7028" stop-color="#d3007e"/><stop offset="1" stop-color="#94007b"/></linearGradient><linearGradient id="linear-gradient-2" x1="72.563" y1="106.4093" x2="287.6526" y2="106.4093" gradientTransform="matrix(1, 0, 0, -1, 0, 212)" gradientUnits="userSpaceOnUse"><stop offset="0" stop-color="#fe9833"/><stop offset="0.2188" stop-color="#ff0080"/><stop offset="0.3357" stop-color="#d3007e"/><stop offset="0.4881" stop-color="#94007b"/><stop offset="0.747" stop-color="#94007b"/></linearGradient><linearGradient id="linear-gradient-3" x1="346.7791" y1="124.7975" x2="138.9628" y2="49.1586" xlink:href="#linear-gradient-2"/><linearGradient id="linear-gradient-4" x1="-285.015" y1="1399.9414" x2="-241.0286" y2="1323.7545" gradientTransform="matrix(-0.6876, 0.7261, 0.7261, 0.6876, -985.0029, -636.2869)" gradientUnits="userSpaceOnUse"><stop offset="0.0089" stop-color="#fe4f4f"/><stop offset="0.1088" stop-color="#fe4257"/><stop offset="0.2918" stop-color="#ff216c"/><stop offset="0.4449" stop-color="#ff0080"/><stop offset="0.6485" stop-color="#d3007e"/><stop offset="0.9137" stop-color="#94007b"/></linearGradient><linearGradient id="linear-gradient-5" x1="160.4683" y1="187.6307" x2="174.0732" y2="110.4735" gradientTransform="matrix(1, 0, 0, -1, 0, 212)" xlink:href="#linear-gradient-4"/><linearGradient id="linear-gradient-6" x1="291.9598" y1="281.1188" x2="314.9761" y2="187.6468" gradientTransform="matrix(0.9978, 0.0669, 0.0669, -0.9978, -86.1963, 331.006)" gradientUnits="userSpaceOnUse"><stop offset="0.006" stop-color="#fe4f4f"/><stop offset="0.1154" stop-color="#fe4257"/><stop offset="0.3158" stop-color="#ff216c"/><stop offset="0.4836" stop-color="#ff0080"/><stop offset="0.7078" stop-color="#d3007e"/><stop offset="1" stop-color="#94007b"/></linearGradient><linearGradient id="linear-gradient-7" x1="291.2053" y1="-982.0302" x2="294.5339" y2="-963.1532" gradientTransform="matrix(1, 0, 0, -1, -182.167, -929.3739)" xlink:href="#linear-gradient-6"/><linearGradient id="linear-gradient-8" x1="172.6064" y1="44.6082" x2="179.5087" y2="40.6231" gradientTransform="matrix(1, 0, 0, -1, 0, 212)" xlink:href="#linear-gradient-6"/><linearGradient id="linear-gradient-9" x1="305.2022" y1="182.6849" x2="312.1044" y2="178.6999" gradientTransform="matrix(1, 0, 0, -1, 0, 212)" xlink:href="#linear-gradient-6"/><linearGradient id="linear-gradient-10" x1="283.1226" y1="80.9655" x2="306.8224" y2="67.2824" gradientTransform="matrix(1, 0, 0, -1, 0, 212)" xlink:href="#linear-gradient-6"/><linearGradient id="linear-gradient-11" x1="133.5048" y1="37.2442" x2="151.2338" y2="27.0083" gradientTransform="matrix(1, 0, 0, -1, -0.0001, 211.9999)" xlink:href="#linear-gradient-6"/><linearGradient id="linear-gradient-12" x1="43.9165" y1="158.5104" x2="61.6467" y2="148.2739" gradientTransform="matrix(1, 0, 0, -1, 0, 212)" xlink:href="#linear-gradient-6"/><linearGradient id="linear-gradient-13" x1="153.9179" y1="190.9271" x2="181.9743" y2="174.7287" gradientTransform="matrix(1, 0, 0, -1, -0.0001, 212)" xlink:href="#linear-gradient-6"/><linearGradient id="linear-gradient-14" x1="205.5585" y1="34.5238" x2="229.5002" y2="20.701" gradientTransform="matrix(1, 0, 0, -1, 0, 212)" xlink:href="#linear-gradient-6"/><linearGradient id="linear-gradient-15" x1="301.0878" y1="185.0603" x2="316.2189" y2="176.3244" gradientTransform="matrix(0.9732, 0.2298, 0.2298, -0.9732, -33.258, 136.2518)" gradientUnits="userSpaceOnUse"><stop offset="0.006" stop-color="#ff0080"/><stop offset="0.1077" stop-color="#f2007f"/><stop offset="0.2949" stop-color="#d1007e"/><stop offset="0.5452" stop-color="#9a007b"/><stop offset="0.5729" stop-color="#94007b"/><stop offset="1" stop-color="#94007b"/></linearGradient><linearGradient id="linear-gradient-16" x1="46.7148" y1="60.2469" x2="61.8459" y2="51.5109" gradientTransform="matrix(1, 0, 0, -1, 0, 212.0001)" xlink:href="#linear-gradient-15"/><linearGradient id="linear-gradient-17" x1="151.9483" y1="148.8839" x2="154.3744" y2="147.4831" gradientTransform="matrix(1, 0, 0, -1, 0, 212)" xlink:href="#linear-gradient-6"/><linearGradient id="linear-gradient-18" x1="-132.749" y1="-457.3611" x2="-137.3074" y2="-427.222" gradientTransform="matrix(0.8236, -0.5672, -0.5672, -0.8236, -5.352, -281.9693)" xlink:href="#linear-gradient-6"/><linearGradient id="linear-gradient-19" x1="56.7732" y1="98.2905" x2="126.1397" y2="98.2905" gradientTransform="matrix(1, 0, 0, -1, 0, 212)" xlink:href="#linear-gradient-4"/><linearGradient id="linear-gradient-20" x1="-4842.2911" y1="-643.0319" x2="-4844.2399" y2="-661.0007" gradientTransform="matrix(-0.9999, 0.0128, 0.0128, 0.9999, -4532.2983, 852.5263)" xlink:href="#linear-gradient-6"/><linearGradient id="linear-gradient-21" x1="292.0352" y1="143.8046" x2="288.4148" y2="123.2722" gradientTransform="matrix(1, 0, 0, -1, 0, 212)" xlink:href="#linear-gradient-6"/><linearGradient id="linear-gradient-22" x1="98.9996" y1="53.083" x2="102.269" y2="34.5415" gradientTransform="matrix(1, 0, 0, -1, 0, 212)" gradientUnits="userSpaceOnUse"><stop offset="0.006" stop-color="#fe4f4f"/><stop offset="0.5878" stop-color="#ff0080"/><stop offset="0.7668" stop-color="#d3007e"/><stop offset="1" stop-color="#94007b"/></linearGradient><linearGradient id="linear-gradient-23" x1="226.6292" y1="174.7212" x2="238.1721" y2="168.0569" gradientTransform="matrix(1, 0, 0, -1, 0, 212)" gradientUnits="userSpaceOnUse"><stop offset="0" stop-color="#fe4f4f"/><stop offset="0.1786" stop-color="#fe4f4f"/><stop offset="0.2484" stop-color="#fe4257"/><stop offset="0.3765" stop-color="#ff216c"/><stop offset="0.4836" stop-color="#ff0080"/><stop offset="0.7078" stop-color="#d3007e"/><stop offset="1" stop-color="#94007b"/></linearGradient></defs><g class="cls-1"><g id="Text"><rect class="cls-2" width="360" height="210"/><g id="Design-2" data-name="Design"><path class="cls-3" d="M145.7275,147.3453a9.4122,9.4122,0,0,1,11.5481-.1684,24.6126,24.6126,0,0,0,30.3506-.5885,12.399,12.399,0,0,1,14.31-.9763,41.3725,41.3725,0,0,0,18.1793,5.95,7.6812,7.6812,0,0,1,6.6916,5.22,25.045,25.045,0,1,0,43.4346-23.41,25.2279,25.2279,0,0,1-5.4344-18.45q.0688-.6036.12-1.2112a25.1085,25.1085,0,0,1,6.5632-15.004,36.5424,36.5424,0,1,0-57.2794-44.9754,18.34,18.34,0,0,1-19.1029,7.8436,24.6315,24.6315,0,0,0-26.2325,11.7145,7.03,7.03,0,0,1-.4923.696,18.7829,18.7829,0,0,1-24.8818,4.2711c-1.09-.6914-1.8511-1.17-2.0351-1.2787a41.5,41.5,0,0,0-62.0431,42.1191C85.855,160.6883,130.6785,159.3183,145.7275,147.3453Z"/><path class="cls-4" d="M250.5453,180.2935A31.43,31.43,0,0,1,220.7628,158.78a1.3242,1.3242,0,0,0-1.1718-.8741,48.0014,48.0014,0,0,1-20.9763-6.863,6.1589,6.1589,0,0,0-6.9592.4738,30.9768,30.9768,0,0,1-38.2086.7462,3.0238,3.0238,0,0,0-1.83-.616,3.0644,3.0644,0,0,0-1.9256.68c-6.8345,5.4377-17.6307,8.6844-28.88,8.6844-7.8106,0-19.27-1.5748-29.5272-9.07a42.6827,42.6827,0,0,1-11.6312-12.8871,53.22,53.22,0,0,1-6.5216-18.9858,47.8675,47.8675,0,0,1,71.5644-48.578c.13.0765.3449.2033,2.2146,1.3893A12.4765,12.4765,0,0,0,153.6,74.8249a12.2589,12.2589,0,0,0,9.7562-4.7464l.1073-.14A30.9941,30.9941,0,0,1,196.3968,55.34a12.3517,12.3517,0,0,0,2.4993.257,11.9242,11.9242,0,0,0,9.9968-5.365,43,43,0,0,1,29.2388-18.821,43.6839,43.6839,0,0,1,6.7119-.5227,42.9168,42.9168,0,0,1,31.31,72.1533,18.8,18.8,0,0,0-4.8823,11.2029c-.04.4664-.0852.9354-.1378,1.3963a18.7578,18.7578,0,0,0,4.1038,13.7845,31.4217,31.4217,0,0,1-24.6919,50.8685Zm-55.0741-30.9748a6.8613,6.8613,0,0,1,3.5816,1.0086A47.1524,47.1524,0,0,0,219.66,157.07a2.1631,2.1631,0,0,1,1.899,1.4468,30.5885,30.5885,0,0,0,28.9854,20.9373,30.9222,30.9222,0,0,0,5.5434-.5043,30.577,30.577,0,0,0,18.49-49.0048,19.5932,19.5932,0,0,1-4.2794-14.4c.0514-.4523.0971-.9137.1355-1.3714a19.6422,19.6422,0,0,1,5.1037-11.7039,42.0488,42.0488,0,0,0-30.695-70.7423,42.7532,42.7532,0,0,0-6.5829.5129,42.1584,42.1584,0,0,0-28.6671,18.4522,12.759,12.759,0,0,1-10.6975,5.7435,13.1974,13.1974,0,0,1-2.6694-.2744,30.16,30.16,0,0,0-32.0633,14.237l-.1443.1946A13.094,13.094,0,0,1,153.6,75.6635a13.3093,13.3093,0,0,1-7.1381-2.0767c-1.85-1.1729-2.0632-1.2987-2.1913-1.3741A47.0272,47.0272,0,0,0,73.9613,119.94a52.3741,52.3741,0,0,0,6.4158,18.6876,41.8294,41.8294,0,0,0,11.4034,12.6354c10.0739,7.3621,21.3462,8.9081,29.0283,8.9087,11.0689,0,21.6693-3.1781,28.36-8.5009a3.8952,3.8952,0,0,1,2.4483-.8632,3.8547,3.8547,0,0,1,2.3343.7851,30.14,30.14,0,0,0,37.1729-.7255A6.8857,6.8857,0,0,1,195.4712,149.3187Z"/><path class="cls-5" d="M303.6711,184.8072a31.43,31.43,0,0,1-29.7825-21.5132,1.3243,1.3243,0,0,0-1.1718-.8741,47.9889,47.9889,0,0,1-20.9764-6.863,6.1621,6.1621,0,0,0-6.9593.4745,30.9784,30.9784,0,0,1-38.2078.7462,3.0243,3.0243,0,0,0-1.8307-.6166,3.0668,3.0668,0,0,0-1.9256.68c-6.8339,5.4377-17.63,8.6836-28.88,8.6836-7.81,0-19.2694-1.5737-29.5271-9.07a42.6906,42.6906,0,0,1-11.6313-12.8871,53.23,53.23,0,0,1-6.5216-18.9858,47.867,47.867,0,0,1,71.5644-48.5781c.13.0764.3442.2034,2.2145,1.3882a12.4673,12.4673,0,0,0,6.6864,1.9455h.0028a12.2624,12.2624,0,0,0,9.7567-4.7457l.109-.1432a30.9907,30.9907,0,0,1,32.9313-14.5957,12.3742,12.3742,0,0,0,2.4993.2565,11.9213,11.9213,0,0,0,9.9968-5.3645,43,43,0,0,1,29.2386-18.8214,43.7244,43.7244,0,0,1,6.7121-.522,42.9163,42.9163,0,0,1,31.31,72.153,18.8085,18.8085,0,0,0-4.8824,11.2029c-.04.4664-.0851.9349-.1377,1.3963a18.7566,18.7566,0,0,0,4.1037,13.7839,31.4224,31.4224,0,0,1-24.6918,50.869ZM248.597,153.8333a6.8647,6.8647,0,0,1,3.581,1.008,47.15,47.15,0,0,0,20.6082,6.7429,2.1637,2.1637,0,0,1,1.899,1.4467,30.5878,30.5878,0,0,0,28.9854,20.9373,30.9039,30.9039,0,0,0,5.5434-.5043,30.5769,30.5769,0,0,0,18.49-49.0046,19.5937,19.5937,0,0,1-4.28-14.4c.0515-.4527.0971-.9137.1356-1.3713a19.65,19.65,0,0,1,5.1036-11.7039A42.0485,42.0485,0,0,0,297.969,36.2417a42.8667,42.8667,0,0,0-6.583.5124,42.16,42.16,0,0,0-28.6666,18.4523,12.7565,12.7565,0,0,1-10.6975,5.743,13.2266,13.2266,0,0,1-2.6695-.2739,30.1565,30.1565,0,0,0-32.0632,14.2369l-.1432.1931a13.0967,13.0967,0,0,1-10.42,5.0716h-.0028A13.3057,13.3057,0,0,1,199.5874,78.1c-1.85-1.1724-2.0633-1.2982-2.1912-1.3736a47.0275,47.0275,0,0,0-70.3091,47.7267,52.3753,52.3753,0,0,0,6.4153,18.6875,41.8354,41.8354,0,0,0,11.4036,12.6355c10.0744,7.3628,21.3467,8.9081,29.0281,8.9081,11.069,0,21.67-3.1776,28.36-8.5008a3.8966,3.8966,0,0,1,2.4483-.8634,3.8559,3.8559,0,0,1,2.335.7857,30.14,30.14,0,0,0,37.1722-.7255A6.8854,6.8854,0,0,1,248.597,153.8333Z"/><path class="cls-6" d="M181.9891,139.9581a5.4861,5.4861,0,0,1,3.934-5.4623,14.3458,14.3458,0,0,0,10.2712-14.4068,7.2266,7.2266,0,0,1,4.5159-7.0355,24.1161,24.1161,0,0,0,9.1015-6.4394,4.4767,4.4767,0,0,1,4.7677-1.3175,14.5977,14.5977,0,1,0,4.1392-28.46,14.7044,14.7044,0,0,1-10.522-3.8684q-.2584-.2419-.5251-.477a14.6352,14.6352,0,0,1-4.74-8.2853,21.299,21.299,0,1,0-40.9505,11.1745,10.69,10.69,0,0,1-2.9675,11.6647,14.3569,14.3569,0,0,0-3.6341,16.3461,4.0762,4.0762,0,0,1,.1546.4722,10.9476,10.9476,0,0,1-6.6477,13.1274c-.7025.27-1.1909.4594-1.3055.5079a24.1888,24.1888,0,0,0-1.8509,43.6686C167.4271,172.6115,182.3621,151.1607,181.9891,139.9581Z"/><path class="cls-7" d="M184.7127,38.8944a5.388,5.388,0,0,1-6.5521.8837,14.09,14.09,0,0,0-17.21,2.4057,7.098,7.098,0,0,1-8.0669,1.5313,23.6845,23.6845,0,0,0-10.7388-2.1412,4.3975,4.3975,0,0,1-4.1594-2.51,14.3369,14.3369,0,1,0-23.09,16.2692,14.4411,14.4411,0,0,1,4.3477,10.1158q.0022.3478.0146.6966a14.3741,14.3741,0,0,1-2.7068,8.9758,20.919,20.919,0,1,0,35.6257,21.6548,10.4987,10.4987,0,0,1,10.3224-5.7618,14.1,14.1,0,0,0,14.1106-8.4481,4.0189,4.0189,0,0,1,.2324-.4292,10.7522,10.7522,0,0,1,13.8507-4.1254c.667.3185,1.1321.5389,1.2438.5879a23.7572,23.7572,0,0,0,32.39-28.173C217.8324,27.2251,192.4493,31.0623,184.7127,38.8944Z"/><path class="cls-8" d="M261.0726,128.1423a10.1566,10.1566,0,0,1,11.2177-8.6441h0a12.0322,12.0322,0,0,0,10.247-20.0869,7.6477,7.6477,0,0,1,.4955-10.7789,15.4895,15.4895,0,1,0-24.7406-17.3931l-.0015-.0019a18.9776,18.9776,0,0,1-24.813,10.2281l0,0,.0026.0032a45.2332,45.2332,0,1,0,27.5926,46.674ZM265.0465,98.82c-.2351.1247-.4738.2384-.7152.3432q.5288-.6606,1.1151-1.2738A7.6193,7.6193,0,0,1,265.0465,98.82Z"/><path class="cls-9" d="M125.7865,36.2363a6.0181,6.0181,0,0,0-3.3205,1.0152,28.6418,28.6418,0,0,1-28.0408,2.155h0a3.8782,3.8782,0,0,0-1.6347-.3644c-2.4882,0-4.5053,2.3931-4.5053,5.3449s2.0171,5.3448,4.5053,5.3448a3.8781,3.8781,0,0,0,1.6347-.3643h0a28.6415,28.6415,0,0,1,28.04,2.1553,6.02,6.02,0,0,0,3.32,1.0152c3.7945,0,6.8706-3.6493,6.8706-8.1513S129.5805,36.2363,125.7865,36.2363Z"/><path class="cls-10" d="M172.0732,169.3843a3.9844,3.9844,0,1,0,3.9844-3.9843h0A3.9843,3.9843,0,0,0,172.0732,169.3843Z"/><path class="cls-11" d="M304.6689,31.3076a3.9844,3.9844,0,1,0,3.9844-3.9843h0A3.9843,3.9843,0,0,0,304.6689,31.3076Z"/><circle class="cls-12" cx="294.9725" cy="137.8761" r="13.6808"/><circle class="cls-13" cx="142.3692" cy="179.8736" r="10.2347"/><circle class="cls-14" cx="52.7816" cy="58.6078" r="10.2349"/><circle class="cls-15" cx="167.946" cy="29.1721" r="16.1944"/><circle class="cls-16" cx="217.5293" cy="184.3876" r="13.8227"/><circle class="cls-17" cx="308.6533" cy="31.3076" r="8.7359" transform="translate(1.0638 71.7519) rotate(-13.2826)"/><circle class="cls-18" cx="54.2803" cy="156.1212" r="8.736"/><circle class="cls-19" cx="153.1614" cy="63.8165" r="1.4005"/><path class="cls-20" d="M136.1616,136.4869a15.2045,15.2045,0,0,0-6.5144,10.9913l0-.0009c-1.059,10.2919-5.8359,12.2287-12.409,11.5523l.0017.0025a9.7328,9.7328,0,1,0,8.4011,12.1973l.0016.0024c1.7114-6.3823,5.2238-10.155,15.217-7.4755v-.0008a15.2389,15.2389,0,1,0-4.6975-27.2686Z"/><path class="cls-21" d="M114.6958,102.3009c-.0761,0-.1512.0041-.2269.0057v-.0036a30.5125,30.5125,0,0,1-19.7513-6.7471v.0011a23.3142,23.3142,0,1,0,0,36.3059v.0011a30.5125,30.5125,0,0,1,19.7513-6.7471v-.0036c.0757.0015.1508.0057.2269.0057a11.4091,11.4091,0,0,0,.07-22.8181Q114.7306,102.3007,114.6958,102.3009Z"/><path class="cls-22" d="M294.6482,146.9119a8.9911,8.9911,0,0,0,4.938-1.5455v.0013a22.7773,22.7773,0,0,1,15.1181-3.77v-.0007a4.0526,4.0526,0,0,0,.47.0222,4.0066,4.0066,0,1,0-.5714-7.9781v-.0006a22.7784,22.7784,0,0,1-15.2094-3.3828v.0012a9.0361,9.0361,0,1,0-4.7453,16.6526Z"/><path class="cls-23" d="M81.7075,96.1475a17.474,17.474,0,0,0-9.6345,2.8813v-.0024A44.2691,44.2691,0,0,1,42.6,105.9774v.0013a7.7867,7.7867,0,1,0,0,15.4635v.0013a44.2685,44.2685,0,0,1,29.4734,6.9509v-.0032A17.5618,17.5618,0,1,0,81.7075,96.147Z"/><path class="cls-23" d="M235.554,30.1666a14.15,14.15,0,0,0-7.8012,2.3326v-.002a35.8456,35.8456,0,0,1-23.8652,5.6283v.0011a6.305,6.305,0,1,0,0,12.5209v.001a35.8456,35.8456,0,0,1,23.8652,5.6283v-.0019a14.22,14.22,0,1,0,7.8011-26.1085Z"/><path class="cls-24" d="M309.67,71.4027a6.3006,6.3006,0,0,0-3.7171,1.2074v-.0013a22.5425,22.5425,0,0,1-27.83-1.0677v.0022a8.1255,8.1255,0,1,0,0,12.3806v.0025a22.5423,22.5423,0,0,1,27.83-1.0678v-.0012A6.3307,6.3307,0,1,0,309.67,71.4026Z"/><path class="cls-25" d="M115.6607,162.6268a6.1689,6.1689,0,0,0-2.4012.4834,26.4384,26.4384,0,0,1-22.2524-1.1327h0a7.7307,7.7307,0,1,0,0,13.6717h0a26.4388,26.4388,0,0,1,22.2524-1.1328,6.1868,6.1868,0,1,0,2.4012-11.889Z"/><path class="cls-26" d="M225.7375,40.611a6.6632,6.6632,0,1,0,6.6632-6.6632A6.6632,6.6632,0,0,0,225.7375,40.611Z"/></g><g id="Text-2" data-name="Text"><path class="cls-27" d="M100.5065,108.533a9.9282,9.9282,0,0,1-1.75-.153,12.7257,12.7257,0,0,1-1.4429-.3318v-3.5246q.5109,0,1.0725.0255t1.0726.0259a2.3124,2.3124,0,0,0,1.0091-.1919,1.1863,1.1863,0,0,0,.5748-.5618,2.1446,2.1446,0,0,0,.1789-.932V89.4285H105.64v14.1244A6.5736,6.5736,0,0,1,105.13,106.3a3.4193,3.4193,0,0,1-1.6479,1.6716A6.7311,6.7311,0,0,1,100.5065,108.533Z"/><path class="cls-27" d="M111.4385,108.533a3.5322,3.5322,0,0,1-2.5542-.9317,3.3538,3.3538,0,0,1-.9706-2.5414v-1.328a3.3536,3.3536,0,0,1,1.1111-2.5795,5.0321,5.0321,0,0,1,3.487-1.0217h3.1163v-.6638a1.84,1.84,0,0,0-.2045-.92,1.2067,1.2067,0,0,0-.7922-.5108,7.79,7.79,0,0,0-1.8133-.1535h-4.0354V95.3541a13.6483,13.6483,0,0,1,2.3876-.6258,20.906,20.906,0,0,1,3.3078-.2684,9.59,9.59,0,0,1,2.9628.4089,3.58,3.58,0,0,1,1.9282,1.4175,5.14,5.14,0,0,1,.6774,2.8734v9.22h-3.5l-.69-1.4039a6.2659,6.2659,0,0,1-1.5964.9951,6.5435,6.5435,0,0,1-1.29.4089A7.3344,7.3344,0,0,1,111.4385,108.533Zm2.2737-3.0393a1.2311,1.2311,0,0,0,.4213-.025c.1616-.0333.3194-.0721.4723-.115s.3026-.085.4473-.1273a2.711,2.711,0,0,0,.3574-.1281q.14-.0634.2174-.0894v-2.81l-1.6349.1529a2.4522,2.4522,0,0,0-1.2644.4473,1.1983,1.1983,0,0,0-.4214.9832v.5363a1.2446,1.2446,0,0,0,.179.7027.91.91,0,0,0,.4977.37,2.3856,2.3856,0,0,0,.7279.1016Z"/><path class="cls-27" d="M122.5229,108.38V94.6389h3.6523l.7662,1.354a10.4527,10.4527,0,0,1,1.8393-1.1111,5.9721,5.9721,0,0,1,2.5542-.4728,3.8823,3.8823,0,0,1,2.12.5363,3.5968,3.5968,0,0,1,1.2771,1.354q.5611-.4083,1.29-.8551a7.9566,7.9566,0,0,1,1.5833-.7407,5.2085,5.2085,0,0,1,1.6991-.294,4.7889,4.7889,0,0,1,2.6559.6258,3.3155,3.3155,0,0,1,1.3286,1.7879,8.8978,8.8978,0,0,1,.3827,2.7715v8.786h-4.4187v-8.3778a1.9006,1.9006,0,0,0-.2044-.9452,1.24,1.24,0,0,0-.5618-.5238,2.0617,2.0617,0,0,0-.8681-.1659,3.2723,3.2723,0,0,0-1.2771.2684,4.3087,4.3087,0,0,0-1.0981.6512c.0168.1367.0293.2727.0385.4089s.0125.2641.0125.3828V108.38h-4.4188v-8.3771a1.9,1.9,0,0,0-.2044-.9452,1.2413,1.2413,0,0,0-.5619-.5238,1.9932,1.9932,0,0,0-.8425-.1659,3.3888,3.3888,0,0,0-.8688.1149,3.2894,3.2894,0,0,0-.7917.3194,4.6224,4.6224,0,0,0-.6642.46V108.38Z"/><path class="cls-27" d="M146.66,92.7741a.4965.4965,0,0,1-.5618-.5618V89.53q0-.5874.5618-.5872h3.4227a.4844.4844,0,0,1,.4089.1659.6734.6734,0,0,1,.1274.4213v2.6819q0,.562-.5363.5618Zm-.5108,15.6059V94.6389h4.4188V108.38Z"/><path class="cls-27" d="M159.0992,108.508a9.553,9.553,0,0,1-3.7035-.6008,3.7351,3.7351,0,0,1-2.0307-2.1186,11.5131,11.5131,0,0,1-.6258-4.2533,12.99,12.99,0,0,1,.5742-4.3548,3.6314,3.6314,0,0,1,1.9282-2.1581,9.0707,9.0707,0,0,1,3.6786-.6133,11.216,11.216,0,0,1,3.3717.4089,2.9723,2.9723,0,0,1,1.8,1.4558,6.4852,6.4852,0,0,1,.55,2.9629,4.0406,4.0406,0,0,1-.5628,2.2732,2.9867,2.9867,0,0,1-1.5964,1.1874,7.72,7.72,0,0,1-2.439.345H157.107a3.7326,3.7326,0,0,0,.3188,1.303,1.4087,1.4087,0,0,0,.9066.6892,7.107,7.107,0,0,0,1.9673.2044h3.8564v2.5794q-.945.2294-2.158.46A15.8472,15.8472,0,0,1,159.0992,108.508Zm-2.0434-8.0708h2.503a1.3507,1.3507,0,0,0,.92-.2554,1.2142,1.2142,0,0,0,.2809-.92,2.2983,2.2983,0,0,0-.1789-.9838,1.0781,1.0781,0,0,0-.5878-.5362,2.8959,2.8959,0,0,0-1.0726-.1659,2.081,2.081,0,0,0-1.0725.2424,1.4439,1.4439,0,0,0-.6008.8686,6.2431,6.2431,0,0,0-.1907,1.75Z"/><path class="cls-27" d="M179.3793,108.533q-.7921,0-1.5964-.051t-1.5833-.14q-.7792-.09-1.5075-.218-.7272-.1269-1.3405-.2809v-3.4981q.8166.0763,1.8133.1274t2.03.0765q1.0346.0259,1.9545.0259a7.0338,7.0338,0,0,0,1.5194-.1409,1.8614,1.8614,0,0,0,.9587-.4853,1.3273,1.3273,0,0,0,.3318-.9576v-.4853a1.2632,1.2632,0,0,0-.4469-1.0471,1.7629,1.7629,0,0,0-1.1365-.3579h-1.4825a6.5669,6.5669,0,0,1-4.3412-1.2515,5.248,5.248,0,0,1-1.4814-4.2144v-.8941a5.0252,5.0252,0,0,1,1.6343-4.1249,7.2412,7.2412,0,0,1,4.7-1.341,19.9634,19.9634,0,0,1,2.17.1149q1.0476.1149,1.9933.2684.944.153,1.6592.3319v3.4737q-1.1744-.0764-2.63-.1529t-2.6571-.0771a6.3359,6.3359,0,0,0-1.4043.1405,1.76,1.76,0,0,0-.9457.5108,1.58,1.58,0,0,0-.3319,1.0856v.3579a1.4538,1.4538,0,0,0,.4728,1.2005,2.2659,2.2659,0,0,0,1.4437.3828h1.7623a5.8555,5.8555,0,0,1,2.9118.6513,4.2054,4.2054,0,0,1,1.7233,1.788,5.5976,5.5976,0,0,1,.5748,2.5669v.9452a6.3838,6.3838,0,0,1-.83,3.5759,4.096,4.096,0,0,1-2.35,1.66A13.1479,13.1479,0,0,1,179.3793,108.533Z"/><path class="cls-27" d="M191.4867,108.533a3.53,3.53,0,0,1-2.5543-.9317,3.3541,3.3541,0,0,1-.97-2.5414v-1.328a3.3537,3.3537,0,0,1,1.11-2.5795,5.0332,5.0332,0,0,1,3.487-1.0217h3.1158v-.6638a1.8455,1.8455,0,0,0-.2039-.92,1.2058,1.2058,0,0,0-.7917-.5108,7.7937,7.7937,0,0,0-1.8132-.1535H188.83V95.3541a13.66,13.66,0,0,1,2.3877-.6258,20.9166,20.9166,0,0,1,3.3077-.2684,9.588,9.588,0,0,1,2.9629.4089,3.5832,3.5832,0,0,1,1.9293,1.4175,5.15,5.15,0,0,1,.6767,2.8734v9.22h-3.5l-.69-1.4039a6.3438,6.3438,0,0,1-.6258.4713,6.2361,6.2361,0,0,1-.9706.5238,6.5417,6.5417,0,0,1-1.2894.4089A7.3361,7.3361,0,0,1,191.4867,108.533Zm2.2731-3.0393a1.2259,1.2259,0,0,0,.4208-.025c.1627-.0333.32-.0721.4728-.115s.3026-.085.4468-.1273a2.6515,2.6515,0,0,0,.3579-.1281c.0932-.0423.1659-.0721.2169-.0894v-2.81l-1.6343.1529a2.4523,2.4523,0,0,0-1.2646.4473,1.1981,1.1981,0,0,0-.4208.9832v.5363a1.245,1.245,0,0,0,.1777.7027.9122.9122,0,0,0,.4989.37,2.3825,2.3825,0,0,0,.7279.1016Z"/><path class="cls-27" d="M202.5713,108.38V94.6389h3.6526l.7657,1.354a10.4238,10.4238,0,0,1,1.8393-1.1111,5.97,5.97,0,0,1,2.5542-.4728,3.8809,3.8809,0,0,1,2.12.5363,3.5958,3.5958,0,0,1,1.2764,1.354q.563-.4083,1.2906-.8551a7.9373,7.9373,0,0,1,1.5833-.7407,5.207,5.207,0,0,1,1.6984-.294,4.7919,4.7919,0,0,1,2.657.6258,3.3159,3.3159,0,0,1,1.3274,1.7879,8.8808,8.8808,0,0,1,.3839,2.7715v8.786H219.3v-8.3778a1.9048,1.9048,0,0,0-.2039-.9452,1.2462,1.2462,0,0,0-.5618-.5238,2.064,2.064,0,0,0-.8686-.1659,3.2719,3.2719,0,0,0-1.2771.2684,4.3267,4.3267,0,0,0-1.0986.6512c.0174.1367.03.2727.039.4089s.013.2641.013.3828V108.38h-4.4193v-8.3771a1.9058,1.9058,0,0,0-.2039-.9452,1.246,1.246,0,0,0-.5617-.5238,2.0021,2.0021,0,0,0-.844-.1659,3.3753,3.3753,0,0,0-.8676.1149,3.2891,3.2891,0,0,0-.7928.3194,4.6385,4.6385,0,0,0-.6636.46V108.38Z"/><path class="cls-27" d="M230.0276,108.533a3.7,3.7,0,0,1-2.848-1.1106,4.2629,4.2629,0,0,1-1.0345-3.0263V94.6389h4.42v8.3777a1.52,1.52,0,0,0,.46,1.3026,2.0011,2.0011,0,0,0,1.2006.3324,3.4367,3.4367,0,0,0,1.1875-.2555,3.5759,3.5759,0,0,0,1.1116-.6387V94.6389h4.3914V108.38h-3.6515l-.7408-1.3529a13.4,13.4,0,0,1-2.0562,1.0341A6.4311,6.4311,0,0,1,230.0276,108.533Z"/><path class="cls-27" d="M247.4479,108.508a9.554,9.554,0,0,1-3.7037-.6008,3.7387,3.7387,0,0,1-2.0312-2.1186,11.5172,11.5172,0,0,1-.6257-4.2533,12.99,12.99,0,0,1,.5747-4.3548,3.6328,3.6328,0,0,1,1.9283-2.1581,9.0707,9.0707,0,0,1,3.6786-.6133,11.2192,11.2192,0,0,1,3.3717.4089,2.9723,2.9723,0,0,1,1.8,1.4558,6.4852,6.4852,0,0,1,.55,2.9629,4.0406,4.0406,0,0,1-.5628,2.2732,2.9867,2.9867,0,0,1-1.5964,1.1874,7.7225,7.7225,0,0,1-2.439.345h-2.937a3.7323,3.7323,0,0,0,.319,1.303,1.4087,1.4087,0,0,0,.9066.6892,7.1062,7.1062,0,0,0,1.9672.2044h3.8565v2.5794q-.9452.2294-2.1582.46A15.8443,15.8443,0,0,1,247.4479,108.508Zm-2.0434-8.0708h2.5031a1.3507,1.3507,0,0,0,.92-.2554,1.2143,1.2143,0,0,0,.2809-.92,2.3,2.3,0,0,0-.1789-.9838,1.0781,1.0781,0,0,0-.5878-.5362,2.8959,2.8959,0,0,0-1.0726-.1659,2.0816,2.0816,0,0,0-1.0726.2424,1.4453,1.4453,0,0,0-.6008.8686,6.2465,6.2465,0,0,0-.1908,1.75Z"/><path class="cls-27" d="M259.7081,108.4572a5.7938,5.7938,0,0,1-2.5543-.4988,3.1637,3.1637,0,0,1-1.5074-1.4928,5.78,5.78,0,0,1-.4847-2.5291V88.8922H259.58v14.3543a3.3065,3.3065,0,0,0,.1279,1.0217,1.0761,1.0761,0,0,0,.4089.5747,1.8124,1.8124,0,0,0,.7146.2684l.92.1275v3.2184Z"/><rect class="cls-27" x="96.6493" y="114.8155" width="71.2968" height="2.1203"/><path class="cls-27" d="M97.5663,135.062v-8.77a3.1609,3.1609,0,0,1,.2566-1.3524,2.2445,2.2445,0,0,1,.6529-.847,2.5205,2.5205,0,0,1,.8941-.436,3.7569,3.7569,0,0,1,.9635-.1323q.5132,0,1.3605.0163.8477.0146,1.8193.0618t1.8578.1555v2.2543h-4.2755a.7525.7525,0,0,0-.84.7774v1.617l4.3533.14v2.13l-4.3533.14v4.2447Z"/><path class="cls-27" d="M108.7444,135.1553a2.2529,2.2529,0,0,1-1.7337-.6768,2.5953,2.5953,0,0,1-.63-1.8415v-5.94h2.69v5.0993a.9253.9253,0,0,0,.28.7928,1.2136,1.2136,0,0,0,.73.2028,2.1026,2.1026,0,0,0,.7228-.1555,2.195,2.195,0,0,0,.6767-.3894v-5.55h2.6738v8.3648h-2.2231l-.4507-.8242a8.0413,8.0413,0,0,1-1.2514.63A3.9038,3.9038,0,0,1,108.7444,135.1553Z"/><path class="cls-27" d="M118.4771,135.1086a3.5264,3.5264,0,0,1-1.5547-.3037,1.9241,1.9241,0,0,1-.9174-.9087,3.5141,3.5141,0,0,1-.2951-1.539v-9.1585h2.69v8.7377a2.021,2.021,0,0,0,.0777.6225.65.65,0,0,0,.2489.3492,1.1067,1.1067,0,0,0,.4354.1638l.56.0778v1.9586Z"/><path class="cls-27" d="M123.4523,135.1086a3.5254,3.5254,0,0,1-1.5548-.3037,1.9251,1.9251,0,0,1-.9175-.9087,3.5169,3.5169,0,0,1-.295-1.539v-9.1585h2.69v8.7377a2.0177,2.0177,0,0,0,.0778.6225.65.65,0,0,0,.2488.3492,1.1071,1.1071,0,0,0,.4355.1638l.56.0778v1.9586Z"/><path class="cls-27" d="M125.209,131.6251V129.48h4.82v2.1451Z"/><path class="cls-27" d="M134.833,135.1553q-.4824,0-.9717-.0316t-.9641-.0856q-.4743-.0535-.9175-.1312t-.8161-.1714v-2.13q.4969.0472,1.104.077.606.0324,1.2358.0477t1.1892.0151a4.2563,4.2563,0,0,0,.925-.0856,1.13,1.13,0,0,0,.5835-.2961.8039.8039,0,0,0,.2017-.5823v-.2961a.7672.7672,0,0,0-.2717-.6367,1.073,1.073,0,0,0-.6918-.2179h-.9019a4,4,0,0,1-2.643-.7613,3.1974,3.1974,0,0,1-.9019-2.566v-.5442a3.0589,3.0589,0,0,1,.995-2.5105,4.4036,4.4036,0,0,1,2.86-.8167,12.1049,12.1049,0,0,1,1.3216.07q.6377.07,1.213.1627t1.0106.2028v2.1148q-.715-.0472-1.6013-.0933t-1.6169-.0467a3.8931,3.8931,0,0,0-.8551.0847,1.0768,1.0768,0,0,0-.5754.3109.9619.9619,0,0,0-.2018.66v.218a.8863.8863,0,0,0,.2874.731,1.3825,1.3825,0,0,0,.8784.2332h1.0733a3.5691,3.5691,0,0,1,1.772.3959,2.5635,2.5635,0,0,1,1.0493,1.0889,3.41,3.41,0,0,1,.35,1.5627v.5748a3.88,3.88,0,0,1-.5054,2.1767,2.4885,2.4885,0,0,1-1.43,1.0105A7.98,7.98,0,0,1,134.833,135.1553Z"/><path class="cls-27" d="M143.6944,135.062a3.9743,3.9743,0,0,1-1.64-.2874,1.6918,1.6918,0,0,1-.8942-.9565,4.7139,4.7139,0,0,1-.2332-1.8187l.0777-3.1722h-1.2905v-1.71l1.3992-.42.3423-2.3484h2.13v2.3479h1.8187v2.13H143.586v3.1559a1.77,1.77,0,0,0,.0467.4435.7665.7665,0,0,0,.14.2951.5615.5615,0,0,0,.2174.1714.9209.9209,0,0,0,.28.07l1.0574.1085v1.99Z"/><path class="cls-27" d="M148.3588,135.1553a2.1485,2.1485,0,0,1-1.5547-.5673,2.0448,2.0448,0,0,1-.591-1.5475v-.808a2.0413,2.0413,0,0,1,.6762-1.57,3.0654,3.0654,0,0,1,2.1223-.6226h1.8968v-.4046a1.125,1.125,0,0,0-.1242-.56.735.735,0,0,0-.4821-.31,4.7129,4.7129,0,0,0-1.1039-.0933h-2.4561v-1.54a8.3288,8.3288,0,0,1,1.4538-.3806,12.5846,12.5846,0,0,1,2.0134-.1627,5.83,5.83,0,0,1,1.8035.2483,2.1784,2.1784,0,0,1,1.1739.8633,3.1271,3.1271,0,0,1,.4116,1.7482v5.6134h-2.13l-.42-.8551a3.7825,3.7825,0,0,1-.9717.6062,4.01,4.01,0,0,1-.7851.2484A4.4789,4.4789,0,0,1,148.3588,135.1553Zm1.3838-1.85a.7384.7384,0,0,0,.2566-.0151c.0981-.0206.1941-.0444.2874-.07s.1838-.0521.2722-.077a1.694,1.694,0,0,0,.2174-.0777,1.2884,1.2884,0,0,1,.1323-.0542v-1.7113l-.9951.0933a1.4956,1.4956,0,0,0-.7693.2721.7293.7293,0,0,0-.2566.6v.3254a.7605.7605,0,0,0,.1085.4284.5571.5571,0,0,0,.3037.2256,1.4563,1.4563,0,0,0,.4429.0613Z"/><path class="cls-27" d="M158.4338,135.1553a4.6186,4.6186,0,0,1-1.43-.211,2.7744,2.7744,0,0,1-1.1279-.6832,3.1859,3.1859,0,0,1-.7385-1.2906,6.76,6.76,0,0,1-.2635-2.0453,7.9012,7.9012,0,0,1,.2407-2.1211,3.2017,3.2017,0,0,1,.7-1.3372,2.574,2.574,0,0,1,1.1431-.7007,5.3622,5.3622,0,0,1,1.57-.2092,10.1379,10.1379,0,0,1,1.477.1009,10.98,10.98,0,0,1,1.477.334v1.54h-2.1a2.5165,2.5165,0,0,0-1.0953.1941,1.1148,1.1148,0,0,0-.5607.7071,5.0847,5.0847,0,0,0-.1627,1.4619,4.828,4.828,0,0,0,.1627,1.438.97.97,0,0,0,.5607.6453,3.1944,3.1944,0,0,0,1.1267.1555h2.1919v1.5237a7.4451,7.4451,0,0,1-.9251.2571,10.9115,10.9115,0,0,1-2.246.2408Z"/><path class="cls-27" d="M162.7241,135.062V123.1987h2.69v6.25h.9012l1.5866-2.7514h2.7047l-2.3012,3.9645,2.5653,4.4h-2.7058l-1.8806-3.2025h-.8707v3.2025Z"/><path class="cls-27" d="M175.69,135.062V123.5251h4.9908a4.1178,4.1178,0,0,1,2.0129.436,3.3,3.3,0,0,1,1.2515,1.2124,5.3236,5.3236,0,0,1,.6529,1.8349,13.2315,13.2315,0,0,1,.1865,2.3,9.8859,9.8859,0,0,1-.45,3.2578,3.6653,3.6653,0,0,1-1.361,1.8816,4.0149,4.0149,0,0,1-2.2927.6139Zm2.6895-2.41h2.0367a1.3722,1.3722,0,0,0,1.0031-.3579,2.16,2.16,0,0,0,.5282-1.1041,9.0387,9.0387,0,0,0,.1638-1.8815,10.4651,10.4651,0,0,0-.1171-1.7407,2.9211,2.9211,0,0,0-.3341-1.0183,1.1769,1.1769,0,0,0-.5292-.4825,1.8175,1.8175,0,0,0-.7147-.1313H178.38Z"/><path class="cls-27" d="M189.6826,135.14a5.8252,5.8252,0,0,1-2.2536-.3655,2.2777,2.2777,0,0,1-1.2363-1.2906,7.0194,7.0194,0,0,1-.3807-2.5887,7.91,7.91,0,0,1,.3492-2.6516,2.2085,2.2085,0,0,1,1.1745-1.3133,5.5243,5.5243,0,0,1,2.2384-.373,6.8521,6.8521,0,0,1,2.0519.2483,1.812,1.812,0,0,1,1.0964.8861,3.9378,3.9378,0,0,1,.3346,1.8034,2.4582,2.4582,0,0,1-.3422,1.3839,1.8146,1.8146,0,0,1-.9717.7233,4.71,4.71,0,0,1-1.4847.211h-1.7879a2.2681,2.2681,0,0,0,.1941.7928.86.86,0,0,0,.552.42,4.3143,4.3143,0,0,0,1.1973.1247h2.3479v1.57q-.576.14-1.3134.28A9.6292,9.6292,0,0,1,189.6826,135.14Zm-1.2429-4.9139h1.5226a.8227.8227,0,0,0,.5607-.1555.7387.7387,0,0,0,.17-.56,1.3863,1.3863,0,0,0-.1084-.5985.6513.6513,0,0,0-.3579-.3265,1.7671,1.7671,0,0,0-.6529-.1009,1.2657,1.2657,0,0,0-.6529.1475.8807.8807,0,0,0-.3655.5282,3.8013,3.8013,0,0,0-.116,1.0653Z"/><path class="cls-27" d="M196.291,135.062l-2.69-8.3648h2.7677l1.5236,5.8769,1.57-5.8769h2.7525l-2.8306,8.3648Z"/><path class="cls-27" d="M206.4744,135.14a5.8255,5.8255,0,0,1-2.2536-.3655,2.2777,2.2777,0,0,1-1.2363-1.2906,7.0215,7.0215,0,0,1-.3807-2.5887,7.91,7.91,0,0,1,.3493-2.6516,2.2079,2.2079,0,0,1,1.1745-1.3133,5.5236,5.5236,0,0,1,2.2383-.373,6.8517,6.8517,0,0,1,2.0519.2483,1.8124,1.8124,0,0,1,1.0965.8861,3.9457,3.9457,0,0,1,.334,1.8034,2.464,2.464,0,0,1-.3416,1.3839,1.8151,1.8151,0,0,1-.9717.7233,4.71,4.71,0,0,1-1.4848.211h-1.7879a2.2681,2.2681,0,0,0,.1941.7928.86.86,0,0,0,.552.42,4.3143,4.3143,0,0,0,1.1973.1247h2.3478v1.57q-.5759.14-1.3133.28A9.63,9.63,0,0,1,206.4744,135.14Zm-1.2429-4.9139h1.5227a.8228.8228,0,0,0,.5607-.1555.7386.7386,0,0,0,.17-.56,1.3863,1.3863,0,0,0-.1084-.5985.6506.6506,0,0,0-.3579-.3265,1.7665,1.7665,0,0,0-.6529-.1009,1.2666,1.2666,0,0,0-.6529.1475.8806.8806,0,0,0-.3654.5282A3.8014,3.8014,0,0,0,205.2315,130.2262Z"/><path class="cls-27" d="M213.9379,135.1086a3.5267,3.5267,0,0,1-1.5547-.3037,1.93,1.93,0,0,1-.9175-.9087,3.5243,3.5243,0,0,1-.295-1.539v-9.1585h2.69v8.7377a2.0147,2.0147,0,0,0,.0778.6225.6468.6468,0,0,0,.2483.3492,1.1075,1.1075,0,0,0,.4349.1638l.56.0778v1.9586Z"/><path class="cls-27" d="M219.83,135.14a6.464,6.464,0,0,1-1.8264-.2256,2.6478,2.6478,0,0,1-1.22-.7309,2.9479,2.9479,0,0,1-.6692-1.3216,8.4645,8.4645,0,0,1-.2016-1.9976,8.8033,8.8033,0,0,1,.2093-2.1061,2.8445,2.8445,0,0,1,.6768-1.3144,2.6,2.6,0,0,1,1.22-.6843,7.0866,7.0866,0,0,1,1.8112-.2017,6.8856,6.8856,0,0,1,1.8349.2092,2.5672,2.5672,0,0,1,1.2049.7007,3.01,3.01,0,0,1,.6767,1.3209,8.4083,8.4083,0,0,1,.2168,2.0757,8.8134,8.8134,0,0,1-.2016,2.0529,2.8851,2.8851,0,0,1-.66,1.3134,2.56,2.56,0,0,1-1.2125.7A7.0389,7.0389,0,0,1,219.83,135.14Zm0-2.13a2.0939,2.0939,0,0,0,.591-.0706.6651.6651,0,0,0,.373-.28,1.6709,1.6709,0,0,0,.2105-.6453,9.84,9.84,0,0,0,0-2.3328,1.6687,1.6687,0,0,0-.2105-.6441.63.63,0,0,0-.373-.2722,2.3472,2.3472,0,0,0-.591-.063,2.27,2.27,0,0,0-.5748.063.6627.6627,0,0,0-.3807.2722,1.5054,1.5054,0,0,0-.21.6441,11.0514,11.0514,0,0,0,0,2.3328,1.505,1.505,0,0,0,.21.6453.7.7,0,0,0,.3807.28A2.02,2.02,0,0,0,219.83,133.01Z"/><path class="cls-27" d="M225.0855,138.747v-12.05H227.34l.4349.7773a5.9792,5.9792,0,0,1,.6219-.4586,3.0319,3.0319,0,0,1,.7081-.3341,2.703,2.703,0,0,1,.847-.1247,2.9331,2.9331,0,0,1,1.3133.28,2.3026,2.3026,0,0,1,.9251.8318,4.1237,4.1237,0,0,1,.5368,1.36,8.6917,8.6917,0,0,1,.179,1.8664,8.9367,8.9367,0,0,1-.2571,2.285,2.4725,2.4725,0,0,1-2.6971,2.0064,5.6917,5.6917,0,0,1-1.1355-.1172,4.214,4.214,0,0,1-1.0411-.3491v4.0266Zm3.9638-5.7684a1.052,1.052,0,0,0,.5521-.1638,1.1511,1.1511,0,0,0,.4435-.6138,3.86,3.86,0,0,0,.1714-1.3057,4.9228,4.9228,0,0,0-.14-1.3295,1.2085,1.2085,0,0,0-.3969-.6606,1.0129,1.0129,0,0,0-.6138-.1864,2.1737,2.1737,0,0,0-.7461.1236,3.0038,3.0038,0,0,0-.5442.2494v3.5759a1.8619,1.8619,0,0,0,.5673.2256,2.9468,2.9468,0,0,0,.7067.0853Z"/><path class="cls-27" d="M237.8641,135.14a5.8255,5.8255,0,0,1-2.2536-.3655,2.2777,2.2777,0,0,1-1.2363-1.2906,7.0193,7.0193,0,0,1-.3806-2.5887,7.9077,7.9077,0,0,1,.3492-2.6516,2.2088,2.2088,0,0,1,1.1745-1.3133,5.5243,5.5243,0,0,1,2.2384-.373,6.851,6.851,0,0,1,2.0518.2483,1.8124,1.8124,0,0,1,1.0965.8861,3.9457,3.9457,0,0,1,.334,1.8034,2.4629,2.4629,0,0,1-.3416,1.3839,1.8151,1.8151,0,0,1-.9717.7233,4.7092,4.7092,0,0,1-1.4847.211h-1.7879a2.2681,2.2681,0,0,0,.1941.7928.86.86,0,0,0,.5521.42,4.314,4.314,0,0,0,1.1972.1247h2.348v1.57q-.5759.14-1.3133.28A9.6332,9.6332,0,0,1,237.8641,135.14Zm-1.2428-4.9139h1.5227a.8226.8226,0,0,0,.5606-.1555.7385.7385,0,0,0,.17-.56,1.3864,1.3864,0,0,0-.1085-.5985.65.65,0,0,0-.3579-.3265,1.7663,1.7663,0,0,0-.6528-.1009,1.2657,1.2657,0,0,0-.6529.1475.88.88,0,0,0-.3654.5282A3.794,3.794,0,0,0,236.6213,130.2262Z"/><path class="cls-27" d="M242.56,135.062v-8.3648h2.0833l.6063,1.2124a4.5894,4.5894,0,0,1,.9328-.94,2.0382,2.0382,0,0,1,1.2591-.3971q.14,0,.3188.0164a1.58,1.58,0,0,1,.3341.0618v2.7511c-.1659-.0206-.3362-.0357-.513-.0466s-.3416-.0152-.4967-.0152a2.9972,2.9972,0,0,0-.7385.0857,2.2741,2.2741,0,0,0-.6062.2483,1.8987,1.8987,0,0,0-.49.4285v4.9594Z"/></g></g></g></svg>