<svg xmlns="http://www.w3.org/2000/svg" xmlns:xlink="http://www.w3.org/1999/xlink" width="360" height="144.3067" viewBox="0 0 360 144.3067"><defs><style>.cls-1,.cls-13,.cls-14,.cls-15,.cls-16,.cls-17,.cls-18,.cls-21,.cls-23,.cls-6,.cls-7,.cls-9{isolation:isolate;}.cls-2{fill:#050b1e;mix-blend-mode:overlay;}.cls-3{fill:url(#linear-gradient);}.cls-4{fill:url(#linear-gradient-2);}.cls-5{fill:url(#linear-gradient-3);}.cls-17,.cls-18,.cls-23,.cls-6,.cls-7,.cls-9{opacity:0.6;}.cls-6{fill:url(#linear-gradient-4);}.cls-7{fill:url(#linear-gradient-5);}.cls-8{fill:url(#linear-gradient-6);}.cls-9{fill:url(#linear-gradient-7);}.cls-10{fill:url(#linear-gradient-8);}.cls-11{fill:url(#linear-gradient-9);}.cls-12{fill:url(#linear-gradient-10);}.cls-13,.cls-21{opacity:0.5;}.cls-13{fill:url(#linear-gradient-11);}.cls-14,.cls-15,.cls-16{opacity:0.4;}.cls-14{fill:url(#linear-gradient-12);}.cls-15{fill:url(#linear-gradient-13);}.cls-16{fill:url(#linear-gradient-14);}.cls-17{fill:url(#linear-gradient-15);}.cls-18{fill:url(#linear-gradient-16);}.cls-19{fill:url(#linear-gradient-17);}.cls-20{fill:url(#linear-gradient-18);}.cls-21{fill:url(#linear-gradient-19);}.cls-22{fill:url(#linear-gradient-20);}.cls-23{fill:#520b52;}.cls-24{fill:url(#linear-gradient-21);}.cls-25{fill:url(#linear-gradient-22);}.cls-26{fill:url(#linear-gradient-23);}.cls-27{fill:#fff;}</style><linearGradient id="linear-gradient" x1="149.6633" y1="181.8404" x2="229.4701" y2="86.7303" gradientTransform="matrix(1, 0, 0, -1, 0, 212)" gradientUnits="userSpaceOnUse"><stop offset="0.006" stop-color="#fe4f4f"/><stop offset="0.1133" stop-color="#fe4257"/><stop offset="0.31" stop-color="#ff216c"/><stop offset="0.4747" stop-color="#ff0080"/><stop offset="0.7028" stop-color="#d3007e"/><stop offset="1" stop-color="#94007b"/></linearGradient><linearGradient id="linear-gradient-2" x1="104.2827" y1="138.9766" x2="254.411" y2="138.9766" gradientTransform="matrix(1, 0, 0, -1, 0, 212)" gradientUnits="userSpaceOnUse"><stop offset="0" stop-color="#fe9833"/><stop offset="0.2188" stop-color="#ff0080"/><stop offset="0.3357" stop-color="#d3007e"/><stop offset="0.4881" stop-color="#94007b"/><stop offset="0.747" stop-color="#94007b"/></linearGradient><linearGradient id="linear-gradient-3" x1="295.6801" y1="151.8112" x2="150.6285" y2="99.0168" xlink:href="#linear-gradient-2"/><linearGradient id="linear-gradient-4" x1="-301.3231" y1="1363.7494" x2="-270.6215" y2="1310.5725" gradientTransform="matrix(-0.6876, 0.7261, 0.7261, 0.6876, -985.0029, -636.2869)" gradientUnits="userSpaceOnUse"><stop offset="0.0089" stop-color="#fe4f4f"/><stop offset="0.1088" stop-color="#fe4257"/><stop offset="0.2918" stop-color="#ff216c"/><stop offset="0.4449" stop-color="#ff0080"/><stop offset="0.6485" stop-color="#d3007e"/><stop offset="0.9137" stop-color="#94007b"/></linearGradient><linearGradient id="linear-gradient-5" x1="165.6388" y1="195.6676" x2="175.1348" y2="141.8133" gradientTransform="matrix(1, 0, 0, -1, 0, 212)" xlink:href="#linear-gradient-4"/><linearGradient id="linear-gradient-6" x1="276.5358" y1="301.9624" x2="292.6008" y2="236.7208" gradientTransform="matrix(0.9978, 0.0669, 0.0669, -0.9978, -86.1963, 331.006)" gradientUnits="userSpaceOnUse"><stop offset="0.006" stop-color="#fe4f4f"/><stop offset="0.1154" stop-color="#fe4257"/><stop offset="0.3158" stop-color="#ff216c"/><stop offset="0.4836" stop-color="#ff0080"/><stop offset="0.7078" stop-color="#d3007e"/><stop offset="1" stop-color="#94007b"/></linearGradient><linearGradient id="linear-gradient-7" x1="311.9087" y1="-965.4501" x2="314.232" y2="-952.2743" gradientTransform="matrix(1, 0, 0, -1, -182.167, -929.3739)" xlink:href="#linear-gradient-6"/><linearGradient id="linear-gradient-8" x1="174.111" y1="95.8407" x2="178.9286" y2="93.0592" gradientTransform="matrix(1, 0, 0, -1, 0, 212)" xlink:href="#linear-gradient-6"/><linearGradient id="linear-gradient-9" x1="266.6602" y1="192.2154" x2="271.4778" y2="189.434" gradientTransform="matrix(1, 0, 0, -1, 0, 212)" xlink:href="#linear-gradient-6"/><linearGradient id="linear-gradient-10" x1="251.2491" y1="121.2173" x2="267.7911" y2="111.6668" gradientTransform="matrix(1, 0, 0, -1, 0, 212)" xlink:href="#linear-gradient-6"/><linearGradient id="linear-gradient-11" x1="146.8189" y1="90.7008" x2="159.1934" y2="83.5563" gradientTransform="matrix(1, 0, 0, -1, -0.0001, 211.9999)" xlink:href="#linear-gradient-6"/><linearGradient id="linear-gradient-12" x1="84.288" y1="175.3422" x2="96.6633" y2="168.1973" gradientTransform="matrix(1, 0, 0, -1, 0, 212)" xlink:href="#linear-gradient-6"/><linearGradient id="linear-gradient-13" x1="161.0668" y1="197.9684" x2="180.6496" y2="186.6622" gradientTransform="matrix(1, 0, 0, -1, -0.0001, 212)" xlink:href="#linear-gradient-6"/><linearGradient id="linear-gradient-14" x1="197.1109" y1="88.8019" x2="213.8217" y2="79.1539" gradientTransform="matrix(1, 0, 0, -1, 0, 212)" xlink:href="#linear-gradient-6"/><linearGradient id="linear-gradient-15" x1="263.7884" y1="193.8735" x2="274.3497" y2="187.776" gradientTransform="matrix(0.9732, 0.2298, 0.2298, -0.9732, -36.6449, 145.0754)" gradientUnits="userSpaceOnUse"><stop offset="0.006" stop-color="#ff0080"/><stop offset="0.1077" stop-color="#f2007f"/><stop offset="0.2949" stop-color="#d1007e"/><stop offset="0.5452" stop-color="#9a007b"/><stop offset="0.5729" stop-color="#94007b"/><stop offset="1" stop-color="#94007b"/></linearGradient><linearGradient id="linear-gradient-16" x1="86.2411" y1="106.7562" x2="96.8023" y2="100.6586" gradientTransform="matrix(1, 0, 0, -1, 0, 212.0001)" xlink:href="#linear-gradient-15"/><linearGradient id="linear-gradient-17" x1="159.6921" y1="168.623" x2="161.3854" y2="167.6453" gradientTransform="matrix(1, 0, 0, -1, 0, 212)" xlink:href="#linear-gradient-6"/><linearGradient id="linear-gradient-18" x1="-95.0701" y1="-420.1466" x2="-98.2517" y2="-399.1101" gradientTransform="matrix(0.8236, -0.5672, -0.5672, -0.8236, -5.352, -281.9693)" xlink:href="#linear-gradient-6"/><linearGradient id="linear-gradient-19" x1="93.2617" y1="133.3098" x2="141.6781" y2="133.3098" gradientTransform="matrix(1, 0, 0, -1, 0, 212)" xlink:href="#linear-gradient-4"/><linearGradient id="linear-gradient-20" x1="-4805.4901" y1="-688.7515" x2="-4806.8503" y2="-701.2934" gradientTransform="matrix(-0.9999, 0.0128, 0.0128, 0.9999, -4532.2983, 852.5263)" xlink:href="#linear-gradient-6"/><linearGradient id="linear-gradient-21" x1="257.47" y1="165.0778" x2="254.943" y2="150.7466" gradientTransform="matrix(1, 0, 0, -1, 0, 212)" xlink:href="#linear-gradient-6"/><linearGradient id="linear-gradient-22" x1="122.7349" y1="101.7559" x2="125.0169" y2="88.8143" gradientTransform="matrix(1, 0, 0, -1, 0, 212)" gradientUnits="userSpaceOnUse"><stop offset="0.006" stop-color="#fe4f4f"/><stop offset="0.5878" stop-color="#ff0080"/><stop offset="0.7668" stop-color="#d3007e"/><stop offset="1" stop-color="#94007b"/></linearGradient><linearGradient id="linear-gradient-23" x1="211.8179" y1="186.657" x2="219.8745" y2="182.0054" gradientTransform="matrix(1, 0, 0, -1, 0, 212)" gradientUnits="userSpaceOnUse"><stop offset="0" stop-color="#fe4f4f"/><stop offset="0.1786" stop-color="#fe4f4f"/><stop offset="0.2484" stop-color="#fe4257"/><stop offset="0.3765" stop-color="#ff216c"/><stop offset="0.4836" stop-color="#ff0080"/><stop offset="0.7078" stop-color="#d3007e"/><stop offset="1" stop-color="#94007b"/></linearGradient></defs><g class="cls-1"><g id="Text"><rect class="cls-2" width="360" height="144.3067"/><g id="Design-2" data-name="Design"><path class="cls-3" d="M155.35,102.1673a6.57,6.57,0,0,1,8.06-.1176,17.1791,17.1791,0,0,0,21.1841-.4108,8.6544,8.6544,0,0,1,9.9882-.6814,28.8769,28.8769,0,0,0,12.6888,4.1527,5.3613,5.3613,0,0,1,4.6706,3.6431,17.4809,17.4809,0,1,0,30.3166-16.34,17.6084,17.6084,0,0,1-3.7932-12.8779q.048-.4213.0837-.8454a17.5256,17.5256,0,0,1,4.581-10.4725A25.5059,25.5059,0,1,0,203.15,36.826a12.8007,12.8007,0,0,1-13.3334,5.4747,17.1922,17.1922,0,0,0-18.31,8.1765,4.9149,4.9149,0,0,1-.3436.4857,13.11,13.11,0,0,1-17.367,2.9812c-.7612-.4826-1.2921-.8169-1.4205-.8925A28.9665,28.9665,0,0,0,109.0711,82.45C113.56,111.48,144.8461,110.5242,155.35,102.1673Z"/><path class="cls-4" d="M228.5108,125.1645a21.9378,21.9378,0,0,1-20.7876-15.0158.9246.9246,0,0,0-.8179-.61,33.502,33.502,0,0,1-14.641-4.79,4.2989,4.2989,0,0,0-4.8574.3307,21.6211,21.6211,0,0,1-26.6688.5208,2.1109,2.1109,0,0,0-1.2774-.43,2.1379,2.1379,0,0,0-1.344.4746c-4.77,3.7954-12.3059,6.0615-20.1574,6.0615a34.88,34.88,0,0,1-20.6094-6.3309,29.79,29.79,0,0,1-8.1183-8.9949,37.1461,37.1461,0,0,1-4.552-13.2517A33.4106,33.4106,0,0,1,154.63,49.2221c.09.0534.2408.142,1.5458.97a8.7073,8.7073,0,0,0,4.6689,1.3576,8.5561,8.5561,0,0,0,6.81-3.3128l.0749-.098a21.6334,21.6334,0,0,1,22.987-10.1894,8.619,8.619,0,0,0,1.7444.1793,8.323,8.323,0,0,0,6.9776-3.7446,30.0131,30.0131,0,0,1,20.408-13.1367,30.4938,30.4938,0,0,1,4.6848-.3648A29.9551,29.9551,0,0,1,246.3848,71.244a13.1214,13.1214,0,0,0-3.4077,7.8194c-.0277.3255-.06.6528-.0962.9745a13.0925,13.0925,0,0,0,2.8644,9.6213,21.9319,21.9319,0,0,1-17.2345,35.5053Zm-38.4406-21.62a4.7889,4.7889,0,0,1,2.5.7039,32.9116,32.9116,0,0,0,14.3837,4.7064,1.51,1.51,0,0,1,1.3255,1.01A21.35,21.35,0,0,0,228.51,124.5786a21.5679,21.5679,0,0,0,3.8692-.352,21.3421,21.3421,0,0,0,12.9059-34.2043,13.6758,13.6758,0,0,1-2.987-10.0512c.0359-.3157.0678-.6378.0946-.9572a13.71,13.71,0,0,1,3.5622-8.1691A29.3492,29.3492,0,0,0,224.5309,21.468a29.8539,29.8539,0,0,0-4.5948.3581,29.4252,29.4252,0,0,0-20.009,12.8792,8.9058,8.9058,0,0,1-7.4667,4.0089,9.2133,9.2133,0,0,1-1.8632-.1916A21.0508,21.0508,0,0,0,168.2177,48.46l-.1008.1358a9.1388,9.1388,0,0,1-7.272,3.5392,9.2891,9.2891,0,0,1-4.9823-1.45c-1.2914-.8187-1.44-.9064-1.5295-.9591a32.824,32.824,0,0,0-49.0744,33.3127,36.5555,36.5555,0,0,0,4.478,13.0436,29.1962,29.1962,0,0,0,7.9594,8.8193,34.2979,34.2979,0,0,0,20.2612,6.2181c7.7259,0,15.1248-2.2183,19.7948-5.9334a2.7183,2.7183,0,0,1,1.7089-.6025,2.6908,2.6908,0,0,1,1.6293.548,21.037,21.037,0,0,0,25.9459-.5064A4.8055,4.8055,0,0,1,190.07,103.5447Z"/><path class="cls-5" d="M265.5916,128.3149a21.9375,21.9375,0,0,1-20.7876-15.0158.9247.9247,0,0,0-.818-.61,33.496,33.496,0,0,1-14.6411-4.79,4.3009,4.3009,0,0,0-4.8574.3312,21.6222,21.6222,0,0,1-26.6683.5208,2.1107,2.1107,0,0,0-1.2778-.43,2.1405,2.1405,0,0,0-1.344.4749c-4.77,3.7954-12.3054,6.061-20.1574,6.061a34.8779,34.8779,0,0,1-20.6093-6.3305,29.7962,29.7962,0,0,1-8.1183-8.9949,37.152,37.152,0,0,1-4.552-13.2517,33.41,33.41,0,0,1,49.9505-33.9066c.09.0534.24.142,1.5457.969a8.7024,8.7024,0,0,0,4.667,1.3579h.0019a8.559,8.559,0,0,0,6.81-3.3124l.0761-.1A21.6309,21.6309,0,0,1,227.797,41.1a8.6418,8.6418,0,0,0,1.7444.1791,8.3209,8.3209,0,0,0,6.9776-3.7444,30.0128,30.0128,0,0,1,20.408-13.1369,30.5062,30.5062,0,0,1,4.6849-.3643,29.9547,29.9547,0,0,1,21.8537,50.3613,13.1283,13.1283,0,0,0-3.4079,7.8194c-.0276.3256-.0594.6525-.0961.9746a13.092,13.092,0,0,0,2.8643,9.6209,21.9321,21.9321,0,0,1-17.2343,35.5055Zm-38.4407-21.6191a4.79,4.79,0,0,1,2.4995.7036,32.9115,32.9115,0,0,0,14.3841,4.7064,1.51,1.51,0,0,1,1.3254,1.01,21.35,21.35,0,0,0,20.2313,14.6138,21.577,21.577,0,0,0,3.8692-.3519,21.342,21.342,0,0,0,12.9058-34.2043,13.6759,13.6759,0,0,1-2.987-10.0509c.0359-.316.0677-.6378.0946-.9572a13.7151,13.7151,0,0,1,3.5623-8.169,29.349,29.349,0,0,0-21.4245-49.3768,29.916,29.916,0,0,0-4.5948.3576A29.4272,29.4272,0,0,0,237.008,37.8561a8.9031,8.9031,0,0,1-7.4666,4.0085,9.2344,9.2344,0,0,1-1.8632-.1911,21.0484,21.0484,0,0,0-22.38,9.9371l-.1.1347a9.1416,9.1416,0,0,1-7.2733,3.54h-.0019a9.2867,9.2867,0,0,1-4.98-1.45c-1.2914-.8183-1.44-.9061-1.5294-.9587a32.8243,32.8243,0,0,0-49.0744,33.3122,36.5572,36.5572,0,0,0,4.4778,13.0435,29.2015,29.2015,0,0,0,7.9594,8.8194,34.2924,34.2924,0,0,0,20.2611,6.2177c7.7259,0,15.1252-2.218,19.7949-5.9335a2.7206,2.7206,0,0,1,1.7088-.6026,2.6912,2.6912,0,0,1,1.63.5485,21.0374,21.0374,0,0,0,25.9454-.5064A4.8055,4.8055,0,0,1,227.1509,106.6958Z"/><path class="cls-6" d="M180.66,97.0111a3.8293,3.8293,0,0,1,2.7459-3.8125,10.0132,10.0132,0,0,0,7.1691-10.0557,5.0439,5.0439,0,0,1,3.152-4.9106,16.8331,16.8331,0,0,0,6.3526-4.4946,3.1249,3.1249,0,0,1,3.3278-.92,10.1889,10.1889,0,1,0,2.8891-19.8642,10.2633,10.2633,0,0,1-7.3441-2.7q-.18-.1687-.3666-.3329a10.216,10.216,0,0,1-3.3085-5.783,14.8663,14.8663,0,1,0-28.5826,7.7995,7.4615,7.4615,0,0,1-2.0712,8.1418,10.0208,10.0208,0,0,0-2.5366,11.4092,2.8521,2.8521,0,0,1,.108.33,7.6414,7.6414,0,0,1-4.64,9.1627c-.49.1884-.8313.3207-.9113.3545a16.8834,16.8834,0,0,0-1.2919,30.48C170.4959,119.8026,180.92,104.83,180.66,97.0111Z"/><path class="cls-7" d="M182.5609,26.4707a3.7608,3.7608,0,0,1-4.5732.6168,9.8341,9.8341,0,0,0-12.0125,1.6791,4.9541,4.9541,0,0,1-5.6305,1.0688,16.533,16.533,0,0,0-7.4955-1.4945,3.0694,3.0694,0,0,1-2.9032-1.7518A10.0069,10.0069,0,1,0,133.83,37.9447a10.08,10.08,0,0,1,3.0346,7.0606q.0015.2429.01.4863a10.0324,10.0324,0,0,1-1.8893,6.2649,14.601,14.601,0,1,0,24.8661,15.1146A7.3279,7.3279,0,0,1,167.056,62.85a9.8415,9.8415,0,0,0,9.8489-5.8966,2.81,2.81,0,0,1,.1623-.3,7.5047,7.5047,0,0,1,9.6675-2.8794c.4655.2223.79.3761.8681.41A16.5821,16.5821,0,0,0,210.21,34.52C205.6779,18.3258,187.9609,21.004,182.5609,26.4707Z"/><path class="cls-8" d="M235.8586,88.7639a7.0892,7.0892,0,0,1,7.83-6.0334h0a8.3981,8.3981,0,0,0,7.1521-14.02,5.3381,5.3381,0,0,1,.3459-7.5235,10.8113,10.8113,0,1,0-17.2684-12.14l-.0011-.0014a13.2458,13.2458,0,0,1-17.3189,7.139h0l.0017.0023a31.5722,31.5722,0,1,0,19.2591,32.5775Zm2.7737-20.4667c-.1641.0871-.3306.1664-.4992.2395q.3691-.4609.7784-.889A5.2969,5.2969,0,0,1,238.6323,68.2972Z"/><path class="cls-9" d="M141.4316,24.6154a4.2,4.2,0,0,0-2.3176.7086,19.9914,19.9914,0,0,1-19.5719,1.5041h0a2.7087,2.7087,0,0,0-1.141-.2543,3.4754,3.4754,0,0,0-3.1446,3.7306,3.4754,3.4754,0,0,0,3.1446,3.7306,2.7057,2.7057,0,0,0,1.141-.2543h0a19.9911,19.9911,0,0,1,19.5711,1.5043,4.2008,4.2008,0,0,0,2.3176.7086c2.6486,0,4.7956-2.5471,4.7956-5.6894S144.08,24.6154,141.4316,24.6154Z"/><path class="cls-10" d="M173.7388,117.55a2.781,2.781,0,1,0,2.781-2.781h0A2.781,2.781,0,0,0,173.7388,117.55Z"/><path class="cls-11" d="M266.288,21.1753a2.781,2.781,0,1,0,2.781-2.781h0A2.781,2.781,0,0,0,266.288,21.1753Z"/><circle class="cls-12" cx="259.5201" cy="95.5579" r="9.5489"/><circle class="cls-13" cx="153.006" cy="124.8714" r="7.1436"/><circle class="cls-14" cx="90.4757" cy="40.2303" r="7.1437"/><circle class="cls-15" cx="170.8581" cy="19.6847" r="11.3033"/><circle class="cls-16" cx="205.4663" cy="128.0221" r="9.648"/><circle class="cls-17" cx="269.069" cy="21.1753" r="6.0975" transform="translate(2.3328 62.3862) rotate(-13.2826)"/><circle class="cls-18" cx="91.5217" cy="108.2926" r="6.0975"/><circle class="cls-19" cx="160.5388" cy="43.8658" r="0.9775"/><path class="cls-20" d="M148.6732,94.5883a10.6126,10.6126,0,0,0-4.5469,7.6717l0-.0006c-.7392,7.1836-4.0734,8.5354-8.6613,8.0633l.0012.0017a6.7933,6.7933,0,1,0,5.8638,8.5135l.0012.0017c1.1944-4.4547,3.6461-7.088,10.6211-5.2178v0a10.6364,10.6364,0,1,0-3.2788-19.033Z"/><path class="cls-21" d="M133.6905,70.7272c-.0531,0-.1055.0028-.1583.0039v-.0025a21.296,21.296,0,0,1-13.786-4.7093V66.02a16.2728,16.2728,0,1,0,0,25.3407v.0008a21.2971,21.2971,0,0,1,13.786-4.7093V86.65c.0528.001.1052.0039.1583.0039a7.9633,7.9633,0,1,0,.0486-15.9265Q133.7148,70.727,133.6905,70.7272Z"/><path class="cls-22" d="M259.2938,101.8647a6.276,6.276,0,0,0,3.4466-1.0786v.0008a15.898,15.898,0,0,1,10.5521-2.6311v-.0005a2.83,2.83,0,0,0,.328.0155,2.7965,2.7965,0,1,0-.3988-5.5686v0a15.8993,15.8993,0,0,1-10.6159-2.3611v.0008a6.307,6.307,0,1,0-3.3121,11.6232Z"/><path class="cls-23" d="M110.6653,66.4322a12.1966,12.1966,0,0,0-6.7246,2.0111v-.0017a30.8993,30.8993,0,0,1-20.5719,4.8517v.0009a5.435,5.435,0,1,0,0,10.7932v.0009A30.8986,30.8986,0,0,1,103.9407,88.94v-.0022a12.2578,12.2578,0,1,0,6.7246-22.5058Z"/><path class="cls-23" d="M218.0472,20.3788a9.8764,9.8764,0,0,0-5.4451,1.6282v-.0014a25.02,25.02,0,0,1-16.6575,3.9284v.0008a4.4008,4.4008,0,1,0,0,8.7394v.0006a25.02,25.02,0,0,1,16.6575,3.9285v-.0014a9.9252,9.9252,0,1,0,5.445-18.2232Z"/><path class="cls-24" d="M269.7783,49.1609a4.3982,4.3982,0,0,0-2.5945.8427v-.001a15.7338,15.7338,0,0,1-19.4246-.7452v.0016a5.6714,5.6714,0,1,0,0,8.6414v.0017a15.7341,15.7341,0,0,1,19.4246-.7453V57.156a4.4187,4.4187,0,1,0,2.5945-7.9952Z"/><path class="cls-25" d="M134.364,112.8334a4.3068,4.3068,0,0,0-1.676.3375,18.4536,18.4536,0,0,1-15.5317-.7907h0a5.3959,5.3959,0,1,0,0,9.5426h0a18.4534,18.4534,0,0,1,15.5318-.7906,4.3183,4.3183,0,1,0,1.6759-8.2984Z"/><path class="cls-26" d="M211.1955,27.6688a4.6508,4.6508,0,1,0,4.6507-4.6507A4.6508,4.6508,0,0,0,211.1955,27.6688Z"/></g><g id="Text-2" data-name="Text"><path class="cls-27" d="M123.7867,75.077a6.9273,6.9273,0,0,1-1.2214-.1067,8.901,8.901,0,0,1-1.0071-.2316v-2.46q.3565,0,.7486.0177t.7486.0182a1.6159,1.6159,0,0,0,.7044-.134.8285.8285,0,0,0,.4012-.3921,1.4979,1.4979,0,0,0,.1248-.6506V61.7425H127.37V71.601a4.59,4.59,0,0,1-.3566,1.9171,2.3863,2.3863,0,0,1-1.15,1.1668A4.698,4.698,0,0,1,123.7867,75.077Z"/><path class="cls-27" d="M131.417,75.077a2.4656,2.4656,0,0,1-1.7828-.65,2.3417,2.3417,0,0,1-.6775-1.7739V71.726a2.3411,2.3411,0,0,1,.7756-1.8,3.5126,3.5126,0,0,1,2.4339-.7131h2.175v-.4633a1.2835,1.2835,0,0,0-.1427-.6419.8422.8422,0,0,0-.5529-.3565,5.4376,5.4376,0,0,0-1.2657-.1071h-2.8166V65.8784a9.5227,9.5227,0,0,1,1.6665-.4367,14.5879,14.5879,0,0,1,2.3088-.1874,6.6942,6.6942,0,0,1,2.068.2854,2.4985,2.4985,0,0,1,1.3458.9894,3.5879,3.5879,0,0,1,.4728,2.0056V74.97h-2.4426l-.4814-.98a4.3742,4.3742,0,0,1-1.1142.6945,4.5675,4.5675,0,0,1-.9.2854A5.1133,5.1133,0,0,1,131.417,75.077Zm1.587-2.1213a.8609.8609,0,0,0,.2941-.0175c.1128-.0232.2229-.05.33-.08s.2113-.0594.3123-.0889a1.9041,1.9041,0,0,0,.2494-.0894q.0977-.0443.1518-.0624V70.6562L133.2,70.763a1.7105,1.7105,0,0,0-.8825.3122.8362.8362,0,0,0-.2941.6862v.3743a.8685.8685,0,0,0,.1249.49.6346.6346,0,0,0,.3474.2585,1.6643,1.6643,0,0,0,.5081.071Z"/><path class="cls-27" d="M139.1537,74.97v-9.591h2.5492l.5349.945a7.2947,7.2947,0,0,1,1.2837-.7755,4.1687,4.1687,0,0,1,1.7828-.33,2.7105,2.7105,0,0,1,1.48.3744,2.5111,2.5111,0,0,1,.8914.9451q.3916-.285.9-.5969a5.5539,5.5539,0,0,1,1.1051-.517,3.638,3.638,0,0,1,1.186-.2052,3.343,3.343,0,0,1,1.8538.4368,2.3139,2.3139,0,0,1,.9273,1.248,6.2074,6.2074,0,0,1,.2671,1.9344v6.1324H150.831V69.1232a1.326,1.326,0,0,0-.1426-.66.8649.8649,0,0,0-.3921-.3656,1.44,1.44,0,0,0-.606-.1158,2.2815,2.2815,0,0,0-.8913.1873,3.0071,3.0071,0,0,0-.7665.4545c.0117.0955.02.19.0269.2854s.0087.1844.0087.2672V74.97h-3.0842V69.1232a1.3261,1.3261,0,0,0-.1427-.66.8662.8662,0,0,0-.3922-.3656,1.39,1.39,0,0,0-.5881-.1158,2.3645,2.3645,0,0,0-.6063.08,2.2957,2.2957,0,0,0-.5526.2229,3.2277,3.2277,0,0,0-.4636.321V74.97Z"/><path class="cls-27" d="M156.001,64.0777a.3466.3466,0,0,1-.3922-.294.3511.3511,0,0,1,0-.0982V61.8136q0-.41.3922-.41H158.39a.3388.3388,0,0,1,.2854.1158.47.47,0,0,1,.0889.2941v1.8719q0,.3924-.3743.3922ZM155.6444,74.97v-9.591h3.0842V74.97Z"/><path class="cls-27" d="M164.6832,75.06a6.6689,6.6689,0,0,1-2.585-.4194,2.6075,2.6075,0,0,1-1.4174-1.4787,8.0378,8.0378,0,0,1-.4367-2.9687,9.0667,9.0667,0,0,1,.4008-3.04,2.5346,2.5346,0,0,1,1.3458-1.5063,6.3329,6.3329,0,0,1,2.5676-.4281,7.8326,7.8326,0,0,1,2.3534.2854,2.0745,2.0745,0,0,1,1.2565,1.0162,4.5245,4.5245,0,0,1,.3838,2.068,2.8194,2.8194,0,0,1-.3928,1.5866,2.0842,2.0842,0,0,1-1.1143.8289,5.3892,5.3892,0,0,1-1.7024.2407h-2.05a2.6084,2.6084,0,0,0,.2225.9095.9832.9832,0,0,0,.6328.481,4.9578,4.9578,0,0,0,1.3732.1427h2.6917v1.8q-.66.16-1.5063.321A11.0543,11.0543,0,0,1,164.6832,75.06Zm-1.4262-5.6333h1.747a.9427.9427,0,0,0,.6419-.1782.8474.8474,0,0,0,.196-.6419,1.6035,1.6035,0,0,0-.1248-.6866.7528.7528,0,0,0-.41-.3743,2.0182,2.0182,0,0,0-.7486-.1158,1.4527,1.4527,0,0,0-.7486.1692,1.0085,1.0085,0,0,0-.4194.6063,4.36,4.36,0,0,0-.1331,1.2214Z"/><path class="cls-27" d="M178.8383,75.077q-.5529,0-1.1142-.0356t-1.1051-.0976q-.5439-.0625-1.0523-.1522t-.9355-.196V72.1539q.57.0534,1.2656.089t1.417.0534q.7221.018,1.3642.0181a4.9106,4.9106,0,0,0,1.06-.0984,1.2983,1.2983,0,0,0,.6692-.3387.9269.9269,0,0,0,.2316-.6684V70.87a.8821.8821,0,0,0-.3119-.7309,1.2308,1.2308,0,0,0-.7933-.25h-1.0348a4.5832,4.5832,0,0,1-3.03-.8735,3.6631,3.6631,0,0,1-1.034-2.9416V65.45a3.5074,3.5074,0,0,1,1.1407-2.8792,5.0544,5.0544,0,0,1,3.2806-.9359,13.9336,13.9336,0,0,1,1.5147.08q.7313.08,1.3913.1873t1.1581.2317V64.559q-.82-.0532-1.8356-.1067t-1.8545-.0538a4.4238,4.4238,0,0,0-.98.0981,1.2277,1.2277,0,0,0-.66.3565,1.1026,1.1026,0,0,0-.2317.7577v.25a1.0148,1.0148,0,0,0,.33.8379,1.581,1.581,0,0,0,1.0077.2672h1.23a4.0869,4.0869,0,0,1,2.0324.4546,2.9352,2.9352,0,0,1,1.2028,1.248,3.9065,3.9065,0,0,1,.4012,1.7917v.66a4.455,4.455,0,0,1-.579,2.4959,2.8588,2.8588,0,0,1-1.64,1.1586A9.1757,9.1757,0,0,1,178.8383,75.077Z"/><path class="cls-27" d="M187.289,75.077a2.4635,2.4635,0,0,1-1.7827-.65,2.341,2.341,0,0,1-.6775-1.7739V71.726a2.3411,2.3411,0,0,1,.7751-1.8,3.5128,3.5128,0,0,1,2.4339-.7131h2.1748v-.4633a1.29,1.29,0,0,0-.1423-.6419.8422.8422,0,0,0-.5526-.3565,5.4422,5.4422,0,0,0-1.2656-.1071h-2.8175V65.8784a9.5427,9.5427,0,0,1,1.6665-.4367,14.5869,14.5869,0,0,1,2.3088-.1874,6.6942,6.6942,0,0,1,2.068.2854,2.5012,2.5012,0,0,1,1.3466.9894,3.5948,3.5948,0,0,1,.4724,2.0056V74.97h-2.4427l-.4815-.98a4.4216,4.4216,0,0,1-.4368.3289,4.3488,4.3488,0,0,1-.6774.3656,4.5645,4.5645,0,0,1-.9.2854A5.1162,5.1162,0,0,1,187.289,75.077Zm1.5866-2.1213a.8584.8584,0,0,0,.2937-.0175c.1136-.0232.2234-.05.33-.08s.2111-.0594.3118-.0889a1.8431,1.8431,0,0,0,.25-.0894c.0651-.0295.1158-.05.1514-.0624V70.6562l-1.1407.1068a1.7115,1.7115,0,0,0-.8827.3122.8365.8365,0,0,0-.2937.6862v.3743a.8688.8688,0,0,0,.1241.49.6358.6358,0,0,0,.3482.2585,1.661,1.661,0,0,0,.508.071Z"/><path class="cls-27" d="M195.0259,74.97v-9.591h2.5494l.5345.945a7.2827,7.2827,0,0,1,1.2837-.7755,4.169,4.169,0,0,1,1.7828-.33,2.71,2.71,0,0,1,1.48.3744,2.509,2.509,0,0,1,.8909.9451q.393-.285.9008-.5969a5.5384,5.5384,0,0,1,1.1052-.517,3.6344,3.6344,0,0,1,1.1854-.2052,3.3453,3.3453,0,0,1,1.8545.4368,2.3141,2.3141,0,0,1,.9265,1.248,6.1993,6.1993,0,0,1,.268,1.9344v6.1324h-3.085V69.1232a1.3293,1.3293,0,0,0-.1423-.66.87.87,0,0,0-.3921-.3656,1.44,1.44,0,0,0-.6063-.1158,2.2856,2.2856,0,0,0-.8914.1873,3.021,3.021,0,0,0-.7668.4545c.0121.0955.0212.19.0272.2854s.0091.1844.0091.2672V74.97h-3.0846V69.1232a1.3314,1.3314,0,0,0-.1423-.66.87.87,0,0,0-.3921-.3656,1.3986,1.3986,0,0,0-.5891-.1158,2.3534,2.3534,0,0,0-.6055.08,2.2932,2.2932,0,0,0-.5534.2229,3.2351,3.2351,0,0,0-.4632.321V74.97Z"/><path class="cls-27" d="M214.19,75.077a2.5826,2.5826,0,0,1-1.9878-.7751A2.9758,2.9758,0,0,1,211.48,72.19v-6.81h3.085v5.8474a1.0613,1.0613,0,0,0,.3209.9092,1.3969,1.3969,0,0,0,.838.232,2.3971,2.3971,0,0,0,.8289-.1783,2.4971,2.4971,0,0,0,.7759-.4459V65.3793h3.065V74.97h-2.5487l-.517-.9444a9.3371,9.3371,0,0,1-1.4352.7218A4.4869,4.4869,0,0,1,214.19,75.077Z"/><path class="cls-27" d="M226.3488,75.06a6.6689,6.6689,0,0,1-2.585-.4194,2.6094,2.6094,0,0,1-1.4178-1.4787,8.04,8.04,0,0,1-.4367-2.9687,9.07,9.07,0,0,1,.4011-3.04,2.5361,2.5361,0,0,1,1.346-1.5063,6.3326,6.3326,0,0,1,2.5676-.4281,7.8319,7.8319,0,0,1,2.3533.2854,2.075,2.075,0,0,1,1.2566,1.0162,4.5257,4.5257,0,0,1,.3837,2.068,2.8194,2.8194,0,0,1-.3928,1.5866,2.0843,2.0843,0,0,1-1.1142.8289,5.39,5.39,0,0,1-1.7024.2407h-2.05a2.602,2.602,0,0,0,.2226.9095.9827.9827,0,0,0,.6328.481,4.956,4.956,0,0,0,1.373.1427h2.6918v1.8q-.66.16-1.5064.321A11.0532,11.0532,0,0,1,226.3488,75.06Zm-1.4262-5.6333H226.67a.9427.9427,0,0,0,.6419-.1782.8479.8479,0,0,0,.1961-.6419,1.6051,1.6051,0,0,0-.1249-.6866.7525.7525,0,0,0-.41-.3743,2.0182,2.0182,0,0,0-.7486-.1158,1.4533,1.4533,0,0,0-.7487.1692,1.0079,1.0079,0,0,0-.4193.6063,4.3564,4.3564,0,0,0-.1332,1.2214Z"/><path class="cls-27" d="M234.9062,75.0241a4.0438,4.0438,0,0,1-1.7828-.3481,2.2079,2.2079,0,0,1-1.0521-1.042,4.0342,4.0342,0,0,1-.3384-1.7652V61.3681h3.0839V71.3872a2.3042,2.3042,0,0,0,.0893.7131.75.75,0,0,0,.2854.4011,1.2634,1.2634,0,0,0,.4988.1874l.6419.089v2.2463Z"/><rect class="cls-27" x="121.0944" y="79.4621" width="49.7637" height="1.4799"/><path class="cls-27" d="M121.7345,93.5938V87.4727a2.2064,2.2064,0,0,1,.1791-.944,1.5665,1.5665,0,0,1,.4557-.5912,1.7615,1.7615,0,0,1,.6241-.3043,2.6211,2.6211,0,0,1,.6725-.0923q.3582,0,.95.0114t1.27.0431q.6783.033,1.2967.1085v1.5735h-2.9842a.5246.5246,0,0,0-.5859.5426v1.1287l3.0385.0976v1.4866l-3.0385.0977v2.9628Z"/><path class="cls-27" d="M129.5365,93.6589a1.5727,1.5727,0,0,1-1.21-.4724,1.8115,1.8115,0,0,1-.4394-1.2853V87.7553h1.8776v3.5592a.6459.6459,0,0,0,.1954.5534.8466.8466,0,0,0,.51.1415,1.467,1.467,0,0,0,.5044-.1085,1.5313,1.5313,0,0,0,.4724-.2718V87.755h1.8663v5.8384h-1.5518l-.3145-.5753a5.6063,5.6063,0,0,1-.8735.44A2.7246,2.7246,0,0,1,129.5365,93.6589Z"/><path class="cls-27" d="M136.33,93.6263a2.46,2.46,0,0,1-1.0852-.212,1.3427,1.3427,0,0,1-.64-.6343,2.4527,2.4527,0,0,1-.2059-1.0741V85.3134h1.8772v6.0988a1.4122,1.4122,0,0,0,.0543.4345.4542.4542,0,0,0,.1737.2437.7724.7724,0,0,0,.3039.1143l.3906.0543v1.3671Z"/><path class="cls-27" d="M139.8024,93.6263a2.46,2.46,0,0,1-1.0852-.212,1.3438,1.3438,0,0,1-.64-.6343,2.4541,2.4541,0,0,1-.2059-1.0741V85.3134h1.8773v6.0988a1.4058,1.4058,0,0,0,.0543.4345.4536.4536,0,0,0,.1737.2437.7712.7712,0,0,0,.3039.1143l.3906.0543v1.3671Z"/><path class="cls-27" d="M141.0286,91.1949V89.6977h3.364v1.4972Z"/><path class="cls-27" d="M147.7459,93.6589q-.3366,0-.6782-.022t-.673-.06q-.3309-.0375-.64-.0916t-.57-.12V91.8793q.3468.0328.77.0537.423.0226.8626.0333t.83.01a2.973,2.973,0,0,0,.6457-.06.7883.7883,0,0,0,.4072-.2067.5609.5609,0,0,0,.1408-.4064v-.2067a.5357.5357,0,0,0-.19-.4444.749.749,0,0,0-.4829-.1521H147.54a2.7922,2.7922,0,0,1-1.8448-.5314,2.2318,2.2318,0,0,1-.6295-1.791v-.38a2.1349,2.1349,0,0,1,.6945-1.7523,3.0731,3.0731,0,0,1,1.9965-.57,8.4326,8.4326,0,0,1,.9224.0492q.4451.0488.8467.1135t.7054.1416v1.476q-.499-.0329-1.1177-.0651t-1.1286-.0325a2.7194,2.7194,0,0,0-.5968.059.7522.7522,0,0,0-.4016.2171.6709.6709,0,0,0-.1408.4609v.1522a.6184.6184,0,0,0,.2006.51.9655.9655,0,0,0,.6131.1628h.7491a2.49,2.49,0,0,1,1.2368.2763,1.7894,1.7894,0,0,1,.7324.76,2.38,2.38,0,0,1,.2444,1.0908V91.25a2.7078,2.7078,0,0,1-.3527,1.5192,1.7376,1.7376,0,0,1-.9985.7054A5.57,5.57,0,0,1,147.7459,93.6589Z"/><path class="cls-27" d="M153.931,93.5938a2.774,2.774,0,0,1-1.1445-.2007,1.1806,1.1806,0,0,1-.6241-.6676A3.2916,3.2916,0,0,1,152,91.4561l.0543-2.2141h-.9008V88.0483l.9766-.293.2389-1.6391h1.4867V87.755h1.2694v1.4867h-1.2694v2.2027a1.2356,1.2356,0,0,0,.0326.31.5349.5349,0,0,0,.0977.2059.3892.3892,0,0,0,.1517.12.64.64,0,0,0,.1953.0492l.7381.0757v1.389Z"/><path class="cls-27" d="M157.1867,93.6589a1.5,1.5,0,0,1-1.0852-.396,1.4273,1.4273,0,0,1-.4125-1.08v-.564a1.4251,1.4251,0,0,1,.4719-1.096,2.1391,2.1391,0,0,1,1.4814-.4345h1.3239v-.2825a.7847.7847,0,0,0-.0867-.3906.5132.5132,0,0,0-.3364-.2165,3.29,3.29,0,0,0-.7706-.0651h-1.7143V88.0587a5.8206,5.8206,0,0,1,1.0147-.2657,8.7859,8.7859,0,0,1,1.4054-.1135,4.07,4.07,0,0,1,1.2587.1733,1.52,1.52,0,0,1,.8194.6026,2.1828,2.1828,0,0,1,.2873,1.22v3.918H159.357l-.2929-.5968a2.6421,2.6421,0,0,1-.6782.4231,2.7939,2.7939,0,0,1-.5481.1734A3.1232,3.1232,0,0,1,157.1867,93.6589Zm.9658-1.2915a.5163.5163,0,0,0,.1791-.0105c.0685-.0144.1355-.031.2006-.0492s.1283-.0364.19-.0538a1.1869,1.1869,0,0,0,.1518-.0542.8933.8933,0,0,1,.0923-.0378V90.9674l-.6945.0651a1.0433,1.0433,0,0,0-.537.19.5087.5087,0,0,0-.1791.4185v.2272a.5309.5309,0,0,0,.0757.299.3883.3883,0,0,0,.212.1574,1.014,1.014,0,0,0,.3091.0428Z"/><path class="cls-27" d="M164.2188,93.6589a3.2249,3.2249,0,0,1-.9984-.1473,1.9354,1.9354,0,0,1-.7872-.4769,2.2229,2.2229,0,0,1-.5155-.9007,4.7166,4.7166,0,0,1-.1839-1.4277,5.5172,5.5172,0,0,1,.168-1.48,2.2346,2.2346,0,0,1,.4883-.9333,1.7974,1.7974,0,0,1,.7978-.489,3.7406,3.7406,0,0,1,1.0961-.146,7.0819,7.0819,0,0,1,1.0309.07,7.6892,7.6892,0,0,1,1.031.2332v1.0749H164.88a1.7576,1.7576,0,0,0-.7645.1355.7773.7773,0,0,0-.3913.4935,3.549,3.549,0,0,0-.1136,1.02,3.3691,3.3691,0,0,0,.1136,1.0038.6772.6772,0,0,0,.3913.45,2.23,2.23,0,0,0,.7865.1085h1.53v1.0636a5.2076,5.2076,0,0,1-.6457.1794,7.6136,7.6136,0,0,1-1.5677.168Z"/><path class="cls-27" d="M167.2134,93.5938v-8.28h1.8773v4.3623h.629l1.1074-1.92h1.8878l-1.6062,2.7672,1.7905,3.0709h-1.8886l-1.3126-2.2353H169.09v2.2353Z"/><path class="cls-27" d="M176.2636,93.5938V85.5412h3.4835a2.8742,2.8742,0,0,1,1.4049.3043,2.3031,2.3031,0,0,1,.8735.8463,3.7141,3.7141,0,0,1,.4557,1.2807,9.2284,9.2284,0,0,1,.13,1.6056,6.8985,6.8985,0,0,1-.3142,2.2739,2.5586,2.5586,0,0,1-.95,1.3133,2.8016,2.8016,0,0,1-1.6.4284Zm1.8772-1.6821h1.4216a.9579.9579,0,0,0,.7-.25,1.5087,1.5087,0,0,0,.3687-.7706,6.311,6.311,0,0,0,.1143-1.3133,7.2855,7.2855,0,0,0-.0818-1.2149,2.0359,2.0359,0,0,0-.2331-.7108.8221.8221,0,0,0-.3694-.3368,1.2677,1.2677,0,0,0-.4988-.0916h-1.4216Z"/><path class="cls-27" d="M186.03,93.6482a4.0637,4.0637,0,0,1-1.5729-.2551,1.59,1.59,0,0,1-.863-.9007,4.9015,4.9015,0,0,1-.2657-1.8069,5.5213,5.5213,0,0,1,.2438-1.8508,1.5416,1.5416,0,0,1,.82-.9166,3.856,3.856,0,0,1,1.5623-.26,4.7838,4.7838,0,0,1,1.4322.1733,1.2653,1.2653,0,0,1,.7653.6185,2.7494,2.7494,0,0,1,.2335,1.2588,1.7151,1.7151,0,0,1-.2389.9659,1.2657,1.2657,0,0,1-.6782.5048,3.2867,3.2867,0,0,1-1.0362.1473h-1.248a1.5811,1.5811,0,0,0,.1355.5533.6006.6006,0,0,0,.3853.293,3.0113,3.0113,0,0,0,.8357.087h1.6387v1.0961q-.402.0977-.9166.1953A6.716,6.716,0,0,1,186.03,93.6482Zm-.8675-3.43h1.0628a.5742.5742,0,0,0,.3913-.1085.5156.5156,0,0,0,.1189-.3906.9683.9683,0,0,0-.0757-.4178.4544.4544,0,0,0-.25-.2279,1.2331,1.2331,0,0,0-.4557-.07.8842.8842,0,0,0-.4557.1029.615.615,0,0,0-.2551.3687,2.6541,2.6541,0,0,0-.081.7436Z"/><path class="cls-27" d="M190.6424,93.5938l-1.8773-5.8385h1.9318l1.0634,4.1019,1.0961-4.1019h1.9212l-1.9756,5.8385Z"/><path class="cls-27" d="M197.75,93.6482a4.0645,4.0645,0,0,1-1.573-.2551,1.59,1.59,0,0,1-.8629-.9007,4.9015,4.9015,0,0,1-.2657-1.8069,5.5187,5.5187,0,0,1,.2438-1.8508,1.5414,1.5414,0,0,1,.82-.9166,3.8567,3.8567,0,0,1,1.5624-.26,4.7838,4.7838,0,0,1,1.4322.1733,1.2653,1.2653,0,0,1,.7653.6185,2.7546,2.7546,0,0,1,.2331,1.2588,1.72,1.72,0,0,1-.2384.9659,1.2663,1.2663,0,0,1-.6783.5048,3.2869,3.2869,0,0,1-1.0363.1473h-1.248a1.5855,1.5855,0,0,0,.1355.5533.6008.6008,0,0,0,.3854.293,3.011,3.011,0,0,0,.8356.087h1.6387v1.0961q-.4018.0977-.9166.1953A6.7156,6.7156,0,0,1,197.75,93.6482Zm-.8675-3.43h1.0628a.5743.5743,0,0,0,.3913-.1085.5151.5151,0,0,0,.1188-.3906.9668.9668,0,0,0-.0756-.4178.4544.4544,0,0,0-.25-.2279,1.2337,1.2337,0,0,0-.4557-.07.8842.8842,0,0,0-.4557.1029.615.615,0,0,0-.2551.3687A2.65,2.65,0,0,0,196.8827,90.2185Z"/><path class="cls-27" d="M202.96,93.6263a2.46,2.46,0,0,1-1.0852-.212,1.3464,1.3464,0,0,1-.64-.6343,2.46,2.46,0,0,1-.2059-1.0741V85.3134h1.8773v6.0988a1.4058,1.4058,0,0,0,.0543.4345.4512.4512,0,0,0,.1733.2437.7737.7737,0,0,0,.3035.1143l.3906.0543v1.3671Z"/><path class="cls-27" d="M207.0722,93.6482a4.5076,4.5076,0,0,1-1.2748-.1574,1.8474,1.8474,0,0,1-.8516-.51,2.0558,2.0558,0,0,1-.4671-.9224,5.91,5.91,0,0,1-.1407-1.3943,6.1464,6.1464,0,0,1,.1461-1.47,1.9844,1.9844,0,0,1,.4724-.9174,1.8157,1.8157,0,0,1,.8515-.4777,4.9473,4.9473,0,0,1,1.2642-.1407,4.8026,4.8026,0,0,1,1.2807.146,1.7914,1.7914,0,0,1,.841.489,2.1013,2.1013,0,0,1,.4723.922,5.866,5.866,0,0,1,.1514,1.4488,6.15,6.15,0,0,1-.1408,1.4329,2.0141,2.0141,0,0,1-.4609.9168,1.7874,1.7874,0,0,1-.8463.4883A4.9106,4.9106,0,0,1,207.0722,93.6482Zm0-1.4866a1.4613,1.4613,0,0,0,.4125-.0493.4644.4644,0,0,0,.26-.1952,1.1665,1.1665,0,0,0,.1468-.4505,6.8638,6.8638,0,0,0,0-1.6282,1.1668,1.1668,0,0,0-.1468-.45.44.44,0,0,0-.26-.19,1.6365,1.6365,0,0,0-.4125-.044,1.58,1.58,0,0,0-.4012.044.4622.4622,0,0,0-.2657.19,1.05,1.05,0,0,0-.1469.45,7.7057,7.7057,0,0,0,0,1.6282,1.0507,1.0507,0,0,0,.1469.4505.489.489,0,0,0,.2657.1952A1.4115,1.4115,0,0,0,207.0722,92.1616Z"/><path class="cls-27" d="M210.74,96.1659V87.7553h1.5735l.3035.5426a4.1883,4.1883,0,0,1,.4341-.32,2.1164,2.1164,0,0,1,.4943-.2331,1.884,1.884,0,0,1,.5912-.0871,2.0479,2.0479,0,0,1,.9166.1953,1.6074,1.6074,0,0,1,.6457.5806,2.88,2.88,0,0,1,.3747.9493,6.0623,6.0623,0,0,1,.1249,1.3026A6.24,6.24,0,0,1,216.02,92.28a1.7259,1.7259,0,0,1-1.8825,1.4005,3.9818,3.9818,0,0,1-.7926-.0818,2.9419,2.9419,0,0,1-.7267-.2437v2.8105ZM213.507,92.14a.7345.7345,0,0,0,.3854-.1143.8039.8039,0,0,0,.3095-.4284,2.6921,2.6921,0,0,0,.12-.9114,3.4354,3.4354,0,0,0-.0976-.928.8435.8435,0,0,0-.2771-.461.7065.7065,0,0,0-.4284-.13,1.5164,1.5164,0,0,0-.5208.0863,2.1026,2.1026,0,0,0-.38.1741v2.4959a1.3014,1.3014,0,0,0,.3959.1575,2.061,2.061,0,0,0,.4933.0595Z"/><path class="cls-27" d="M219.66,93.6482a4.0645,4.0645,0,0,1-1.573-.2551,1.59,1.59,0,0,1-.8629-.9007,4.9018,4.9018,0,0,1-.2657-1.8069,5.5237,5.5237,0,0,1,.2437-1.8508,1.5419,1.5419,0,0,1,.82-.9166,3.8567,3.8567,0,0,1,1.5624-.26,4.7838,4.7838,0,0,1,1.4322.1733,1.2649,1.2649,0,0,1,.7652.6185,2.7534,2.7534,0,0,1,.2332,1.2588,1.7193,1.7193,0,0,1-.2384.9659,1.2663,1.2663,0,0,1-.6783.5048,3.2867,3.2867,0,0,1-1.0362.1473h-1.248a1.5855,1.5855,0,0,0,.1355.5533.6008.6008,0,0,0,.3853.293,3.0117,3.0117,0,0,0,.8357.087h1.6388v1.0961q-.4018.0977-.9166.1953A6.7178,6.7178,0,0,1,219.66,93.6482Zm-.8675-3.43h1.0628a.5743.5743,0,0,0,.3913-.1085.5156.5156,0,0,0,.1189-.3906.9683.9683,0,0,0-.0757-.4178.4547.4547,0,0,0-.25-.2279,1.2334,1.2334,0,0,0-.4557-.07.8834.8834,0,0,0-.4557.1029.615.615,0,0,0-.2551.3687A2.6541,2.6541,0,0,0,218.7921,90.2185Z"/><path class="cls-27" d="M222.9372,93.5938V87.7553h1.4541l.4232.8463a3.2067,3.2067,0,0,1,.6511-.6563,1.4225,1.4225,0,0,1,.8788-.2771q.0976,0,.2226.0114a1.1061,1.1061,0,0,1,.2331.0432v1.92c-.1158-.0144-.2346-.0249-.358-.0325s-.2384-.0107-.3467-.0107a2.0915,2.0915,0,0,0-.5155.06,1.5842,1.5842,0,0,0-.4231.1733,1.3258,1.3258,0,0,0-.3422.299v3.4616Z"/></g></g></g></svg>